<svg width="81" height="17" viewBox="0 0 81 17" fill="none" xmlns="http://www.w3.org/2000/svg">
<path d="M14.7798 7.0942L14.8317 7.25802C14.8795 7.60448 14.7477 7.95501 14.4717 8.18356L14.4713 8.18391L12.2246 10.0506L12.0648 10.1833L12.1136 10.3853L12.8003 13.2253L12.8003 13.2253L12.8009 13.2278C12.9014 13.6297 12.7514 14.0458 12.4189 14.2926L12.4189 14.2926L12.417 14.2941C12.0938 14.5377 11.6665 14.5596 11.3133 14.353C11.3131 14.3528 11.3129 14.3527 11.3128 14.3526L8.67389 12.7933L8.50431 12.6931L8.33474 12.7933L5.69475 14.3533L5.69415 14.3536C5.53394 14.4488 5.35968 14.4936 5.18433 14.4936C4.97786 14.4936 4.7672 14.4245 4.58977 14.2927L4.5897 14.2926C4.25727 14.0458 4.10723 13.6297 4.20772 13.2278L4.20803 13.2265L4.90136 10.4065L4.95097 10.2048L4.79165 10.0714L2.53833 8.18472L2.53834 8.18471L2.53695 8.18356C2.21545 7.91732 2.08952 7.48557 2.21548 7.08754C2.34156 6.6891 2.68663 6.41599 3.09533 6.38608L3.0968 6.38597L6.10345 6.15264L6.30664 6.13687L6.38522 5.94882L7.5706 3.1119C7.73899 2.73187 8.09359 2.50032 8.49764 2.50032C8.90808 2.50032 9.25477 2.73129 9.41691 3.11589C9.41697 3.11604 9.41703 3.11619 9.41709 3.11634L10.6034 5.95548L10.682 6.14357L10.8852 6.15931L13.8985 6.39264L13.9 6.39275C14.3087 6.42265 14.6537 6.69577 14.7798 7.0942Z" fill="#E5E5E8" stroke="#E5E5E8" stroke-width="0.666663"/>
<path d="M30.7798 7.0942L30.8317 7.25802C30.8795 7.60448 30.7477 7.95501 30.4717 8.18356L30.4713 8.18391L28.2246 10.0506L28.0648 10.1833L28.1136 10.3853L28.8003 13.2253L28.8003 13.2253L28.8009 13.2278C28.9014 13.6297 28.7514 14.0458 28.4189 14.2926L28.4189 14.2926L28.417 14.2941C28.0938 14.5377 27.6665 14.5596 27.3133 14.353C27.3131 14.3528 27.3129 14.3527 27.3128 14.3526L24.6739 12.7933L24.5043 12.6931L24.3347 12.7933L21.6947 14.3533L21.6941 14.3536C21.5339 14.4488 21.3597 14.4936 21.1843 14.4936C20.9779 14.4936 20.7672 14.4245 20.5898 14.2927L20.5897 14.2926C20.2573 14.0458 20.1072 13.6297 20.2077 13.2278L20.208 13.2265L20.9014 10.4065L20.951 10.2048L20.7917 10.0714L18.5383 8.18472L18.5383 8.18471L18.5369 8.18356C18.2155 7.91732 18.0895 7.48557 18.2155 7.08754C18.3416 6.6891 18.6866 6.41599 19.0953 6.38608L19.0968 6.38597L22.1034 6.15264L22.3066 6.13687L22.3852 5.94882L23.5706 3.1119C23.739 2.73187 24.0936 2.50032 24.4976 2.50032C24.9081 2.50032 25.2548 2.73129 25.4169 3.11589C25.417 3.11604 25.417 3.11619 25.4171 3.11634L26.6034 5.95548L26.682 6.14357L26.8852 6.15931L29.8985 6.39264L29.9 6.39275C30.3087 6.42265 30.6537 6.69577 30.7798 7.0942Z" fill="#E5E5E8" stroke="#E5E5E8" stroke-width="0.666663"/>
<path d="M46.7798 7.0942L46.8317 7.25802C46.8795 7.60448 46.7477 7.95501 46.4717 8.18356L46.4713 8.18391L44.2246 10.0506L44.0648 10.1833L44.1136 10.3853L44.8003 13.2253L44.8003 13.2253L44.8009 13.2278C44.9014 13.6297 44.7514 14.0458 44.4189 14.2926L44.4189 14.2926L44.417 14.2941C44.0938 14.5377 43.6665 14.5596 43.3133 14.353C43.3131 14.3528 43.3129 14.3527 43.3128 14.3526L40.6739 12.7933L40.5043 12.6931L40.3347 12.7933L37.6947 14.3533L37.6941 14.3536C37.5339 14.4488 37.3597 14.4936 37.1843 14.4936C36.9779 14.4936 36.7672 14.4245 36.5898 14.2927L36.5897 14.2926C36.2573 14.0458 36.1072 13.6297 36.2077 13.2278L36.208 13.2265L36.9014 10.4065L36.951 10.2048L36.7917 10.0714L34.5383 8.18472L34.5383 8.18471L34.5369 8.18356C34.2155 7.91732 34.0895 7.48557 34.2155 7.08754C34.3416 6.6891 34.6866 6.41599 35.0953 6.38608L35.0968 6.38597L38.1034 6.15264L38.3066 6.13687L38.3852 5.94882L39.5706 3.1119C39.739 2.73187 40.0936 2.50032 40.4976 2.50032C40.9081 2.50032 41.2548 2.73129 41.4169 3.11589C41.417 3.11604 41.417 3.11619 41.4171 3.11634L42.6034 5.95548L42.682 6.14357L42.8852 6.15931L45.8985 6.39264L45.9 6.39275C46.3087 6.42265 46.6537 6.69577 46.7798 7.0942Z" fill="#E5E5E8" stroke="#E5E5E8" stroke-width="0.666663"/>
<path d="M62.7798 7.0942L62.8317 7.25802C62.8795 7.60448 62.7477 7.95501 62.4717 8.18356L62.4713 8.18391L60.2246 10.0506L60.0648 10.1833L60.1136 10.3853L60.8003 13.2253L60.8003 13.2253L60.8009 13.2278C60.9014 13.6297 60.7514 14.0458 60.4189 14.2926L60.4189 14.2926L60.417 14.2941C60.0938 14.5377 59.6665 14.5596 59.3133 14.353C59.3131 14.3528 59.3129 14.3527 59.3128 14.3526L56.6739 12.7933L56.5043 12.6931L56.3347 12.7933L53.6947 14.3533L53.6941 14.3536C53.5339 14.4488 53.3597 14.4936 53.1843 14.4936C52.9779 14.4936 52.7672 14.4245 52.5898 14.2927L52.5897 14.2926C52.2573 14.0458 52.1072 13.6297 52.2077 13.2278L52.208 13.2265L52.9014 10.4065L52.951 10.2048L52.7917 10.0714L50.5383 8.18472L50.5383 8.18471L50.5369 8.18356C50.2155 7.91732 50.0895 7.48557 50.2155 7.08754C50.3416 6.6891 50.6866 6.41599 51.0953 6.38608L51.0968 6.38597L54.1034 6.15264L54.3066 6.13687L54.3852 5.94882L55.5706 3.1119C55.739 2.73187 56.0936 2.50032 56.4976 2.50032C56.9081 2.50032 57.2548 2.73129 57.4169 3.11589C57.417 3.11604 57.417 3.11619 57.4171 3.11634L58.6034 5.95548L58.682 6.14357L58.8852 6.15931L61.8985 6.39264L61.9 6.39275C62.3087 6.42265 62.6537 6.69577 62.7798 7.0942Z" fill="#E5E5E8" stroke="#E5E5E8" stroke-width="0.666663"/>
<path d="M78.7798 7.0942L78.8317 7.25802C78.8795 7.60448 78.7477 7.95501 78.4717 8.18356L78.4713 8.18391L76.2246 10.0506L76.0648 10.1833L76.1136 10.3853L76.8003 13.2253L76.8003 13.2253L76.8009 13.2278C76.9014 13.6297 76.7514 14.0458 76.4189 14.2926L76.4189 14.2926L76.417 14.2941C76.0938 14.5377 75.6665 14.5596 75.3133 14.353C75.3131 14.3528 75.3129 14.3527 75.3128 14.3526L72.6739 12.7933L72.5043 12.6931L72.3347 12.7933L69.6947 14.3533L69.6941 14.3536C69.5339 14.4488 69.3597 14.4936 69.1843 14.4936C68.9779 14.4936 68.7672 14.4245 68.5898 14.2927L68.5897 14.2926C68.2573 14.0458 68.1072 13.6297 68.2077 13.2278L68.208 13.2265L68.9014 10.4065L68.951 10.2048L68.7917 10.0714L66.5383 8.18472L66.5383 8.18471L66.5369 8.18356C66.2155 7.91732 66.0895 7.48557 66.2155 7.08754C66.3416 6.6891 66.6866 6.41599 67.0953 6.38608L67.0968 6.38597L70.1034 6.15264L70.3066 6.13687L70.3852 5.94882L71.5706 3.1119C71.739 2.73187 72.0936 2.50032 72.4976 2.50032C72.9081 2.50032 73.2548 2.73129 73.4169 3.11589C73.417 3.11604 73.417 3.11619 73.4171 3.11634L74.6034 5.95548L74.682 6.14357L74.8852 6.15931L77.8985 6.39264L77.9 6.39275C78.3087 6.42265 78.6537 6.69577 78.7798 7.0942Z" fill="#E5E5E8" stroke="#E5E5E8" stroke-width="0.666663"/>
<mask id="mask0_1723_22453" style="mask-type:alpha" maskUnits="userSpaceOnUse" x="0" y="0" width="81" height="17">
<path d="M14.7798 7.0942L14.8317 7.25802C14.8795 7.60448 14.7477 7.95501 14.4717 8.18356L14.4713 8.18391L12.2246 10.0506L12.0648 10.1833L12.1136 10.3853L12.8003 13.2253L12.8003 13.2253L12.8009 13.2278C12.9014 13.6297 12.7514 14.0458 12.4189 14.2926L12.4189 14.2926L12.417 14.2941C12.0938 14.5377 11.6665 14.5596 11.3133 14.353C11.3131 14.3528 11.3129 14.3527 11.3128 14.3526L8.67389 12.7933L8.50431 12.6931L8.33474 12.7933L5.69475 14.3533L5.69415 14.3536C5.53394 14.4488 5.35968 14.4936 5.18433 14.4936C4.97786 14.4936 4.7672 14.4245 4.58977 14.2927L4.5897 14.2926C4.25727 14.0458 4.10723 13.6297 4.20772 13.2278L4.20803 13.2265L4.90136 10.4065L4.95097 10.2048L4.79165 10.0714L2.53833 8.18472L2.53834 8.18471L2.53695 8.18356C2.21545 7.91732 2.08952 7.48557 2.21548 7.08754C2.34156 6.6891 2.68663 6.41599 3.09533 6.38608L3.0968 6.38597L6.10345 6.15264L6.30664 6.13687L6.38522 5.94882L7.5706 3.1119C7.73899 2.73187 8.09359 2.50032 8.49764 2.50032C8.90808 2.50032 9.25477 2.73129 9.41691 3.11589C9.41697 3.11604 9.41703 3.11619 9.41709 3.11634L10.6034 5.95548L10.682 6.14357L10.8852 6.15931L13.8985 6.39264L13.9 6.39275C14.3087 6.42265 14.6537 6.69577 14.7798 7.0942Z" fill="#A1BC10" stroke="#A1BC10" stroke-width="0.666663"/>
<path d="M30.7798 7.0942L30.8317 7.25802C30.8795 7.60448 30.7477 7.95501 30.4717 8.18356L30.4713 8.18391L28.2246 10.0506L28.0648 10.1833L28.1136 10.3853L28.8003 13.2253L28.8003 13.2253L28.8009 13.2278C28.9014 13.6297 28.7514 14.0458 28.4189 14.2926L28.4189 14.2926L28.417 14.2941C28.0938 14.5377 27.6665 14.5596 27.3133 14.353C27.3131 14.3528 27.3129 14.3527 27.3128 14.3526L24.6739 12.7933L24.5043 12.6931L24.3347 12.7933L21.6947 14.3533L21.6941 14.3536C21.5339 14.4488 21.3597 14.4936 21.1843 14.4936C20.9779 14.4936 20.7672 14.4245 20.5898 14.2927L20.5897 14.2926C20.2573 14.0458 20.1072 13.6297 20.2077 13.2278L20.208 13.2265L20.9014 10.4065L20.951 10.2048L20.7917 10.0714L18.5383 8.18472L18.5383 8.18471L18.5369 8.18356C18.2155 7.91732 18.0895 7.48557 18.2155 7.08754C18.3416 6.6891 18.6866 6.41599 19.0953 6.38608L19.0968 6.38597L22.1034 6.15264L22.3066 6.13687L22.3852 5.94882L23.5706 3.1119C23.739 2.73187 24.0936 2.50032 24.4976 2.50032C24.9081 2.50032 25.2548 2.73129 25.4169 3.11589C25.417 3.11604 25.417 3.11619 25.4171 3.11634L26.6034 5.95548L26.682 6.14357L26.8852 6.15931L29.8985 6.39264L29.9 6.39275C30.3087 6.42265 30.6537 6.69577 30.7798 7.0942Z" fill="#A1BC10" stroke="#A1BC10" stroke-width="0.666663"/>
<path d="M46.7798 7.0942L46.8317 7.25802C46.8795 7.60448 46.7477 7.95501 46.4717 8.18356L46.4713 8.18391L44.2246 10.0506L44.0648 10.1833L44.1136 10.3853L44.8003 13.2253L44.8003 13.2253L44.8009 13.2278C44.9014 13.6297 44.7514 14.0458 44.4189 14.2926L44.4189 14.2926L44.417 14.2941C44.0938 14.5377 43.6665 14.5596 43.3133 14.353C43.3131 14.3528 43.3129 14.3527 43.3128 14.3526L40.6739 12.7933L40.5043 12.6931L40.3347 12.7933L37.6947 14.3533L37.6941 14.3536C37.5339 14.4488 37.3597 14.4936 37.1843 14.4936C36.9779 14.4936 36.7672 14.4245 36.5898 14.2927L36.5897 14.2926C36.2573 14.0458 36.1072 13.6297 36.2077 13.2278L36.208 13.2265L36.9014 10.4065L36.951 10.2048L36.7917 10.0714L34.5383 8.18472L34.5383 8.18471L34.5369 8.18356C34.2155 7.91732 34.0895 7.48557 34.2155 7.08754C34.3416 6.6891 34.6866 6.41599 35.0953 6.38608L35.0968 6.38597L38.1034 6.15264L38.3066 6.13687L38.3852 5.94882L39.5706 3.1119C39.739 2.73187 40.0936 2.50032 40.4976 2.50032C40.9081 2.50032 41.2548 2.73129 41.4169 3.11589C41.417 3.11604 41.417 3.11619 41.4171 3.11634L42.6034 5.95548L42.682 6.14357L42.8852 6.15931L45.8985 6.39264L45.9 6.39275C46.3087 6.42265 46.6537 6.69577 46.7798 7.0942Z" fill="#A1BC10" stroke="#A1BC10" stroke-width="0.666663"/>
<path d="M62.7798 7.0942L62.8317 7.25802C62.8795 7.60448 62.7477 7.95501 62.4717 8.18356L62.4713 8.18391L60.2246 10.0506L60.0648 10.1833L60.1136 10.3853L60.8003 13.2253L60.8003 13.2253L60.8009 13.2278C60.9014 13.6297 60.7514 14.0458 60.4189 14.2926L60.4189 14.2926L60.417 14.2941C60.0938 14.5377 59.6665 14.5596 59.3133 14.353C59.3131 14.3528 59.3129 14.3527 59.3128 14.3526L56.6739 12.7933L56.5043 12.6931L56.3347 12.7933L53.6947 14.3533L53.6941 14.3536C53.5339 14.4488 53.3597 14.4936 53.1843 14.4936C52.9779 14.4936 52.7672 14.4245 52.5898 14.2927L52.5897 14.2926C52.2573 14.0458 52.1072 13.6297 52.2077 13.2278L52.208 13.2265L52.9014 10.4065L52.951 10.2048L52.7917 10.0714L50.5383 8.18472L50.5383 8.18471L50.5369 8.18356C50.2155 7.91732 50.0895 7.48557 50.2155 7.08754C50.3416 6.6891 50.6866 6.41599 51.0953 6.38608L51.0968 6.38597L54.1034 6.15264L54.3066 6.13687L54.3852 5.94882L55.5706 3.1119C55.739 2.73187 56.0936 2.50032 56.4976 2.50032C56.9081 2.50032 57.2548 2.73129 57.4169 3.11589C57.417 3.11604 57.417 3.11619 57.4171 3.11634L58.6034 5.95548L58.682 6.14357L58.8852 6.15931L61.8985 6.39264L61.9 6.39275C62.3087 6.42265 62.6537 6.69577 62.7798 7.0942Z" fill="#A1BC10" stroke="#A1BC10" stroke-width="0.666663"/>
<path d="M78.7798 7.0942L78.8317 7.25802C78.8795 7.60448 78.7477 7.95501 78.4717 8.18356L78.4713 8.18391L76.2246 10.0506L76.0648 10.1833L76.1136 10.3853L76.8003 13.2253L76.8003 13.2253L76.8009 13.2278C76.9014 13.6297 76.7514 14.0458 76.4189 14.2926L76.4189 14.2926L76.417 14.2941C76.0938 14.5377 75.6665 14.5596 75.3133 14.353C75.3131 14.3528 75.3129 14.3527 75.3128 14.3526L72.6739 12.7933L72.5043 12.6931L72.3347 12.7933L69.6947 14.3533L69.6941 14.3536C69.5339 14.4488 69.3597 14.4936 69.1843 14.4936C68.9779 14.4936 68.7672 14.4245 68.5898 14.2927L68.5897 14.2926C68.2573 14.0458 68.1072 13.6297 68.2077 13.2278L68.208 13.2265L68.9014 10.4065L68.951 10.2048L68.7917 10.0714L66.5383 8.18472L66.5383 8.18471L66.5369 8.18356C66.2155 7.91732 66.0895 7.48557 66.2155 7.08754C66.3416 6.6891 66.6866 6.41599 67.0953 6.38608L67.0968 6.38597L70.1034 6.15264L70.3066 6.13687L70.3852 5.94882L71.5706 3.1119C71.739 2.73187 72.0936 2.50032 72.4976 2.50032C72.9081 2.50032 73.2548 2.73129 73.4169 3.11589C73.417 3.11604 73.417 3.11619 73.4171 3.11634L74.6034 5.95548L74.682 6.14357L74.8852 6.15931L77.8985 6.39264L77.9 6.39275C78.3087 6.42265 78.6537 6.69577 78.7798 7.0942Z" fill="#A1BC10" stroke="#A1BC10" stroke-width="0.666663"/>
</mask>
<g mask="url(#mask0_1723_22453)">
</g>
</svg>
