<svg width="80" height="17" viewBox="0 0 80 17" fill="none" xmlns="http://www.w3.org/2000/svg">
<path d="M14.2803 6.69479L14.3321 6.8586C14.38 7.20507 14.2482 7.5556 13.9722 7.78415L13.9717 7.78449L11.7251 9.65115L11.5653 9.78393L11.6141 9.98587L12.3008 12.8259L12.3008 12.8259L12.3014 12.8284C12.4019 13.2303 12.2518 13.6464 11.9194 13.8932L11.9194 13.8932L11.9175 13.8947C11.5943 14.1383 11.167 14.1602 10.8138 13.9535C10.8136 13.9534 10.8134 13.9533 10.8133 13.9532L8.17437 12.3939L8.0048 12.2937L7.83522 12.3939L5.19524 13.9539L5.19464 13.9542C5.03442 14.0494 4.86017 14.0942 4.68482 14.0942C4.47835 14.0942 4.26769 14.0251 4.09026 13.8933L4.09019 13.8932C3.75776 13.6464 3.60772 13.2303 3.70821 12.8284L3.70852 12.8271L4.40185 10.0071L4.45145 9.80535L4.29214 9.67196L2.03882 7.7853L2.03882 7.7853L2.03744 7.78415C1.71594 7.51791 1.59001 7.08616 1.71597 6.68812C1.84205 6.28969 2.18712 6.01657 2.59582 5.98667L2.59729 5.98656L5.60394 5.75322L5.80713 5.73746L5.88571 5.5494L7.07109 2.71248C7.23948 2.33245 7.59408 2.10091 7.99813 2.10091C8.40857 2.10091 8.75526 2.33187 8.9174 2.71648C8.91746 2.71663 8.91752 2.71678 8.91758 2.71693L10.1039 5.55607L10.1825 5.74416L10.3857 5.7599L13.399 5.99323L13.4004 5.99333C13.8091 6.02324 14.1542 6.29635 14.2803 6.69479Z" fill="#E5E5E8" stroke="#E5E5E8" stroke-width="0.666663"/>
<path d="M30.2803 6.69479L30.3321 6.8586C30.38 7.20507 30.2482 7.5556 29.9722 7.78415L29.9717 7.78449L27.7251 9.65115L27.5653 9.78393L27.6141 9.98587L28.3008 12.8259L28.3008 12.8259L28.3014 12.8284C28.4019 13.2303 28.2518 13.6464 27.9194 13.8932L27.9194 13.8932L27.9175 13.8947C27.5943 14.1383 27.167 14.1602 26.8138 13.9535C26.8136 13.9534 26.8134 13.9533 26.8133 13.9532L24.1744 12.3939L24.0048 12.2937L23.8352 12.3939L21.1952 13.9539L21.1946 13.9542C21.0344 14.0494 20.8602 14.0942 20.6848 14.0942C20.4784 14.0942 20.2677 14.0251 20.0903 13.8933L20.0902 13.8932C19.7578 13.6464 19.6077 13.2303 19.7082 12.8284L19.7085 12.8271L20.4018 10.0071L20.4515 9.80535L20.2921 9.67196L18.0388 7.7853L18.0388 7.7853L18.0374 7.78415C17.7159 7.51791 17.59 7.08616 17.716 6.68812C17.8421 6.28969 18.1871 6.01657 18.5958 5.98667L18.5973 5.98656L21.6039 5.75322L21.8071 5.73746L21.8857 5.5494L23.0711 2.71248C23.2395 2.33245 23.5941 2.10091 23.9981 2.10091C24.4086 2.10091 24.7553 2.33187 24.9174 2.71648C24.9175 2.71663 24.9175 2.71678 24.9176 2.71693L26.1039 5.55607L26.1825 5.74416L26.3857 5.7599L29.399 5.99323L29.4004 5.99333C29.8091 6.02324 30.1542 6.29635 30.2803 6.69479Z" fill="#E5E5E8" stroke="#E5E5E8" stroke-width="0.666663"/>
<path d="M46.2803 6.69479L46.3321 6.8586C46.38 7.20507 46.2482 7.5556 45.9722 7.78415L45.9717 7.78449L43.7251 9.65115L43.5653 9.78393L43.6141 9.98587L44.3008 12.8259L44.3008 12.8259L44.3014 12.8284C44.4019 13.2303 44.2518 13.6464 43.9194 13.8932L43.9194 13.8932L43.9175 13.8947C43.5943 14.1383 43.167 14.1602 42.8138 13.9535C42.8136 13.9534 42.8134 13.9533 42.8133 13.9532L40.1744 12.3939L40.0048 12.2937L39.8352 12.3939L37.1952 13.9539L37.1946 13.9542C37.0344 14.0494 36.8602 14.0942 36.6848 14.0942C36.4784 14.0942 36.2677 14.0251 36.0903 13.8933L36.0902 13.8932C35.7578 13.6464 35.6077 13.2303 35.7082 12.8284L35.7085 12.8271L36.4018 10.0071L36.4515 9.80535L36.2921 9.67196L34.0388 7.7853L34.0388 7.7853L34.0374 7.78415C33.7159 7.51791 33.59 7.08616 33.716 6.68812C33.8421 6.28969 34.1871 6.01657 34.5958 5.98667L34.5973 5.98656L37.6039 5.75322L37.8071 5.73746L37.8857 5.5494L39.0711 2.71248C39.2395 2.33245 39.5941 2.10091 39.9981 2.10091C40.4086 2.10091 40.7553 2.33187 40.9174 2.71648C40.9175 2.71663 40.9175 2.71678 40.9176 2.71693L42.1039 5.55607L42.1825 5.74416L42.3857 5.7599L45.399 5.99323L45.4004 5.99333C45.8091 6.02324 46.1542 6.29635 46.2803 6.69479Z" fill="#E5E5E8" stroke="#E5E5E8" stroke-width="0.666663"/>
<path d="M62.2803 6.69479L62.3321 6.8586C62.38 7.20507 62.2482 7.5556 61.9722 7.78415L61.9717 7.78449L59.7251 9.65115L59.5653 9.78393L59.6141 9.98587L60.3008 12.8259L60.3008 12.8259L60.3014 12.8284C60.4019 13.2303 60.2518 13.6464 59.9194 13.8932L59.9194 13.8932L59.9175 13.8947C59.5943 14.1383 59.167 14.1602 58.8138 13.9535C58.8136 13.9534 58.8134 13.9533 58.8133 13.9532L56.1744 12.3939L56.0048 12.2937L55.8352 12.3939L53.1952 13.9539L53.1946 13.9542C53.0344 14.0494 52.8602 14.0942 52.6848 14.0942C52.4784 14.0942 52.2677 14.0251 52.0903 13.8933L52.0902 13.8932C51.7578 13.6464 51.6077 13.2303 51.7082 12.8284L51.7085 12.8271L52.4018 10.0071L52.4515 9.80535L52.2921 9.67196L50.0388 7.7853L50.0388 7.7853L50.0374 7.78415C49.7159 7.51791 49.59 7.08616 49.716 6.68812C49.8421 6.28969 50.1871 6.01657 50.5958 5.98667L50.5973 5.98656L53.6039 5.75322L53.8071 5.73746L53.8857 5.5494L55.0711 2.71248C55.2395 2.33245 55.5941 2.10091 55.9981 2.10091C56.4086 2.10091 56.7553 2.33187 56.9174 2.71648C56.9175 2.71663 56.9175 2.71678 56.9176 2.71693L58.1039 5.55607L58.1825 5.74416L58.3857 5.7599L61.399 5.99323L61.4004 5.99333C61.8091 6.02324 62.1542 6.29635 62.2803 6.69479Z" fill="#E5E5E8" stroke="#E5E5E8" stroke-width="0.666663"/>
<path d="M78.2803 6.69479L78.3321 6.8586C78.38 7.20507 78.2482 7.5556 77.9722 7.78415L77.9717 7.78449L75.7251 9.65115L75.5653 9.78393L75.6141 9.98587L76.3008 12.8259L76.3008 12.8259L76.3014 12.8284C76.4019 13.2303 76.2518 13.6464 75.9194 13.8932L75.9194 13.8932L75.9175 13.8947C75.5943 14.1383 75.167 14.1602 74.8138 13.9535C74.8136 13.9534 74.8134 13.9533 74.8133 13.9532L72.1744 12.3939L72.0048 12.2937L71.8352 12.3939L69.1952 13.9539L69.1946 13.9542C69.0344 14.0494 68.8602 14.0942 68.6848 14.0942C68.4784 14.0942 68.2677 14.0251 68.0903 13.8933L68.0902 13.8932C67.7578 13.6464 67.6077 13.2303 67.7082 12.8284L67.7085 12.8271L68.4018 10.0071L68.4515 9.80535L68.2921 9.67196L66.0388 7.7853L66.0388 7.7853L66.0374 7.78415C65.7159 7.51791 65.59 7.08616 65.716 6.68812C65.8421 6.28969 66.1871 6.01657 66.5958 5.98667L66.5973 5.98656L69.6039 5.75322L69.8071 5.73746L69.8857 5.5494L71.0711 2.71248C71.2395 2.33245 71.5941 2.10091 71.9981 2.10091C72.4086 2.10091 72.7553 2.33187 72.9174 2.71648C72.9175 2.71663 72.9175 2.71678 72.9176 2.71693L74.1039 5.55607L74.1825 5.74416L74.3857 5.7599L77.399 5.99323L77.4004 5.99333C77.8091 6.02324 78.1542 6.29635 78.2803 6.69479Z" fill="#E5E5E8" stroke="#E5E5E8" stroke-width="0.666663"/>
<mask id="mask0_1723_77168" style="mask-type:alpha" maskUnits="userSpaceOnUse" x="0" y="0" width="80" height="17">
<path d="M14.2803 6.69479L14.3321 6.8586C14.38 7.20507 14.2482 7.5556 13.9722 7.78415L13.9717 7.78449L11.7251 9.65115L11.5653 9.78393L11.6141 9.98587L12.3008 12.8259L12.3008 12.8259L12.3014 12.8284C12.4019 13.2303 12.2518 13.6464 11.9194 13.8932L11.9194 13.8932L11.9175 13.8947C11.5943 14.1383 11.167 14.1602 10.8138 13.9535C10.8136 13.9534 10.8134 13.9533 10.8133 13.9532L8.17437 12.3939L8.0048 12.2937L7.83522 12.3939L5.19524 13.9539L5.19464 13.9542C5.03442 14.0494 4.86017 14.0942 4.68482 14.0942C4.47835 14.0942 4.26769 14.0251 4.09026 13.8933L4.09019 13.8932C3.75776 13.6464 3.60772 13.2303 3.70821 12.8284L3.70852 12.8271L4.40185 10.0071L4.45145 9.80535L4.29214 9.67196L2.03882 7.7853L2.03882 7.7853L2.03744 7.78415C1.71594 7.51791 1.59001 7.08616 1.71597 6.68812C1.84205 6.28969 2.18712 6.01657 2.59582 5.98667L2.59729 5.98656L5.60394 5.75322L5.80713 5.73746L5.88571 5.5494L7.07109 2.71248C7.23948 2.33245 7.59408 2.10091 7.99813 2.10091C8.40857 2.10091 8.75526 2.33187 8.9174 2.71648C8.91746 2.71663 8.91752 2.71678 8.91758 2.71693L10.1039 5.55607L10.1825 5.74416L10.3857 5.7599L13.399 5.99323L13.4004 5.99333C13.8091 6.02324 14.1542 6.29635 14.2803 6.69479Z" fill="#A1BC10" stroke="#A1BC10" stroke-width="0.666663"/>
<path d="M30.2803 6.69479L30.3321 6.8586C30.38 7.20507 30.2482 7.5556 29.9722 7.78415L29.9717 7.78449L27.7251 9.65115L27.5653 9.78393L27.6141 9.98587L28.3008 12.8259L28.3008 12.8259L28.3014 12.8284C28.4019 13.2303 28.2518 13.6464 27.9194 13.8932L27.9194 13.8932L27.9175 13.8947C27.5943 14.1383 27.167 14.1602 26.8138 13.9535C26.8136 13.9534 26.8134 13.9533 26.8133 13.9532L24.1744 12.3939L24.0048 12.2937L23.8352 12.3939L21.1952 13.9539L21.1946 13.9542C21.0344 14.0494 20.8602 14.0942 20.6848 14.0942C20.4784 14.0942 20.2677 14.0251 20.0903 13.8933L20.0902 13.8932C19.7578 13.6464 19.6077 13.2303 19.7082 12.8284L19.7085 12.8271L20.4018 10.0071L20.4515 9.80535L20.2921 9.67196L18.0388 7.7853L18.0388 7.7853L18.0374 7.78415C17.7159 7.51791 17.59 7.08616 17.716 6.68812C17.8421 6.28969 18.1871 6.01657 18.5958 5.98667L18.5973 5.98656L21.6039 5.75322L21.8071 5.73746L21.8857 5.5494L23.0711 2.71248C23.2395 2.33245 23.5941 2.10091 23.9981 2.10091C24.4086 2.10091 24.7553 2.33187 24.9174 2.71648C24.9175 2.71663 24.9175 2.71678 24.9176 2.71693L26.1039 5.55607L26.1825 5.74416L26.3857 5.7599L29.399 5.99323L29.4004 5.99333C29.8091 6.02324 30.1542 6.29635 30.2803 6.69479Z" fill="#A1BC10" stroke="#A1BC10" stroke-width="0.666663"/>
<path d="M46.2803 6.69479L46.3321 6.8586C46.38 7.20507 46.2482 7.5556 45.9722 7.78415L45.9717 7.78449L43.7251 9.65115L43.5653 9.78393L43.6141 9.98587L44.3008 12.8259L44.3008 12.8259L44.3014 12.8284C44.4019 13.2303 44.2518 13.6464 43.9194 13.8932L43.9194 13.8932L43.9175 13.8947C43.5943 14.1383 43.167 14.1602 42.8138 13.9535C42.8136 13.9534 42.8134 13.9533 42.8133 13.9532L40.1744 12.3939L40.0048 12.2937L39.8352 12.3939L37.1952 13.9539L37.1946 13.9542C37.0344 14.0494 36.8602 14.0942 36.6848 14.0942C36.4784 14.0942 36.2677 14.0251 36.0903 13.8933L36.0902 13.8932C35.7578 13.6464 35.6077 13.2303 35.7082 12.8284L35.7085 12.8271L36.4018 10.0071L36.4515 9.80535L36.2921 9.67196L34.0388 7.7853L34.0388 7.7853L34.0374 7.78415C33.7159 7.51791 33.59 7.08616 33.716 6.68812C33.8421 6.28969 34.1871 6.01657 34.5958 5.98667L34.5973 5.98656L37.6039 5.75322L37.8071 5.73746L37.8857 5.5494L39.0711 2.71248C39.2395 2.33245 39.5941 2.10091 39.9981 2.10091C40.4086 2.10091 40.7553 2.33187 40.9174 2.71648C40.9175 2.71663 40.9175 2.71678 40.9176 2.71693L42.1039 5.55607L42.1825 5.74416L42.3857 5.7599L45.399 5.99323L45.4004 5.99333C45.8091 6.02324 46.1542 6.29635 46.2803 6.69479Z" fill="#A1BC10" stroke="#A1BC10" stroke-width="0.666663"/>
<path d="M62.2803 6.69479L62.3321 6.8586C62.38 7.20507 62.2482 7.5556 61.9722 7.78415L61.9717 7.78449L59.7251 9.65115L59.5653 9.78393L59.6141 9.98587L60.3008 12.8259L60.3008 12.8259L60.3014 12.8284C60.4019 13.2303 60.2518 13.6464 59.9194 13.8932L59.9194 13.8932L59.9175 13.8947C59.5943 14.1383 59.167 14.1602 58.8138 13.9535C58.8136 13.9534 58.8134 13.9533 58.8133 13.9532L56.1744 12.3939L56.0048 12.2937L55.8352 12.3939L53.1952 13.9539L53.1946 13.9542C53.0344 14.0494 52.8602 14.0942 52.6848 14.0942C52.4784 14.0942 52.2677 14.0251 52.0903 13.8933L52.0902 13.8932C51.7578 13.6464 51.6077 13.2303 51.7082 12.8284L51.7085 12.8271L52.4018 10.0071L52.4515 9.80535L52.2921 9.67196L50.0388 7.7853L50.0388 7.7853L50.0374 7.78415C49.7159 7.51791 49.59 7.08616 49.716 6.68812C49.8421 6.28969 50.1871 6.01657 50.5958 5.98667L50.5973 5.98656L53.6039 5.75322L53.8071 5.73746L53.8857 5.5494L55.0711 2.71248C55.2395 2.33245 55.5941 2.10091 55.9981 2.10091C56.4086 2.10091 56.7553 2.33187 56.9174 2.71648C56.9175 2.71663 56.9175 2.71678 56.9176 2.71693L58.1039 5.55607L58.1825 5.74416L58.3857 5.7599L61.399 5.99323L61.4004 5.99333C61.8091 6.02324 62.1542 6.29635 62.2803 6.69479Z" fill="#A1BC10" stroke="#A1BC10" stroke-width="0.666663"/>
<path d="M78.2803 6.69479L78.3321 6.8586C78.38 7.20507 78.2482 7.5556 77.9722 7.78415L77.9717 7.78449L75.7251 9.65115L75.5653 9.78393L75.6141 9.98587L76.3008 12.8259L76.3008 12.8259L76.3014 12.8284C76.4019 13.2303 76.2518 13.6464 75.9194 13.8932L75.9194 13.8932L75.9175 13.8947C75.5943 14.1383 75.167 14.1602 74.8138 13.9535C74.8136 13.9534 74.8134 13.9533 74.8133 13.9532L72.1744 12.3939L72.0048 12.2937L71.8352 12.3939L69.1952 13.9539L69.1946 13.9542C69.0344 14.0494 68.8602 14.0942 68.6848 14.0942C68.4784 14.0942 68.2677 14.0251 68.0903 13.8933L68.0902 13.8932C67.7578 13.6464 67.6077 13.2303 67.7082 12.8284L67.7085 12.8271L68.4018 10.0071L68.4515 9.80535L68.2921 9.67196L66.0388 7.7853L66.0388 7.7853L66.0374 7.78415C65.7159 7.51791 65.59 7.08616 65.716 6.68812C65.8421 6.28969 66.1871 6.01657 66.5958 5.98667L66.5973 5.98656L69.6039 5.75322L69.8071 5.73746L69.8857 5.5494L71.0711 2.71248C71.2395 2.33245 71.5941 2.10091 71.9981 2.10091C72.4086 2.10091 72.7553 2.33187 72.9174 2.71648C72.9175 2.71663 72.9175 2.71678 72.9176 2.71693L74.1039 5.55607L74.1825 5.74416L74.3857 5.7599L77.399 5.99323L77.4004 5.99333C77.8091 6.02324 78.1542 6.29635 78.2803 6.69479Z" fill="#A1BC10" stroke="#A1BC10" stroke-width="0.666663"/>
</mask>
<g mask="url(#mask0_1723_77168)">
<rect x="-0.200195" y="0.0996094" width="80" height="16" fill="#F04806"/>
</g>
</svg>
