<svg width="21" height="135" viewBox="0 0 21 135" fill="none" xmlns="http://www.w3.org/2000/svg">
<g clip-path="url(#clip0_1509_203341)">
<mask id="path-2-inside-1_1509_203341" fill="white">
<path d="M21 12C21 5.37258 15.6274 0 9 0H0V51.5H21V12Z"/>
</mask>
<path d="M21 12C21 5.37258 15.6274 0 9 0H0V51.5H21V12Z" fill="white"/>
<path d="M22 12C22 4.8203 16.1797 -1 9 -1H0V1H9C15.0751 1 20 5.92487 20 12H22ZM0 51.5H21H0ZM22 51.5V12C22 4.8203 16.1797 -1 9 -1V1C15.0751 1 20 5.92487 20 12V51.5H22ZM0 0V51.5V0Z" fill="#E5E5E8" mask="url(#path-2-inside-1_1509_203341)"/>
<g clip-path="url(#clip1_1509_203341)">
<mask id="path-4-inside-2_1509_203341" fill="white">
<path fill-rule="evenodd" clip-rule="evenodd" d="M9 -15.5C15.6274 -15.5 21 -10.1274 21 -3.5V58.5C16.0294 58.5 12 62.5294 12 67.5C12 72.4706 16.0294 76.5 21 76.5V137.5C21 144.127 15.6274 149.5 9 149.5H-310C-316.627 149.5 -322 144.127 -322 137.5V-3.5C-322 -10.1274 -316.627 -15.5 -310 -15.5H9Z"/>
</mask>
<path fill-rule="evenodd" clip-rule="evenodd" d="M9 -15.5C15.6274 -15.5 21 -10.1274 21 -3.5V58.5C16.0294 58.5 12 62.5294 12 67.5C12 72.4706 16.0294 76.5 21 76.5V137.5C21 144.127 15.6274 149.5 9 149.5H-310C-316.627 149.5 -322 144.127 -322 137.5V-3.5C-322 -10.1274 -316.627 -15.5 -310 -15.5H9Z" fill="white"/>
<path d="M21 58.5H22V59.5H21V58.5ZM21 76.5V75.5H22V76.5H21ZM20 -3.5C20 -9.57513 15.0751 -14.5 9 -14.5V-16.5C16.1797 -16.5 22 -10.6797 22 -3.5H20ZM20 58.5V-3.5H22V58.5H20ZM21 59.5C16.5817 59.5 13 63.0817 13 67.5H11C11 61.9771 15.4772 57.5 21 57.5V59.5ZM13 67.5C13 71.9183 16.5817 75.5 21 75.5V77.5C15.4772 77.5 11 73.0229 11 67.5H13ZM20 137.5V76.5H22V137.5H20ZM9 148.5C15.0751 148.5 20 143.575 20 137.5H22C22 144.68 16.1797 150.5 9 150.5V148.5ZM-310 148.5H9V150.5H-310V148.5ZM-321 137.5C-321 143.575 -316.075 148.5 -310 148.5V150.5C-317.18 150.5 -323 144.68 -323 137.5H-321ZM-321 -3.5V137.5H-323V-3.5H-321ZM-310 -14.5C-316.075 -14.5 -321 -9.57513 -321 -3.5H-323C-323 -10.6797 -317.18 -16.5 -310 -16.5V-14.5ZM9 -14.5H-310V-16.5H9V-14.5Z" fill="#E5E5E8" mask="url(#path-4-inside-2_1509_203341)"/>
</g>
<mask id="path-6-inside-3_1509_203341" fill="white">
<path d="M21 83.5H0V135H9C15.6274 135 21 129.627 21 123V83.5Z"/>
</mask>
<path d="M21 83.5H0V135H9C15.6274 135 21 129.627 21 123V83.5Z" fill="white"/>
<path d="M21 83.5H0H21ZM0 136H9C16.1797 136 22 130.18 22 123H20C20 129.075 15.0751 134 9 134H0V136ZM9 136C16.1797 136 22 130.18 22 123V83.5H20V123C20 129.075 15.0751 134 9 134V136ZM0 83.5V135V83.5Z" fill="#E5E5E8" mask="url(#path-6-inside-3_1509_203341)"/>
</g>
<defs>
<clipPath id="clip0_1509_203341">
<path d="M21 12C21 5.37258 15.6274 0 9 0H0V135H9C15.6274 135 21 129.627 21 123V12Z" fill="white"/>
</clipPath>
<clipPath id="clip1_1509_203341">
<rect width="21" height="32" fill="white" transform="matrix(-1 0 0 1 21 51.5)"/>
</clipPath>
</defs>
</svg>
