<svg width="21" height="135" viewBox="0 0 21 135" fill="none" xmlns="http://www.w3.org/2000/svg">
<g clip-path="url(#clip0_1509_203349)">
<mask id="path-2-inside-1_1509_203349" fill="white">
<path d="M0 12C0 5.37258 5.37258 0 12 0H21V51.5H0V12Z"/>
</mask>
<path d="M0 12C0 5.37258 5.37258 0 12 0H21V51.5H0V12Z" fill="white"/>
<path d="M-1 12C-1 4.8203 4.8203 -1 12 -1H21V1H12C5.92487 1 1 5.92487 1 12H-1ZM21 51.5H0H21ZM-1 51.5V12C-1 4.8203 4.8203 -1 12 -1V1C5.92487 1 1 5.92487 1 12V51.5H-1ZM21 0V51.5V0Z" fill="#E5E5E8" mask="url(#path-2-inside-1_1509_203349)"/>
<g clip-path="url(#clip1_1509_203349)">
<mask id="path-4-inside-2_1509_203349" fill="white">
<path fill-rule="evenodd" clip-rule="evenodd" d="M12 -15.5C5.37258 -15.5 0 -10.1274 0 -3.5V58.5C4.97056 58.5 9 62.5294 9 67.5C9 72.4706 4.97056 76.5 0 76.5V137.5C0 144.127 5.37258 149.5 12 149.5H331C337.627 149.5 343 144.127 343 137.5V-3.5C343 -10.1274 337.627 -15.5 331 -15.5H12Z"/>
</mask>
<path fill-rule="evenodd" clip-rule="evenodd" d="M12 -15.5C5.37258 -15.5 0 -10.1274 0 -3.5V58.5C4.97056 58.5 9 62.5294 9 67.5C9 72.4706 4.97056 76.5 0 76.5V137.5C0 144.127 5.37258 149.5 12 149.5H331C337.627 149.5 343 144.127 343 137.5V-3.5C343 -10.1274 337.627 -15.5 331 -15.5H12Z" fill="white"/>
<path d="M0 58.5H-1V59.5H0V58.5ZM0 76.5V75.5H-1V76.5H0ZM1 -3.5C1 -9.57513 5.92487 -14.5 12 -14.5V-16.5C4.8203 -16.5 -1 -10.6797 -1 -3.5H1ZM1 58.5V-3.5H-1V58.5H1ZM0 59.5C4.41828 59.5 8 63.0817 8 67.5H10C10 61.9771 5.52285 57.5 0 57.5V59.5ZM8 67.5C8 71.9183 4.41828 75.5 0 75.5V77.5C5.52285 77.5 10 73.0229 10 67.5H8ZM1 137.5V76.5H-1V137.5H1ZM12 148.5C5.92487 148.5 1 143.575 1 137.5H-1C-1 144.68 4.8203 150.5 12 150.5V148.5ZM331 148.5H12V150.5H331V148.5ZM342 137.5C342 143.575 337.075 148.5 331 148.5V150.5C338.18 150.5 344 144.68 344 137.5H342ZM342 -3.5V137.5H344V-3.5H342ZM331 -14.5C337.075 -14.5 342 -9.57513 342 -3.5H344C344 -10.6797 338.18 -16.5 331 -16.5V-14.5ZM12 -14.5H331V-16.5H12V-14.5Z" fill="#E5E5E8" mask="url(#path-4-inside-2_1509_203349)"/>
</g>
<mask id="path-6-inside-3_1509_203349" fill="white">
<path d="M0 83.5H21V135H12C5.37258 135 0 129.627 0 123V83.5Z"/>
</mask>
<path d="M0 83.5H21V135H12C5.37258 135 0 129.627 0 123V83.5Z" fill="white"/>
<path d="M0 83.5H21H0ZM21 136H12C4.8203 136 -1 130.18 -1 123H1C1 129.075 5.92487 134 12 134H21V136ZM12 136C4.8203 136 -1 130.18 -1 123V83.5H1V123C1 129.075 5.92487 134 12 134V136ZM21 83.5V135V83.5Z" fill="#E5E5E8" mask="url(#path-6-inside-3_1509_203349)"/>
</g>
<defs>
<clipPath id="clip0_1509_203349">
<path d="M0 12C0 5.37258 5.37258 0 12 0H21V135H12C5.37258 135 0 129.627 0 123V12Z" fill="white"/>
</clipPath>
<clipPath id="clip1_1509_203349">
<rect width="21" height="32" fill="white" transform="translate(0 51.5)"/>
</clipPath>
</defs>
</svg>
