<svg width="24" height="24" viewBox="0 0 24 24" fill="none" xmlns="http://www.w3.org/2000/svg">
<path fill-rule="evenodd" clip-rule="evenodd" d="M4.17099 5.78947C4.3075 5.88622 4.52381 6.00157 4.83582 6.11503C5.59083 6.38958 6.70013 6.57895 7.97379 6.57895C9.24745 6.57895 10.3567 6.38958 11.1118 6.11503C11.4238 6.00157 11.6401 5.88622 11.7766 5.78947C11.6401 5.69273 11.4238 5.57738 11.1118 5.46392C10.3567 5.18937 9.24745 5 7.97379 5C6.70013 5 5.59083 5.18937 4.83582 5.46392C4.52381 5.57738 4.3075 5.69273 4.17099 5.78947ZM11.8948 7.9575C11.8618 7.97013 11.8286 7.9825 11.7952 7.99462C10.7692 8.36773 9.41795 8.57895 7.97379 8.57895C6.52962 8.57895 5.1784 8.36773 4.15233 7.99462C4.11901 7.9825 4.0858 7.97013 4.05273 7.9575V9.71854C4.06256 9.72833 4.07524 9.74017 4.09138 9.75405C4.21574 9.86097 4.4542 10.0026 4.83582 10.1413C5.59083 10.4159 6.70013 10.6053 7.97379 10.6053C9.24745 10.6053 10.3567 10.4159 11.1118 10.1413C11.4934 10.0026 11.7318 9.86097 11.8562 9.75405C11.8723 9.74017 11.885 9.72833 11.8948 9.71854V7.9575ZM11.8948 11.9838C11.8618 11.9964 11.8286 12.0088 11.7952 12.0209C10.7692 12.394 9.41795 12.6053 7.97379 12.6053C6.52962 12.6053 5.1784 12.394 4.15233 12.0209C4.11901 12.0088 4.0858 11.9964 4.05273 11.9838V13.7449C4.06256 13.7546 4.07524 13.7665 4.09138 13.7804C4.21574 13.8873 4.4542 14.0289 4.83582 14.1677C5.59083 14.4422 6.70013 14.6316 7.97379 14.6316C8.88584 14.6316 9.72113 14.5344 10.4045 14.3745C10.9814 14.2396 11.399 14.0719 11.661 13.9167C11.7337 13.783 11.8117 13.6527 11.8948 13.5261V11.9838ZM13.8948 11.697V5.78947C13.8948 5.1413 13.5305 4.65311 13.16 4.33464C12.7864 4.01339 12.3042 3.76939 11.7952 3.58433C10.7692 3.21122 9.41795 3 7.97379 3C6.52962 3 5.1784 3.21122 4.15233 3.58433C3.64341 3.76939 3.1612 4.01339 2.78753 4.33464C2.41711 4.65311 2.05273 5.1413 2.05273 5.78947V17.8684C2.05273 18.5166 2.41711 19.0048 2.78753 19.3232C3.1612 19.6445 3.64342 19.8885 4.15233 20.0736C5.1784 20.4467 6.52963 20.6579 7.97379 20.6579C9.05669 20.6579 10.0793 20.5392 10.9495 20.3269C11.3805 20.2217 11.7991 20.0876 12.1787 19.9199C13.1812 21.187 14.7326 22 16.4738 22C19.4968 22 21.9475 19.5493 21.9475 16.5263C21.9475 13.5033 19.4968 11.0526 16.4738 11.0526C15.5413 11.0526 14.6633 11.2858 13.8948 11.697ZM11.0019 16.6676C11.0149 17.1803 11.0984 17.6756 11.2431 18.1439C11.0338 18.2275 10.7786 18.3099 10.4754 18.3839C9.77978 18.5536 8.91822 18.6579 7.97379 18.6579C6.70013 18.6579 5.59083 18.4685 4.83582 18.194C4.4542 18.0552 4.21574 17.9136 4.09138 17.8067C4.07524 17.7928 4.06256 17.781 4.05273 17.7712V16.0101C4.0858 16.0228 4.11901 16.0351 4.15233 16.0472C5.1784 16.4204 6.52962 16.6316 7.97379 16.6316C9.02031 16.6316 10.01 16.5208 10.86 16.322C10.9086 16.3106 10.957 16.2989 11.0052 16.2868C11.0018 16.3662 11.0001 16.4461 11.0001 16.5263C11.0001 16.5736 11.0007 16.6206 11.0019 16.6676ZM13.0001 16.5263C13.0001 18.4448 14.5553 20 16.4738 20C18.3923 20 19.9475 18.4448 19.9475 16.5263C19.9475 14.6079 18.3923 13.0526 16.4738 13.0526C14.5553 13.0526 13.0001 14.6079 13.0001 16.5263Z" fill="#151515"/>
</svg>
