<svg width="24" height="24" viewBox="0 0 24 24" fill="none" xmlns="http://www.w3.org/2000/svg">
<path fill-rule="evenodd" clip-rule="evenodd" d="M12 22C14.6522 22 17.1957 20.9464 19.0711 19.0711C20.9464 17.1957 22 14.6522 22 12C22 9.34784 20.9464 6.8043 19.0711 4.92893C17.1957 3.05357 14.6522 2 12 2C9.34784 2 6.8043 3.05357 4.92893 4.92893C3.05357 6.8043 2 9.34784 2 12C2 14.6522 3.05357 17.1957 4.92893 19.0711C6.8043 20.9464 9.34784 22 12 22ZM13.0714 7C13.0714 6.71584 12.9585 6.44332 12.7576 6.24239C12.5567 6.04145 12.2842 5.92857 12 5.92857C11.7158 5.92857 11.4433 6.04145 11.2424 6.24239C11.0415 6.44332 10.9286 6.71584 10.9286 7V12C10.9286 12.1663 10.9673 12.3304 11.0417 12.4792C11.1161 12.6279 11.2241 12.7573 11.3571 12.8571L14.2143 15C14.3268 15.0844 14.4549 15.1458 14.5912 15.1808C14.7275 15.2157 14.8694 15.2234 15.0087 15.2035C15.148 15.1836 15.282 15.1365 15.403 15.0648C15.5241 14.9931 15.6299 14.8983 15.7143 14.7857C15.7987 14.6732 15.8601 14.5451 15.8951 14.4088C15.93 14.2725 15.9377 14.1306 15.9178 13.9913C15.8979 13.852 15.8508 13.718 15.7791 13.597C15.7074 13.4759 15.6126 13.3701 15.5 13.2857L13.0714 11.4643V7Z" fill="#151515"/>
</svg>
