<svg width="24" height="24" viewBox="0 0 24 24" fill="none" xmlns="http://www.w3.org/2000/svg">
<path fill-rule="evenodd" clip-rule="evenodd" d="M19.8571 12C19.8571 14.0838 19.0293 16.0823 17.5558 17.5558C16.0823 19.0293 14.0838 19.8571 12 19.8571C9.91616 19.8571 7.91766 19.0293 6.44416 17.5558C4.97066 16.0823 4.14286 14.0838 4.14286 12C4.14286 9.91616 4.97066 7.91766 6.44416 6.44416C7.91766 4.97066 9.91616 4.14286 12 4.14286C14.0838 4.14286 16.0823 4.97066 17.5558 6.44416C19.0293 7.91766 19.8571 9.91616 19.8571 12ZM22 12C22 14.6522 20.9464 17.1957 19.0711 19.0711C17.1957 20.9464 14.6522 22 12 22C9.34784 22 6.8043 20.9464 4.92893 19.0711C3.05357 17.1957 2 14.6522 2 12C2 9.34784 3.05357 6.8043 4.92893 4.92893C6.8043 3.05357 9.34784 2 12 2C14.6522 2 17.1957 3.05357 19.0711 4.92893C20.9464 6.8043 22 9.34784 22 12ZM13.0714 7C13.0714 6.71584 12.9585 6.44332 12.7576 6.24239C12.5567 6.04145 12.2842 5.92857 12 5.92857C11.7158 5.92857 11.4433 6.04145 11.2424 6.24239C11.0415 6.44332 10.9286 6.71584 10.9286 7V12C10.9286 12.1663 10.9673 12.3304 11.0417 12.4792C11.1161 12.6279 11.2241 12.7573 11.3571 12.8571L14.2143 15C14.3268 15.0844 14.4549 15.1458 14.5912 15.1808C14.7275 15.2157 14.8694 15.2234 15.0087 15.2035C15.148 15.1836 15.282 15.1365 15.403 15.0648C15.5241 14.9931 15.6299 14.8983 15.7143 14.7857C15.7987 14.6732 15.8601 14.5451 15.8951 14.4088C15.93 14.2725 15.9377 14.1306 15.9178 13.9913C15.8979 13.852 15.8508 13.718 15.7791 13.597C15.7074 13.4759 15.6126 13.3701 15.5 13.2857L13.0714 11.4643V7Z" fill="#151515"/>
</svg>
