<svg width="24" height="24" viewBox="0 0 24 24" fill="none" xmlns="http://www.w3.org/2000/svg">
<path d="M5.6 3C4.91044 3 4.24912 3.27393 3.76152 3.76152C3.27393 4.24912 3 4.91044 3 5.6V8.4C3 9.08956 3.27393 9.75088 3.76152 10.2385C4.24912 10.7261 4.91044 11 5.6 11H8.4C9.08956 11 9.75088 10.7261 10.2385 10.2385C10.7261 9.75088 11 9.08956 11 8.4V5.6C11 4.91044 10.7261 4.24912 10.2385 3.76152C9.75088 3.27393 9.08956 3 8.4 3H5.6ZM5.6 13C4.91044 13 4.24912 13.2739 3.76152 13.7615C3.27393 14.2491 3 14.9104 3 15.6V18.4C3 19.0896 3.27393 19.7509 3.76152 20.2385C4.24912 20.7261 4.91044 21 5.6 21H8.4C8.74144 21 9.07953 20.9327 9.39498 20.8021C9.71042 20.6714 9.99705 20.4799 10.2385 20.2385C10.4799 19.997 10.6714 19.7104 10.8021 19.395C10.9327 19.0795 11 18.7414 11 18.4V15.6C11 14.9104 10.7261 14.2491 10.2385 13.7615C9.75088 13.2739 9.08956 13 8.4 13H5.6ZM15.6 3C14.9104 3 14.2491 3.27393 13.7615 3.76152C13.2739 4.24912 13 4.91044 13 5.6V8.4C13 9.08956 13.2739 9.75088 13.7615 10.2385C14.2491 10.7261 14.9104 11 15.6 11H18.4C18.7414 11 19.0795 10.9327 19.395 10.8021C19.7104 10.6714 19.997 10.4799 20.2385 10.2385C20.4799 9.99705 20.6714 9.71042 20.8021 9.39498C20.9327 9.07953 21 8.74144 21 8.4V5.6C21 5.25856 20.9327 4.92047 20.8021 4.60502C20.6714 4.28958 20.4799 4.00295 20.2385 3.76152C19.997 3.52009 19.7104 3.32858 19.395 3.19791C19.0795 3.06725 18.7414 3 18.4 3H15.6ZM15.6 13C14.9104 13 14.2491 13.2739 13.7615 13.7615C13.2739 14.2491 13 14.9104 13 15.6V18.4C13 19.0896 13.2739 19.7509 13.7615 20.2385C14.2491 20.7261 14.9104 21 15.6 21H18.4C18.7414 21 19.0795 20.9327 19.395 20.8021C19.7104 20.6714 19.997 20.4799 20.2385 20.2385C20.4799 19.997 20.6714 19.7104 20.8021 19.395C20.9327 19.0795 21 18.7414 21 18.4V15.6C21 15.2586 20.9327 14.9205 20.8021 14.605C20.6714 14.2896 20.4799 14.003 20.2385 13.7615C19.997 13.5201 19.7104 13.3286 19.395 13.1979C19.0795 13.0673 18.7414 13 18.4 13H15.6Z" fill="#151515"/>
</svg>
