<svg width="24" height="24" viewBox="0 0 24 24" fill="none" xmlns="http://www.w3.org/2000/svg">
<path d="M19.7801 12.55L19.8001 10.46C19.8101 5.8 16.3001 2 12.0001 2C7.70012 2 4.29012 5.75 4.29012 10.34L4.27012 12.54C4.27012 13.88 3.73012 14.94 3.28012 15.58C2.93012 16.08 2.90012 16.78 3.20012 17.35C3.47012 17.87 3.96012 18.18 4.50012 18.18H19.4901C20.0301 18.18 20.5101 17.88 20.7801 17.37C21.0801 16.81 21.0601 16.12 20.7301 15.62C20.3001 14.97 19.7801 13.9 19.7801 12.55Z" fill="#161616"/>
<path d="M14.04 19.31C12.93 20.2 11.07 20.2 9.95995 19.31C9.52995 18.97 8.89995 19.04 8.54995 19.47C8.19995 19.9 8.27995 20.53 8.70995 20.88C9.61995 21.61 10.79 22.01 12 22.01C13.21 22.01 14.38 21.61 15.29 20.88C15.72 20.54 15.79 19.91 15.45 19.47C15.1 19.04 14.48 18.97 14.04 19.31Z" fill="#161616"/>
<path d="M4 6.00001C4 5.41001 4.77 4.21001 5.38 3.87001C5.86 3.60001 6.03 2.99001 5.76 2.51001C5.48 2.03001 4.87 1.86001 4.39 2.13001C3.26 2.77001 2 4.56001 2 6.00001C2 6.55001 2.45 7.00001 3 7.00001C3.55 7.00001 4 6.55001 4 6.00001Z" fill="#161616"/>
<path d="M19.4898 2.13001C19.0098 1.86001 18.3998 2.03001 18.1298 2.51001C17.8598 2.99001 18.0298 3.60001 18.5098 3.87001C19.1098 4.21001 19.8898 5.41001 19.8898 6.00001C19.8898 6.55001 20.3398 7.00001 20.8898 7.00001C21.4398 7.00001 21.8898 6.55001 21.8898 6.00001C21.8898 4.56001 20.6298 2.77001 19.4998 2.13001H19.4898Z" fill="#161616"/>
</svg>
