<svg width="24" height="24" viewBox="0 0 24 24" fill="none" xmlns="http://www.w3.org/2000/svg">
<path fill-rule="evenodd" clip-rule="evenodd" d="M5.84322 5H18.1558C18.6288 4.99998 19.04 4.99997 19.3793 5.02637C19.7376 5.05425 20.1007 5.11608 20.4533 5.28718C20.9759 5.54078 21.4099 5.94998 21.6851 6.46429C21.8734 6.81631 21.9412 7.17975 21.9713 7.53145C21.9996 7.8605 21.9995 8.25727 21.9995 8.7042V13.2857C21.9995 13.838 21.5518 14.2857 20.9995 14.2857C20.4472 14.2857 19.9995 13.838 19.9995 13.2857V11.2857H3.99951V15.2571C3.99951 15.7545 4.00037 16.0644 4.02038 16.2976C4.03925 16.5176 4.06959 16.5776 4.07744 16.5923C4.14743 16.7231 4.26412 16.8384 4.41891 16.9135C4.45136 16.9292 4.53282 16.9608 4.77486 16.9797C5.02721 16.9993 5.35974 17 5.87951 17H11.9995C12.5518 17 12.9995 17.4477 12.9995 18C12.9995 18.5523 12.5518 19 11.9995 19H5.84322C5.37018 19 4.95901 19 4.6197 18.9736C4.26143 18.9458 3.89835 18.8839 3.54576 18.7128C3.02316 18.4592 2.58912 18.05 2.31396 17.5357C2.12563 17.1837 2.05787 16.8203 2.0277 16.4686C1.99947 16.1395 1.99949 15.7427 1.99951 15.2958L1.99951 8.74286C1.99951 8.72993 1.99951 8.71704 1.99951 8.70419C1.99949 8.25726 1.99947 7.86049 2.0277 7.53145C2.05787 7.17974 2.12563 6.81631 2.31396 6.46429C2.58912 5.94998 3.02316 5.54078 3.54576 5.28718C3.89835 5.11608 4.26143 5.05425 4.6197 5.02637C4.95901 4.99997 5.37018 4.99998 5.84322 5ZM3.99951 9.28572H19.9995V8.74286C19.9995 8.2455 19.9987 7.93561 19.9786 7.7024C19.9598 7.48237 19.9294 7.42243 19.9216 7.40775C19.8516 7.27693 19.7349 7.16163 19.5801 7.08652C19.5477 7.07077 19.4662 7.03918 19.2242 7.02034C18.9718 7.00071 18.6393 7 18.1195 7H5.87952C5.35975 7 5.02721 7.00071 4.77486 7.02034C4.53282 7.03918 4.45136 7.07077 4.41891 7.08652C4.26412 7.16163 4.14743 7.27693 4.07744 7.40775C4.06959 7.42243 4.03925 7.48237 4.02038 7.70239C4.00037 7.93561 3.99951 8.2455 3.99951 8.74286V9.28572ZM14.5995 17.1429C14.5995 16.5906 15.0472 16.1429 15.5995 16.1429H20.9995C21.5518 16.1429 21.9995 16.5906 21.9995 17.1429C21.9995 17.6951 21.5518 18.1429 20.9995 18.1429H15.5995C15.0472 18.1429 14.5995 17.6951 14.5995 17.1429Z" fill="#151515"/>
</svg>
