<svg width="16" height="16" viewBox="0 0 16 16" fill="none" xmlns="http://www.w3.org/2000/svg">
<path fill-rule="evenodd" clip-rule="evenodd" d="M8.00065 9.16797C8.36884 9.16797 8.66732 9.46644 8.66732 9.83463V11.8346C8.66732 12.2028 8.36884 12.5013 8.00065 12.5013C7.63246 12.5013 7.33398 12.2028 7.33398 11.8346V9.83463C7.33398 9.46644 7.63246 9.16797 8.00065 9.16797Z" fill="#151515"/>
<path fill-rule="evenodd" clip-rule="evenodd" d="M6.43067 2.50571C7.3095 1.82951 8.68474 1.83128 9.56732 2.51194L9.56999 2.514L13.7758 5.79168C13.7762 5.792 13.7766 5.79233 13.777 5.79265C14.4437 6.30842 14.6654 7.02497 14.6654 7.70369L14.6654 12.0617C14.6655 12.3548 14.6656 12.8428 14.4194 13.2811C13.961 14.0973 12.9743 14.6666 12.0376 14.6666H3.95982C3.01832 14.6666 2.02988 14.1003 1.57306 13.2753C1.33182 12.8397 1.33195 12.3564 1.33203 12.0653L1.33204 7.70369C1.33211 6.99458 1.60637 6.29235 2.25872 5.79256L6.43067 2.50571ZM7.24637 3.56044L3.08005 6.8429L3.07178 6.84931C2.78854 7.06534 2.66543 7.35348 2.66537 7.70369C2.66537 7.70371 2.66537 7.70366 2.66537 7.70369V12.0498C2.66537 12.381 2.68458 12.5302 2.73949 12.6294C2.95472 13.0181 3.48921 13.3333 3.95982 13.3333H12.0376C12.4997 13.3333 13.0381 13.0177 13.2569 12.6282C13.3123 12.5295 13.332 12.38 13.332 12.0465V7.70369C13.332 7.32187 13.2197 7.04698 12.9606 6.84678L12.9584 6.84507L8.75305 3.56776C8.75268 3.56746 8.7523 3.56717 8.75192 3.56688C8.34733 3.25588 7.64348 3.25724 7.24637 3.56044Z" fill="#151515"/>
</svg>
