<svg width="24" height="24" viewBox="0 0 24 24" fill="none" xmlns="http://www.w3.org/2000/svg">
<path fill-rule="evenodd" clip-rule="evenodd" d="M13.1024 2.99955C13.2258 2.46123 13.7622 2.12487 14.3005 2.24828C16.5243 2.75808 18.509 4.01043 19.9301 5.79942C21.3512 7.58834 22.1247 9.80799 22.1247 12.0949C22.1247 14.3819 21.3512 16.6015 19.9301 18.3904C18.509 20.1794 16.5243 21.4318 14.3005 21.9416C12.092 22.4479 10.775 22.1587 9.82603 21.9417C8.85277 21.7191 7.91802 21.3525 7.05244 20.8539C6.2001 20.363 4.79847 19.3936 3.75226 17.7892C3.28194 17.068 3.00392 16.5913 2.81072 16.154C2.6428 15.7739 2.54674 15.437 2.44214 15.0702C2.42623 15.0144 2.41012 14.9579 2.39353 14.9004C2.2403 14.3698 2.54623 13.8154 3.07684 13.6622C3.60744 13.509 4.16179 13.8149 4.31502 14.3455C4.33385 14.4108 4.35119 14.4712 4.36737 14.5276C4.47491 14.9027 4.53145 15.0998 4.64014 15.3458C4.76546 15.6295 4.9704 15.9958 5.42752 16.6968C6.23621 17.9369 7.34403 18.7138 8.05066 19.1208C8.74406 19.5202 9.49267 19.8138 10.2719 19.992L10.2816 19.9942C11.0833 20.1776 12.0651 20.4022 13.8536 19.9921C15.6341 19.584 17.2245 18.5809 18.3641 17.1464C19.5037 15.7118 20.1247 13.9308 20.1247 12.0949C20.1247 10.2591 19.5037 8.47803 18.3641 7.04343C17.2245 5.6089 15.6341 4.60589 13.8536 4.19771C13.3153 4.0743 12.9789 3.53787 13.1024 2.99955ZM11.0237 2.99965C11.1471 3.53798 10.8107 4.07438 10.2723 4.19774C9.28066 4.42496 8.34064 4.83859 7.50191 5.41692C7.04724 5.73044 6.4245 5.616 6.11098 5.16133C5.79747 4.70666 5.9119 4.08392 6.36658 3.77041C7.4134 3.04858 8.58706 2.53206 9.82562 2.24826C10.364 2.12491 10.9004 2.46132 11.0237 2.99965ZM4.68445 6.691C5.16796 6.95791 5.34355 7.56624 5.07665 8.04975L4.91231 8.34744C4.52791 9.08685 4.2537 9.893 4.11088 10.7442C4.01949 11.2888 3.50386 11.6563 2.95919 11.5649C2.41452 11.4735 2.04707 10.9579 2.13846 10.4132C2.31723 9.34775 2.66149 8.33792 3.14438 7.41225L3.15552 7.39149L3.32571 7.0832C3.59262 6.59969 4.20095 6.4241 4.68445 6.691Z" fill="#151515"/>
<path fill-rule="evenodd" clip-rule="evenodd" d="M12.0005 7.5C12.5528 7.5 13.0005 7.94772 13.0005 8.5V12.129L15.1127 14.2413C15.5032 14.6318 15.5032 15.2649 15.1127 15.6555C14.7222 16.046 14.089 16.046 13.6985 15.6555L11.2934 13.2504C11.1058 13.0628 11.0005 12.8085 11.0005 12.5433V8.5C11.0005 7.94772 11.4482 7.5 12.0005 7.5Z" fill="#151515"/>
</svg>
