<svg width="24" height="24" viewBox="0 0 24 24" fill="none" xmlns="http://www.w3.org/2000/svg">
<path fill-rule="evenodd" clip-rule="evenodd" d="M13.2941 3C13.2941 2.44772 12.8464 2 12.2941 2C11.7418 2 11.2941 2.44772 11.2941 3V13.2917L7.70711 9.70466C7.31658 9.31413 6.68342 9.31413 6.29289 9.70466C5.90237 10.0952 5.90237 10.7283 6.29289 11.1189L11.587 16.413C11.7745 16.6005 12.0289 16.7059 12.2941 16.7059C12.5593 16.7059 12.8137 16.6005 13.0012 16.413L18.2953 11.1189C18.6859 10.7283 18.6859 10.0952 18.2953 9.70466C17.9048 9.31413 17.2717 9.31413 16.8811 9.70466L13.2941 13.2917V3ZM5 20C4.44772 20 4 20.4477 4 21C4 21.5523 4.44772 22 5 22H19C19.5523 22 20 21.5523 20 21C20 20.4477 19.5523 20 19 20H5Z" fill="#151515"/>
</svg>
