<svg width="24" height="24" viewBox="0 0 24 24" fill="none" xmlns="http://www.w3.org/2000/svg">
<path d="M19.15 2.92C19.15 2.92 19.13 2.9 19.12 2.89C19.12 2.89 19.12 2.89 19.11 2.88C18.56 2.33 17.8 2 17.03 2C17.01 2 17 2 16.98 2H7.02C7.02 2 6.99 2 6.97 2C6.2 2 5.44 2.33 4.89 2.88C4.89 2.88 4.88 2.89 4.87 2.9L4.85 2.92C4.31 3.48 4 4.22 4 5.01C4 5.03 4 5.04 4 5.06V20.46C4 20.46 4 20.5 4 20.52C4 20.76 4.07 20.99 4.18 21.2C4.18 21.2 4.18 21.22 4.2 21.23C4.2 21.24 4.21 21.25 4.22 21.27C4.34 21.47 4.51 21.65 4.71 21.77C4.72 21.77 4.73 21.78 4.74 21.79C4.75 21.79 4.77 21.8 4.78 21.81C4.99 21.93 5.22 21.99 5.45 22C5.47 22 5.48 22 5.5 22C5.51 22 5.53 22 5.54 22C5.78 22 6.01 21.93 6.22 21.82C6.24 21.82 6.26 21.8 6.27 21.79L11.51 18.73C11.8 18.56 12.19 18.56 12.49 18.73L17.73 21.79C17.73 21.79 17.77 21.81 17.79 21.82C18 21.93 18.23 22 18.47 22C18.48 22 18.5 22 18.51 22C18.53 22 18.54 22 18.56 22C18.8 22 19.03 21.93 19.23 21.81C19.24 21.81 19.25 21.8 19.27 21.79C19.28 21.79 19.29 21.78 19.31 21.77C19.51 21.64 19.68 21.47 19.8 21.26C19.8 21.26 19.81 21.24 19.82 21.23C19.82 21.22 19.83 21.2 19.84 21.19C19.95 20.98 20.01 20.75 20.02 20.52C20.02 20.5 20.02 20.48 20.02 20.46V5.06C20.02 5.06 20.02 5.03 20.02 5.01C20.02 4.22 19.71 3.48 19.17 2.92H19.15Z" fill="#161616"/>
</svg>
