<svg width="24" height="24" viewBox="0 0 24 24" fill="none" xmlns="http://www.w3.org/2000/svg">
<path d="M13.2587 9.81754C12.8251 9.36431 12.6083 9.13769 12.3503 9.05466C12.1238 8.98178 11.8762 8.98178 11.6497 9.05466C11.3917 9.13769 11.1749 9.36431 10.7413 9.81755L8.12906 12.5481C7.38266 13.3283 7.00946 13.7184 7.00032 14.0487C6.99237 14.3357 7.13312 14.6099 7.38153 14.7913C7.66736 15 8.24082 15 9.38773 15H14.6123C15.7592 15 16.3326 15 16.6185 14.7913C16.8669 14.6099 17.0076 14.3357 16.9997 14.0487C16.9905 13.7184 16.6173 13.3283 15.8709 12.5481L13.2587 9.81754Z" fill="#F04806"/>
</svg>
