<svg width="24" height="24" viewBox="0 0 24 24" fill="none" xmlns="http://www.w3.org/2000/svg">
<path d="M0.000976562 4C0.000976562 1.79086 1.79184 0 4.00098 0H20.001C22.2101 0 24.001 1.79086 24.001 4V20C24.001 22.2091 22.2101 24 20.001 24H4.00098C1.79184 24 0.000976562 22.2091 0.000976562 20V4Z" fill="#151515"/>
<path fill-rule="evenodd" clip-rule="evenodd" d="M19.2005 2.4H4.80049C3.475 2.4 2.40049 3.47452 2.40049 4.8V19.2C2.40049 20.5255 3.47501 21.6 4.80049 21.6H19.2005C20.526 21.6 21.6005 20.5255 21.6005 19.2V4.8C21.6005 3.47452 20.526 2.4 19.2005 2.4ZM4.80049 0C2.14952 0 0.000488281 2.14903 0.000488281 4.8V19.2C0.000488281 21.851 2.14952 24 4.80049 24H19.2005C21.8515 24 24.0005 21.851 24.0005 19.2V4.8C24.0005 2.14903 21.8515 0 19.2005 0H4.80049Z" fill="#151515"/>
<path d="M16.9174 8.22042C16.5408 7.8941 15.9711 7.9348 15.6447 8.31133L10.9098 13.7747L8.29059 11.1555C7.93827 10.8032 7.36705 10.8032 7.01473 11.1555C6.66241 11.5079 6.66241 12.0791 7.01473 12.4314L10.3191 15.7357C10.4961 15.9128 10.7389 16.0083 10.9891 15.9994C11.2394 15.9905 11.4747 15.8779 11.6387 15.6886L17.0083 9.49304C17.3346 9.11652 17.2939 8.54675 16.9174 8.22042Z" fill="white"/>
</svg>
