<svg width="24" height="24" viewBox="0 0 24 24" fill="none" xmlns="http://www.w3.org/2000/svg">
<path d="M18.51 22C18.24 22 17.98 21.93 17.75 21.8L12.49 18.73C12.19 18.56 11.81 18.56 11.51 18.73L6.25 21.8C6.02 21.93 5.76 22 5.5 22C5.23 22 4.97 21.92 4.74 21.79C4.51 21.66 4.33 21.46 4.2 21.23C4.07 21.01 4 20.75 4 20.48V5.04C4 4.23 4.31 3.47 4.87 2.9C5.43 2.33 6.2 2 7 2H17C17.79 2 18.57 2.33 19.13 2.9C19.69 3.47 20 4.23 20 5.04V20.49C20 20.75 19.93 21.01 19.8 21.24C19.67 21.47 19.49 21.66 19.26 21.8C19.03 21.93 18.77 22.01 18.51 22.01V22ZM12 16.6C12.53 16.6 13.04 16.74 13.5 17.01L18 19.64V5.04C18 4.76 17.89 4.49 17.7 4.3C17.51 4.11 17.26 4 17 4H7C6.74 4 6.49 4.11 6.3 4.3C6.11 4.5 6 4.76 6 5.04V19.63L10.5 17C10.95 16.74 11.47 16.6 12 16.6Z" fill="#161616"/>
</svg>
