<svg width="24" height="24" viewBox="0 0 24 24" fill="none" xmlns="http://www.w3.org/2000/svg">
<path d="M19 13.75C18.0335 13.75 17.25 12.9665 17.25 12C17.25 11.0335 18.0335 10.25 19 10.25C19.9665 10.25 20.75 11.0335 20.75 12C20.75 12.9665 19.9665 13.75 19 13.75Z" fill="#151515"/>
<path d="M11.75 13.75C10.7835 13.75 10 12.9665 10 12C10 11.0335 10.7835 10.25 11.75 10.25C12.7165 10.25 13.5 11.0335 13.5 12C13.5 12.9665 12.7165 13.75 11.75 13.75Z" fill="#151515"/>
<path d="M2.75 12C2.75 12.9665 3.5335 13.75 4.5 13.75C5.4665 13.75 6.25 12.9665 6.25 12C6.25 11.0335 5.4665 10.25 4.5 10.25C3.5335 10.25 2.75 11.0335 2.75 12Z" fill="#151515"/>
</svg>
