<svg width="24" height="24" viewBox="0 0 24 24" fill="none" xmlns="http://www.w3.org/2000/svg">
<path fill-rule="evenodd" clip-rule="evenodd" d="M3.79338 4.29289C4.18391 3.90237 4.81707 3.90237 5.2076 4.29289L20.2076 19.2929C20.5981 19.6834 20.5981 20.3166 20.2076 20.7071C19.8171 21.0976 19.1839 21.0976 18.7934 20.7071L3.79338 5.70711C3.40286 5.31658 3.40286 4.68342 3.79338 4.29289Z" fill="#151515"/>
<path fill-rule="evenodd" clip-rule="evenodd" d="M20.2076 4.29289C19.8171 3.90237 19.1839 3.90237 18.7934 4.29289L3.79338 19.2929C3.40285 19.6834 3.40285 20.3166 3.79338 20.7071C4.18391 21.0976 4.81707 21.0976 5.2076 20.7071L20.2076 5.70711C20.5981 5.31658 20.5981 4.68342 20.2076 4.29289Z" fill="#151515"/>
</svg>
