<svg width="24" height="24" viewBox="0 0 24 24" fill="none" xmlns="http://www.w3.org/2000/svg">
<path fill-rule="evenodd" clip-rule="evenodd" d="M8.21062 2.99997C8.21062 2.47676 8.63477 2.05261 9.15798 2.05261H14.8421C15.3653 2.05261 15.7895 2.47676 15.7895 2.99997C15.7895 3.52318 15.3653 3.94733 14.8421 3.94733H9.15798C8.63477 3.94733 8.21062 3.52318 8.21062 2.99997ZM5.97096 7.39182C7.56998 5.79281 9.7387 4.89449 12.0001 4.89449C13.9433 4.89449 15.8182 5.55788 17.3219 6.75925L17.9617 6.11952C18.3316 5.74955 18.9315 5.74955 19.3014 6.11952C19.6714 6.48949 19.6714 7.08932 19.3014 7.45929L18.6617 8.09901C19.8631 9.60274 20.5265 11.4776 20.5265 13.4209C20.5265 15.6823 19.6282 17.851 18.0291 19.45C16.4301 21.049 14.2614 21.9473 12.0001 21.9473C9.7387 21.9473 7.56998 21.049 5.97096 19.45C4.37195 17.851 3.47363 15.6823 3.47363 13.4209C3.47363 11.1596 4.37195 8.99084 5.97096 7.39182ZM12.0001 6.78921C10.2412 6.78921 8.55442 7.4879 7.31073 8.73159C6.06704 9.97527 5.36835 11.6621 5.36835 13.4209C5.36835 15.1797 6.06704 16.8665 7.31073 18.1102C8.55442 19.3539 10.2412 20.0526 12.0001 20.0526C13.7589 20.0526 15.4457 19.3539 16.6894 18.1102C17.9331 16.8665 18.6318 15.1797 18.6318 13.4209C18.6318 11.6621 17.9331 9.97527 16.6894 8.73159C15.4457 7.4879 13.7589 6.78921 12.0001 6.78921ZM12.0001 8.68412C12.5233 8.68412 12.9474 9.10827 12.9474 9.63148V13.4209C12.9474 13.9441 12.5233 14.3683 12.0001 14.3683C11.4768 14.3683 11.0527 13.9441 11.0527 13.4209V9.63148C11.0527 9.10827 11.4768 8.68412 12.0001 8.68412Z" fill="#151515"/>
</svg>
