<svg width="24" height="24" viewBox="0 0 24 24" fill="none" xmlns="http://www.w3.org/2000/svg">
<path d="M0.000488281 4C0.000488281 1.79086 1.79135 0 4.00049 0H20.0005C22.2096 0 24.0005 1.79086 24.0005 4V20C24.0005 22.2091 22.2096 24 20.0005 24H4.00049C1.79135 24 0.000488281 22.2091 0.000488281 20V4Z" fill="#D1D1D5"/>
<path d="M16.9174 8.22042C16.5408 7.8941 15.9711 7.9348 15.6447 8.31133L10.9098 13.7747L8.29059 11.1555C7.93827 10.8032 7.36705 10.8032 7.01473 11.1555C6.66241 11.5079 6.66241 12.0791 7.01473 12.4314L10.3191 15.7357C10.4961 15.9128 10.7389 16.0083 10.9891 15.9994C11.2394 15.9905 11.4747 15.8779 11.6387 15.6886L17.0083 9.49304C17.3346 9.11652 17.2939 8.54675 16.9174 8.22042Z" fill="white"/>
</svg>
