<svg width="24" height="24" viewBox="0 0 24 24" fill="none" xmlns="http://www.w3.org/2000/svg">
<path fill-rule="evenodd" clip-rule="evenodd" d="M14.8282 7.9142C15.2187 8.30472 15.2187 8.93789 14.8282 9.32841L10.5856 13.5711C10.195 13.9616 9.56187 13.9616 9.17135 13.5711C8.78082 13.1805 8.78082 12.5474 9.17135 12.1568L13.414 7.9142C13.8045 7.52367 14.4377 7.52367 14.8282 7.9142Z" fill="#151515"/>
<path fill-rule="evenodd" clip-rule="evenodd" d="M9.1718 7.9142C9.56232 7.52367 10.1955 7.52367 10.586 7.9142L14.8287 12.1568C15.2192 12.5474 15.2192 13.1805 14.8287 13.5711C14.4381 13.9616 13.805 13.9616 13.4144 13.5711L9.1718 9.32841C8.78128 8.93789 8.78128 8.30472 9.1718 7.9142Z" fill="#151515"/>
<path fill-rule="evenodd" clip-rule="evenodd" d="M12.0002 4C8.93266 4 6.29314 6.75539 6.29314 10.3517V10.3628L6.29308 10.3628L6.26873 12.5428C6.26752 14.0024 5.80967 15.2454 5.26922 16.1818H18.7397C18.2207 15.2435 17.7816 13.998 17.7816 12.537V12.5252L17.7817 12.5252L17.806 10.4542C17.8032 6.80095 15.1206 4 12.0002 4ZM4.29314 10.3459C4.29599 5.82427 7.66115 2 12.0002 2C16.3956 2 19.806 5.876 19.806 10.4599V10.4717H19.8059L19.7816 12.5426C19.783 13.8148 20.2464 14.8823 20.7337 15.6155C21.0804 16.1372 21.0434 16.7482 20.8774 17.1757C20.7172 17.5882 20.2778 18.1818 19.4935 18.1818H4.50781C3.71074 18.1818 3.27292 17.5705 3.11722 17.1571C2.95523 16.727 2.92091 16.1055 3.28384 15.5818C3.79288 14.8473 4.26873 13.7902 4.26873 12.537V12.5258L4.26879 12.5258L4.29314 10.3459ZM8.55221 19.4667C8.89692 19.0352 9.52616 18.9649 9.95766 19.3096C10.4857 19.7314 11.1994 20 12.0002 20C12.801 20 13.5147 19.7314 14.0427 19.3096C14.4742 18.9649 15.1034 19.0352 15.4481 19.4667C15.7929 19.8982 15.7225 20.5275 15.291 20.8722C14.4037 21.5811 13.2483 22 12.0002 22C10.752 22 9.5967 21.5811 8.70936 20.8722C8.27786 20.5275 8.2075 19.8982 8.55221 19.4667Z" fill="#151515"/>
</svg>
