<svg width="24" height="24" viewBox="0 0 24 24" fill="none" xmlns="http://www.w3.org/2000/svg">
<path fill-rule="evenodd" clip-rule="evenodd" d="M6.5998 4.9498C6.5998 5.86107 5.86107 6.5998 4.9498 6.5998C4.03853 6.5998 3.2998 5.86107 3.2998 4.9498C3.2998 4.03853 4.03853 3.2998 4.9498 3.2998C5.86107 3.2998 6.5998 4.03853 6.5998 4.9498ZM20.6998 4.9498C20.6998 5.86107 19.9611 6.5998 19.0498 6.5998C18.1385 6.5998 17.3998 5.86107 17.3998 4.9498C17.3998 4.03853 18.1385 3.2998 19.0498 3.2998C19.9611 3.2998 20.6998 4.03853 20.6998 4.9498ZM11.9998 6.5998C12.9111 6.5998 13.6498 5.86107 13.6498 4.9498C13.6498 4.03853 12.9111 3.2998 11.9998 3.2998C11.0885 3.2998 10.3498 4.03853 10.3498 4.9498C10.3498 5.86107 11.0885 6.5998 11.9998 6.5998ZM6.5998 19.0498C6.5998 19.9611 5.86107 20.6998 4.9498 20.6998C4.03853 20.6998 3.2998 19.9611 3.2998 19.0498C3.2998 18.1385 4.03853 17.3998 4.9498 17.3998C5.86107 17.3998 6.5998 18.1385 6.5998 19.0498ZM19.0498 20.6998C19.9611 20.6998 20.6998 19.9611 20.6998 19.0498C20.6998 18.1385 19.9611 17.3998 19.0498 17.3998C18.1385 17.3998 17.3998 18.1385 17.3998 19.0498C17.3998 19.9611 18.1385 20.6998 19.0498 20.6998ZM13.6498 19.0498C13.6498 19.9611 12.9111 20.6998 11.9998 20.6998C11.0885 20.6998 10.3498 19.9611 10.3498 19.0498C10.3498 18.1385 11.0885 17.3998 11.9998 17.3998C12.9111 17.3998 13.6498 18.1385 13.6498 19.0498ZM4.9498 13.6498C5.86107 13.6498 6.5998 12.911 6.5998 11.9998C6.5998 11.0885 5.86107 10.3498 4.9498 10.3498C4.03853 10.3498 3.2998 11.0885 3.2998 11.9998C3.2998 12.911 4.03853 13.6498 4.9498 13.6498ZM20.6998 11.9998C20.6998 12.911 19.9611 13.6498 19.0498 13.6498C18.1385 13.6498 17.3998 12.911 17.3998 11.9998C17.3998 11.0885 18.1385 10.3498 19.0498 10.3498C19.9611 10.3498 20.6998 11.0885 20.6998 11.9998ZM11.9998 13.6498C12.9111 13.6498 13.6498 12.911 13.6498 11.9998C13.6498 11.0885 12.9111 10.3498 11.9998 10.3498C11.0885 10.3498 10.3498 11.0885 10.3498 11.9998C10.3498 12.911 11.0885 13.6498 11.9998 13.6498Z" fill="#151515"/>
</svg>
