<svg width="16" height="17" viewBox="0 0 16 17" fill="none" xmlns="http://www.w3.org/2000/svg">
<path d="M7.33345 9.2659C7.33345 9.08909 7.40369 8.91952 7.52871 8.7945C7.65374 8.66947 7.8233 8.59924 8.00011 8.59924C8.17692 8.59924 8.34649 8.66947 8.47152 8.7945C8.59654 8.91952 8.66678 9.08909 8.66678 9.2659V11.2659C8.66678 11.4427 8.59654 11.6123 8.47152 11.7373C8.34649 11.8623 8.17692 11.9325 8.00011 11.9325C7.8233 11.9325 7.65374 11.8623 7.52871 11.7373C7.40369 11.6123 7.33345 11.4427 7.33345 11.2659V9.2659ZM8.00011 5.59926C7.7349 5.59926 7.48055 5.70461 7.29301 5.89215C7.10548 6.07968 7.00012 6.33404 7.00012 6.59925C7.00012 6.86446 7.10548 7.11882 7.29301 7.30635C7.48055 7.49389 7.7349 7.59924 8.00011 7.59924C8.26533 7.59924 8.51968 7.49389 8.70722 7.30635C8.89475 7.11882 9.00011 6.86446 9.00011 6.59925C9.00011 6.33404 8.89475 6.07968 8.70722 5.89215C8.51968 5.70461 8.26533 5.59926 8.00011 5.59926ZM1.3335 8.59924C1.3335 6.83114 2.03587 5.13546 3.2861 3.88522C4.53634 2.63499 6.23202 1.93262 8.00011 1.93262C9.76821 1.93262 11.4639 2.63499 12.7141 3.88522C13.9644 5.13546 14.6667 6.83114 14.6667 8.59924C14.6667 10.3673 13.9644 12.063 12.7141 13.3132C11.4639 14.5635 9.76821 15.2659 8.00011 15.2659C6.23202 15.2659 4.53634 14.5635 3.2861 13.3132C2.03587 12.063 1.3335 10.3673 1.3335 8.59924ZM8.00011 3.26594C6.58564 3.26594 5.22909 3.82784 4.22891 4.82803C3.22872 5.82821 2.66682 7.18476 2.66682 8.59924C2.66682 10.0137 3.22872 11.3703 4.22891 12.3704C5.22909 13.3706 6.58564 13.9325 8.00011 13.9325C9.41459 13.9325 10.7711 13.3706 11.7713 12.3704C12.7715 11.3703 13.3334 10.0137 13.3334 8.59924C13.3334 7.18476 12.7715 5.82821 11.7713 4.82803C10.7711 3.82784 9.41459 3.26594 8.00011 3.26594Z" fill="#B0B0B3"/>
</svg>
