<svg width="24" height="24" viewBox="0 0 24 24" fill="none" xmlns="http://www.w3.org/2000/svg">
<path d="M12 21C9.9 21 8.04167 20.3627 6.425 19.088C4.80833 17.8133 3.75833 16.184 3.275 14.2C3.20833 13.95 3.25833 13.721 3.425 13.513C3.59167 13.305 3.81667 13.184 4.1 13.15C4.36667 13.1167 4.60833 13.1667 4.825 13.3C5.04167 13.4333 5.19167 13.6333 5.275 13.9C5.675 15.4 6.5 16.625 7.75 17.575C9 18.525 10.4167 19 12 19C13.95 19 15.6043 18.321 16.963 16.963C18.3217 15.605 19.0007 13.9507 19 12C18.9993 10.0493 18.3203 8.39533 16.963 7.038C15.6057 5.68067 13.9513 5.00133 12 5C10.85 5 9.775 5.26667 8.775 5.8C7.775 6.33333 6.93333 7.06667 6.25 8H8C8.28333 8 8.521 8.096 8.713 8.288C8.905 8.48 9.00067 8.71733 9 9C8.99933 9.28267 8.90333 9.52033 8.712 9.713C8.52067 9.90567 8.28333 10.0013 8 10H4C3.71667 10 3.47933 9.904 3.288 9.712C3.09667 9.52 3.00067 9.28267 3 9V5C3 4.71667 3.096 4.47933 3.288 4.288C3.48 4.09667 3.71733 4.00067 4 4C4.28267 3.99933 4.52033 4.09533 4.713 4.288C4.90567 4.48067 5.00133 4.718 5 5V6.35C5.85 5.28333 6.88767 4.45833 8.113 3.875C9.33833 3.29167 10.634 3 12 3C13.25 3 14.421 3.23767 15.513 3.713C16.605 4.18833 17.555 4.82967 18.363 5.637C19.171 6.44433 19.8127 7.39433 20.288 8.487C20.7633 9.57967 21.0007 10.7507 21 12C20.9993 13.2493 20.762 14.4203 20.288 15.513C19.814 16.6057 19.1723 17.5557 18.363 18.363C17.5537 19.1703 16.6037 19.812 15.513 20.288C14.4223 20.764 13.2513 21.0013 12 21Z" fill="#151515"/>
<path d="M12 9V12.5L13.5 14" stroke="#151515" stroke-width="2" stroke-linecap="round" stroke-linejoin="round"/>
</svg>
