<svg width="24" height="24" viewBox="0 0 24 24" fill="none" xmlns="http://www.w3.org/2000/svg">
<path fill-rule="evenodd" clip-rule="evenodd" d="M19.9876 4.9891C20.0833 4.41457 19.5852 3.9165 19.0107 4.01225L16.0366 4.50794C16.6594 5.00734 17.2639 5.54823 17.8456 6.12994C18.4365 6.72075 18.9851 7.33515 19.491 7.96827L19.9876 4.9891ZM18.7536 10.3272C18.0854 9.35787 17.3108 8.42349 16.4314 7.54415C15.5607 6.67344 14.6361 5.90535 13.677 5.24167L10.2588 8.89555C10.2507 8.9046 10.2424 8.9135 10.2339 8.92222L7.64956 11.6848C6.65839 12.7443 6.49749 14.2889 7.15332 15.5056L11.366 11.2929C11.7565 10.9024 12.3897 10.9024 12.7802 11.2929C13.1707 11.6834 13.1707 12.3166 12.7802 12.7071L8.59076 16.8965C9.79171 17.4934 11.2833 17.3156 12.3151 16.3504L15.074 13.7694C15.0851 13.7586 15.0965 13.7479 15.1081 13.7375L18.7536 10.3272ZM16.9252 14.7763L20.2162 11.6976C20.7394 11.2083 21.0867 10.5602 21.2044 9.85357L21.9604 5.3179C22.2817 3.38974 20.6101 1.7181 18.6819 2.03946L14.1463 2.7954C13.4397 2.91317 12.7916 3.26047 12.3023 3.78359L9.22352 7.07468L7.17426 6.39158C6.53711 6.1792 5.83533 6.31435 5.32263 6.74817L2.68143 8.98306C1.55579 9.93553 1.87558 11.7481 3.25921 12.2579L4.87143 12.8519C4.57936 14.2508 4.85799 15.7425 5.70115 16.9577L3.7927 18.8662C3.40217 19.2567 3.40217 19.8899 3.7927 20.2804C4.18322 20.6709 4.81639 20.6709 5.20691 20.2804L7.12934 18.358C8.32828 19.1549 9.78243 19.4136 11.1481 19.1285L11.742 20.7406C12.2517 22.1242 14.0644 22.444 15.0168 21.3184L17.2517 18.6771C17.6855 18.1644 17.8207 17.4627 17.6083 16.8255L16.9252 14.7763ZM15.3182 16.2797L13.6814 17.8109C13.4642 18.0141 13.2344 18.1955 12.9946 18.3552L13.5738 19.9275L15.6975 17.4177L15.3182 16.2797ZM13.49 20.0265C13.4901 20.0264 13.4901 20.0264 13.4902 20.0264L13.49 20.0265ZM5.64466 11.0054C5.80442 10.7655 5.98586 10.5357 6.18901 10.3185L7.72016 8.68174L6.5821 8.30238L4.07232 10.4261L5.64466 11.0054Z" fill="#151515"/>
</svg>
