<svg width="24" height="24" viewBox="0 0 24 24" fill="none" xmlns="http://www.w3.org/2000/svg">
<path fill-rule="evenodd" clip-rule="evenodd" d="M14.0401 19.31C12.9301 20.2 11.0701 20.2 9.96013 19.31C9.53013 18.96 8.90013 19.03 8.55013 19.47C8.21013 19.9 8.28013 20.53 8.71013 20.88C9.62013 21.61 10.7901 22.01 12.0001 22.01C13.2101 22.01 14.3801 21.61 15.2901 20.88C15.7201 20.54 15.7901 19.91 15.4501 19.47C15.1001 19.04 14.4801 18.97 14.0401 19.31Z" fill="#161616"/>
<path fill-rule="evenodd" clip-rule="evenodd" d="M20.73 15.62C20.3 14.97 19.78 13.9 19.78 12.55L19.8 10.46C19.81 5.79 16.3 2 12 2C7.7 2 4.29 5.75 4.29 10.34L4.27 12.54C4.27 13.88 3.73 14.94 3.28 15.58C3.09 15.85 3 16.18 3 16.52C3 16.8 3.07 17.09 3.21 17.36C3.48 17.88 3.97 18.19 4.51 18.19H19.5C20.04 18.19 20.52 17.89 20.79 17.38C20.93 17.12 21 16.82 21 16.54C21 16.22 20.91 15.9 20.73 15.63V15.62ZM13 8V9.5H14.5C15.05 9.5 15.5 9.95 15.5 10.5C15.5 11.05 15.05 11.5 14.5 11.5H13V13C13 13.55 12.55 14 12 14C11.45 14 11 13.55 11 13V11.5H9.5C8.95 11.5 8.5 11.05 8.5 10.5C8.5 9.95 8.95 9.5 9.5 9.5H11V8C11 7.45 11.45 7 12 7C12.55 7 13 7.45 13 8Z" fill="#161616"/>
</svg>
