<svg width="24" height="24" viewBox="0 0 24 24" fill="none" xmlns="http://www.w3.org/2000/svg">
<path fill-rule="evenodd" clip-rule="evenodd" d="M11.337 2.3371C11.7031 1.97099 12.2967 1.97099 12.6628 2.3371L15.8157 5.49001C16.1818 5.85612 16.1818 6.44971 15.8157 6.81582C15.4496 7.18193 14.856 7.18193 14.4899 6.81582L12.9374 5.2633V11.0624H18.7365L17.184 9.5099C16.8179 9.14379 16.8179 8.5502 17.184 8.18409C17.5501 7.81798 18.1437 7.81798 18.5098 8.18409L21.6627 11.337C21.8385 11.5128 21.9373 11.7513 21.9373 11.9999C21.9373 12.2485 21.8385 12.487 21.6627 12.6628L18.5098 15.8157C18.1437 16.1818 17.5501 16.1818 17.184 15.8157C16.8179 15.4496 16.8179 14.856 17.184 14.4899L18.7365 12.9374H12.9374V18.7365L14.4899 17.184C14.856 16.8179 15.4496 16.8179 15.8157 17.184C16.1818 17.5501 16.1818 18.1437 15.8157 18.5098L12.6628 21.6627C12.487 21.8385 12.2485 21.9373 11.9999 21.9373C11.7513 21.9373 11.5128 21.8385 11.337 21.6627L8.18407 18.5098C7.81796 18.1437 7.81796 17.5501 8.18407 17.184C8.55019 16.8179 9.14377 16.8179 9.50988 17.184L11.0624 18.7365V12.9374H5.26329L6.81581 14.4899C7.18192 14.856 7.18192 15.4496 6.81581 15.8157C6.44969 16.1818 5.85611 16.1818 5.49 15.8157L2.33708 12.6628C1.97097 12.2967 1.97097 11.7031 2.33708 11.337L5.49 8.18409C5.85611 7.81798 6.44969 7.81798 6.81581 8.18409C7.18192 8.5502 7.18192 9.14379 6.81581 9.5099L5.26329 11.0624H11.0624V5.26331L9.50988 6.81582C9.14377 7.18193 8.55019 7.18193 8.18407 6.81582C7.81796 6.44971 7.81796 5.85612 8.18407 5.49001L11.337 2.3371Z" fill="#151515"/>
</svg>
