<svg width="24" height="24" viewBox="0 0 24 24" fill="none" xmlns="http://www.w3.org/2000/svg">
<path fill-rule="evenodd" clip-rule="evenodd" d="M8.64567 4.36107C9.03505 4.13218 9.4644 4.00107 9.94166 4.00001C11.3936 3.99681 12.5873 5.18142 12.5887 6.66665L12.5612 11.9999L12.5887 17.3332C12.6062 18.7993 11.4114 19.9828 9.94166 19.9998C9.44075 20.0056 8.99084 19.8554 8.59061 19.611C8.35237 19.4655 7.89725 19.0822 7.15678 18.3887C7.14237 18.3753 6.96037 18.201 6.73727 17.9873C6.50686 17.7667 6.23261 17.504 6.05384 17.3332C5.83025 17.3328 4.71434 17.3326 4.64755 17.3332C3.16616 17.347 2.01619 16.163 2.00049 14.6666V9.33328C2.01108 7.8949 3.21399 6.67571 4.64755 6.66665C4.75069 6.66602 5.86228 6.66647 6.08137 6.66665C6.32101 6.43907 6.71342 6.06258 6.96013 5.82587C7.08596 5.70516 7.17388 5.6208 7.18431 5.6111C7.93766 4.91075 8.39958 4.50587 8.64567 4.36107ZM10.824 6.66665C10.8236 6.17332 10.4219 5.7767 9.94166 5.77777C9.79202 5.77812 9.66019 5.81119 9.52802 5.88888C9.45046 5.93448 8.96746 6.36114 8.37002 6.9166C8.33252 6.95144 7.09669 8.11916 7.01887 8.19445C6.85458 8.35329 6.63999 8.4444 6.41225 8.4444L6.40244 8.4444C6.20847 8.44428 4.80321 8.44345 4.64755 8.4444C4.18175 8.44734 3.76864 8.87133 3.76519 9.33328V14.6666C3.77066 15.1862 4.15369 15.5601 4.64755 15.5554C4.74976 15.5545 5.86568 15.5551 6.27004 15.5554C6.3481 15.5554 6.39965 15.5554 6.41225 15.5554C6.64078 15.5554 6.8544 15.6457 7.01887 15.8054C7.09617 15.8806 8.3349 17.0504 8.37002 17.0832C8.96516 17.6406 9.41905 18.0612 9.50049 18.111C9.63046 18.1903 9.78602 18.2239 9.94166 18.2221C10.4454 18.2162 10.8298 17.8143 10.824 17.3332L10.7965 11.9999L10.824 6.66665ZM16.6985 9.008C16.303 8.62252 15.6698 8.63065 15.2844 9.02615C14.8989 9.42166 14.907 10.0548 15.3025 10.4402L16.8178 11.9171L15.3025 13.3939C14.907 13.7794 14.8989 14.4125 15.2844 14.808C15.6698 15.2035 16.303 15.2116 16.6985 14.8262L18.2505 13.3135L19.8025 14.8262C20.198 15.2116 20.8311 15.2035 21.2166 14.808C21.6021 14.4125 21.594 13.7794 21.1985 13.3939L19.6832 11.9171L21.1985 10.4402C21.594 10.0548 21.6021 9.42166 21.2166 9.02615C20.8311 8.63065 20.198 8.62252 19.8025 9.008L18.2505 10.5207L16.6985 9.008Z" fill="#151515"/>
</svg>
