<svg width="24" height="24" viewBox="0 0 24 24" fill="none" xmlns="http://www.w3.org/2000/svg">
<path fill-rule="evenodd" clip-rule="evenodd" d="M5.80613 5C6.35841 5 6.80613 5.44772 6.80613 6V15.707L9.07669 13.5989C9.48142 13.2231 10.1142 13.2466 10.4899 13.6513C10.8657 14.0561 10.8422 14.6888 10.4375 15.0646L6.48653 18.7328C6.09758 19.094 5.49427 19.0883 5.11214 18.72L1.3065 15.0517C0.908861 14.6684 0.897226 14.0354 1.28051 13.6377C1.66379 13.2401 2.29685 13.2285 2.69448 13.6117L4.80613 15.6472V6C4.80613 5.44772 5.25385 5 5.80613 5ZM12.442 6.62732C12.442 6.07503 12.8897 5.62732 13.442 5.62732H22.0005C22.5528 5.62732 23.0005 6.07503 23.0005 6.62732C23.0005 7.1796 22.5528 7.62732 22.0005 7.62732H13.442C12.8897 7.62732 12.442 7.1796 12.442 6.62732ZM12.442 11.4421C12.442 10.8898 12.8897 10.4421 13.442 10.4421H19.5552C20.1075 10.4421 20.5552 10.8898 20.5552 11.4421C20.5552 11.9944 20.1075 12.4421 19.5552 12.4421H13.442C12.8897 12.4421 12.442 11.9944 12.442 11.4421ZM12.442 16.2569C12.442 15.7046 12.8897 15.2569 13.442 15.2569H17.1099C17.6622 15.2569 18.1099 15.7046 18.1099 16.2569C18.1099 16.8092 17.6622 17.2569 17.1099 17.2569H13.442C12.8897 17.2569 12.442 16.8092 12.442 16.2569Z" fill="#151515"/>
</svg>
