<svg width="24" height="24" viewBox="0 0 24 24" fill="none" xmlns="http://www.w3.org/2000/svg">
<path fill-rule="evenodd" clip-rule="evenodd" d="M17.1804 3.53032C15.1515 2.29369 12.7444 1.82415 10.3974 2.20669C8.05041 2.58923 5.91874 3.79864 4.39134 5.61562C2.86387 7.43271 2.04263 9.73636 2.07826 12.1068C2.11389 14.4772 3.00399 16.7553 4.58533 18.526C6.16658 20.2966 8.33358 21.4419 10.691 21.7544C11.8299 21.9054 13.3884 21.9305 14.6259 21.9214C15.2524 21.9168 15.8105 21.9032 16.2121 21.8908C16.413 21.8846 16.5751 21.8786 16.6874 21.8742L16.8171 21.8689L16.8515 21.8674L16.8641 21.8668C17.2297 21.85 17.5509 21.6187 17.6827 21.2773C17.8146 20.9359 17.7323 20.5488 17.4729 20.2905L15.5171 18.3437C15.1558 17.9841 14.5714 17.9854 14.2117 18.3467C13.8521 18.708 13.8534 19.2925 14.2147 19.6522L14.6396 20.0751L14.6123 20.0753C13.3799 20.0844 11.9338 20.0569 10.9336 19.9243C9.01274 19.6697 7.24861 18.7366 5.96231 17.2963C4.6761 15.856 3.95315 14.0044 3.92421 12.079C3.89527 10.1536 4.56224 8.28139 5.80452 6.80357C7.04689 5.32564 8.78212 4.34049 10.6944 4.0288C12.6067 3.7171 14.5677 4.09986 16.2196 5.10673C17.8714 6.11354 19.1038 7.67701 19.6934 9.51138C20.2829 11.3457 20.1908 13.3297 19.4336 15.1022C19.2333 15.571 19.451 16.1134 19.9198 16.3137C20.3886 16.5139 20.931 16.2963 21.1313 15.8274C22.0631 13.6463 22.1766 11.2041 21.451 8.94648C20.7254 6.68889 19.2094 4.76702 17.1804 3.53032ZM16.8663 10.3708C17.0711 9.85794 16.8214 9.27612 16.3084 9.07132C15.7955 8.86652 15.2137 9.11629 15.0089 9.6292L13.9883 12.1853L13.1071 9.74397C12.9676 9.35771 12.6062 9.09595 12.1958 9.08392C11.7853 9.07189 11.4092 9.31203 11.2474 9.68946L10.0665 12.4441L8.87241 9.61157C8.65788 9.10266 8.07141 8.86402 7.56249 9.07855C7.05358 9.29309 6.81494 9.87956 7.02947 10.3885L7.49804 11.5C6.94688 11.5013 6.50049 11.9485 6.50049 12.5C6.50049 13.0523 6.9482 13.5 7.50049 13.5H8.34115L9.13724 15.3885C9.29304 15.7581 9.65459 15.9988 10.0557 16C10.4568 16.0012 10.8198 15.7627 10.9778 15.394L12.0866 12.8076L13.0006 15.3395C13.1415 15.7301 13.5092 15.9929 13.9244 15.9999C14.3396 16.0068 14.7159 15.7565 14.8699 15.3708L15.6169 13.5H16.5003C17.0526 13.5 17.5003 13.0523 17.5003 12.5C17.5003 11.9477 17.0526 11.5 16.5003 11.5H16.4155L16.8663 10.3708Z" fill="#151515"/>
</svg>
