<svg width="24" height="24" viewBox="0 0 24 24" fill="none" xmlns="http://www.w3.org/2000/svg">
<path d="M3 6C3 5.20435 3.31607 4.44129 3.87868 3.87868C4.44129 3.31607 5.20435 3 6 3H15C15.7956 3 16.5587 3.31607 17.1213 3.87868C17.6839 4.44129 18 5.20435 18 6V15C18 15.7956 17.6839 16.5587 17.1213 17.1213C16.5587 17.6839 15.7956 18 15 18H6C5.20435 18 4.44129 17.6839 3.87868 17.1213C3.31607 16.5587 3 15.7956 3 15V6ZM6 4.5C5.60218 4.5 5.22064 4.65804 4.93934 4.93934C4.65804 5.22064 4.5 5.60218 4.5 6V15C4.5 15.3978 4.65804 15.7794 4.93934 16.0607C5.22064 16.342 5.60218 16.5 6 16.5H15C15.3978 16.5 15.7794 16.342 16.0607 16.0607C16.342 15.7794 16.5 15.3978 16.5 15V6C16.5 5.60218 16.342 5.22064 16.0607 4.93934C15.7794 4.65804 15.3978 4.5 15 4.5H6ZM19.5 15.75C19.5 16.7446 19.1049 17.6984 18.4017 18.4017C17.6984 19.1049 16.7446 19.5 15.75 19.5H4.902C5.1653 19.956 5.544 20.3348 6.00004 20.5981C6.45609 20.8614 6.9734 21 7.5 21H15.75C17.1424 21 18.4777 20.4469 19.4623 19.4623C20.4469 18.4777 21 17.1424 21 15.75V7.5C21 6.9734 20.8614 6.45609 20.5981 6.00004C20.3348 5.544 19.956 5.1653 19.5 4.902V15.75Z" fill="#151515"/>
</svg>
