<svg width="24" height="24" viewBox="0 0 24 24" fill="none" xmlns="http://www.w3.org/2000/svg">
<path fill-rule="evenodd" clip-rule="evenodd" d="M14.9453 4.03675C14.7707 4.09732 14.5356 4.20225 14.1407 4.38025L7.65252 7.3046L15.0002 7.3046V4.88727C15.0002 4.4613 14.9992 4.21209 14.9827 4.03537C14.9823 4.03168 14.982 4.02807 14.9816 4.02457C14.9706 4.02813 14.9585 4.03216 14.9453 4.03675ZM17.0002 7.30461L17.0003 4.8463C17.0003 4.47556 17.0003 4.13067 16.974 3.84921C16.9466 3.55608 16.881 3.18308 16.6435 2.84475C16.3337 2.40337 15.8588 2.10985 15.3319 2.0223C14.9316 1.95578 14.5697 2.05011 14.2897 2.14724C14.0198 2.2409 13.7015 2.38441 13.3553 2.54047L4.44835 6.55503C4.40887 6.57282 4.36971 6.59041 4.33087 6.60785C3.7747 6.85762 3.28588 7.07715 2.91193 7.43405C2.58366 7.74735 2.33133 8.13152 2.17606 8.55812C1.99844 9.04612 1.99924 9.58029 2.00012 10.1762C2.00019 10.2185 2.00025 10.2611 2.00025 10.3041V11.3132C2.00025 11.3388 2.00025 11.3646 2.00025 11.3905L2.00025 17.914C2.00023 18.4276 2.00021 18.8734 2.03098 19.2411C2.06356 19.6306 2.13577 20.0207 2.33166 20.3961C2.62253 20.9536 3.08429 21.4025 3.64679 21.6824C4.02305 21.8696 4.41361 21.9388 4.80712 21.9702C5.18073 22 5.63465 22 6.16242 21.9999H17.8381C18.3659 22 18.8198 22 19.1934 21.9702C19.5869 21.9388 19.9774 21.8696 20.3537 21.6824C20.9162 21.4025 21.378 20.9536 21.6688 20.3961C21.8647 20.0207 21.9369 19.6306 21.9695 19.2411C22.0003 18.8734 22.0003 18.4275 22.0002 17.914V11.3906C22.0003 10.877 22.0003 10.4312 21.9695 10.0634C21.9369 9.67399 21.8647 9.28389 21.6688 8.90846C21.378 8.35096 20.9162 7.90208 20.3537 7.62219C19.9775 7.43497 19.5869 7.36578 19.1934 7.33438C18.8198 7.30457 18.3659 7.30459 17.8381 7.3046L17.0002 7.30461ZM6.20025 9.3046C5.62408 9.3046 5.25069 9.30535 4.96619 9.32805C4.69268 9.34987 4.58931 9.38712 4.53775 9.41277C4.3476 9.50739 4.19744 9.65609 4.10482 9.83361C4.08271 9.87597 4.04593 9.96823 4.02402 10.2302C4.00107 10.5045 4.00025 10.8658 4.00025 11.4296V15.1406C4.00025 15.1404 4.00025 15.1407 4.00025 15.1406L4.00025 17.8749C4.00025 18.4388 4.00106 18.8 4.02402 19.0744C4.04593 19.3363 4.08271 19.4286 4.10482 19.4709C4.19744 19.6485 4.3476 19.7972 4.53775 19.8918C4.58931 19.9174 4.69268 19.9547 4.96619 19.9765C5.25069 19.9992 5.62408 19.9999 6.20025 19.9999H17.8002C18.3764 19.9999 18.7498 19.9992 19.0343 19.9765C19.3078 19.9547 19.4112 19.9174 19.4627 19.8918C19.6529 19.7972 19.8031 19.6485 19.8957 19.4709C19.9178 19.4286 19.9546 19.3363 19.9765 19.0744C19.9994 18.8 20.0002 18.4388 20.0002 17.8749V11.4296C20.0002 10.8658 19.9994 10.5045 19.9765 10.2302C19.9546 9.96823 19.9178 9.87597 19.8957 9.83361C19.8031 9.65609 19.6529 9.50739 19.4627 9.41277C19.4112 9.38712 19.3078 9.34987 19.0343 9.32805C18.7498 9.30535 18.3764 9.30461 17.8003 9.30461L6.20025 9.3046ZM15.0002 14.6523C15.0002 13.8081 15.6943 13.164 16.5002 13.164C17.3062 13.164 18.0002 13.8081 18.0002 14.6523C18.0002 15.4965 17.3062 16.1406 16.5002 16.1406C15.6943 16.1406 15.0002 15.4965 15.0002 14.6523Z" fill="#151515"/>
</svg>
