<svg width="24" height="24" viewBox="0 0 24 24" fill="none" xmlns="http://www.w3.org/2000/svg">
<path fill-rule="evenodd" clip-rule="evenodd" d="M7.7497 2.99986C7.7588 2.99993 7.76676 3 7.77347 3H10.1491C10.1645 2.99964 10.18 2.99964 10.1955 3H13.8045C13.82 2.99964 13.8355 2.99964 13.8509 3H16.2265C16.2332 3 16.2412 2.99993 16.2503 2.99986C16.3392 2.9991 16.5363 2.99742 16.7306 3.04908C16.8942 3.09258 17.0493 3.16428 17.1888 3.26128C17.355 3.37683 17.4813 3.52934 17.5376 3.59725C17.5433 3.60418 17.5483 3.61022 17.5526 3.61526L21.5245 8.32523C21.5827 8.3942 21.6571 8.48236 21.7179 8.56649C21.7903 8.6667 21.8855 8.81658 21.9432 9.0167C22.0189 9.27887 22.0189 9.55698 21.9432 9.81914C21.8855 10.0193 21.7903 10.1691 21.7179 10.2694C21.6571 10.3535 21.5828 10.4416 21.5245 10.5106C21.5204 10.5155 21.5163 10.5203 21.5123 10.5251L13.3261 20.2325C13.3208 20.2388 13.3154 20.2451 13.31 20.2516C13.2282 20.3487 13.1303 20.4648 13.0358 20.5589C12.9284 20.6659 12.7528 20.8206 12.4966 20.9131C12.1757 21.029 11.8243 21.029 11.5034 20.9131C11.2472 20.8206 11.0716 20.6659 10.9642 20.5589C10.8697 20.4648 10.7718 20.3487 10.69 20.2516C10.6846 20.2451 10.6792 20.2387 10.6739 20.2325L2.48768 10.5251C2.48371 10.5203 2.47964 10.5155 2.47549 10.5106C2.41727 10.4416 2.34286 10.3535 2.2821 10.2693C2.20972 10.1691 2.11453 10.0193 2.05676 9.81914C1.98108 9.55698 1.98108 9.27886 2.05676 9.0167C2.11453 8.81658 2.20972 8.6667 2.2821 8.56649C2.34287 8.48236 2.41728 8.3942 2.4755 8.32523C2.47965 8.32032 2.48371 8.3155 2.48768 8.31079L6.44742 3.61526C6.45167 3.61022 6.45667 3.60418 6.46241 3.59725C6.51867 3.52934 6.64502 3.37683 6.81118 3.26128C6.95066 3.16428 7.1058 3.09258 7.26943 3.04908C7.46372 2.99742 7.6608 2.9991 7.7497 2.99986ZM13.1095 5H10.8905L9.73754 8.41792H14.2625L13.1095 5ZM16.3732 8.41792L15.2202 5H16.1041L18.9864 8.41792H16.3732ZM14.243 10.4179L12 16.7904L9.75698 10.4179H14.243ZM7.62682 8.41792L8.77975 5H7.89589L5.01356 8.41792H7.62682ZM5.01356 10.4179H7.63671L9.51598 15.757L5.01356 10.4179ZM14.484 15.757L16.3633 10.4179H18.9864L14.484 15.757Z" fill="#151515"/>
</svg>
