<svg width="24" height="24" viewBox="0 0 24 24" fill="none" xmlns="http://www.w3.org/2000/svg">
<path fill-rule="evenodd" clip-rule="evenodd" d="M2 3.75C2 3.19772 2.44772 2.75 3 2.75H21C21.5523 2.75 22 3.19772 22 3.75C22 4.30228 21.5523 4.75 21 4.75H20.5V19.5C20.5 20.8807 19.3807 22 18 22H6C4.61929 22 3.5 20.8807 3.5 19.5V4.75H3C2.44772 4.75 2 4.30228 2 3.75ZM5.5 4.75H18.5V19.5C18.5 19.7761 18.2761 20 18 20H6C5.72386 20 5.5 19.7761 5.5 19.5V4.75ZM16.8663 10.3708C17.0711 9.85794 16.8214 9.27612 16.3084 9.07132C15.7955 8.86652 15.2137 9.11629 15.0089 9.6292L13.9883 12.1853L13.1071 9.74397C12.9676 9.35771 12.6062 9.09595 12.1958 9.08392C11.7853 9.07189 11.4092 9.31203 11.2474 9.68946L10.0665 12.4441L8.87241 9.61157C8.65788 9.10266 8.07141 8.86402 7.56249 9.07855C7.05358 9.29309 6.81494 9.87956 7.02947 10.3885L7.49804 11.5C6.94688 11.5013 6.50049 11.9485 6.50049 12.5C6.50049 13.0523 6.9482 13.5 7.50049 13.5H8.34115L9.13724 15.3885C9.29304 15.7581 9.65459 15.9988 10.0557 16C10.4568 16.0012 10.8198 15.7627 10.9778 15.394L12.0866 12.8076L13.0006 15.3395C13.1415 15.7301 13.5092 15.9929 13.9244 15.9999C14.3396 16.0068 14.7159 15.7565 14.8699 15.3708L15.6169 13.5H16.5003C17.0526 13.5 17.5003 13.0523 17.5003 12.5C17.5003 11.9477 17.0526 11.5 16.5003 11.5H16.4155L16.8663 10.3708Z" fill="#151515"/>
</svg>
