<svg width="25" height="24" viewBox="0 0 25 24" fill="none" xmlns="http://www.w3.org/2000/svg">
<path d="M13.3994 2.92969C12.8585 2.93089 12.3719 3.0784 11.9306 3.3359C11.6517 3.4988 11.1282 3.95429 10.2744 4.74219C10.2394 4.77449 9.43451 5.54309 9.02441 5.92969C8.77611 5.92949 7.51631 5.92899 7.39941 5.92969C5.77471 5.93989 4.41141 7.31149 4.39941 8.92969V14.9297C4.41721 16.6132 5.72051 17.9452 7.39941 17.9297C7.47511 17.929 8.73981 17.9293 8.99321 17.9297C9.39201 18.308 10.21 19.0864 10.2432 19.1172C11.0824 19.8973 11.5982 20.3286 11.8682 20.4922C12.3218 20.7672 12.8317 20.9362 13.3994 20.9297C15.0651 20.9105 16.4192 19.5791 16.3994 17.9297L16.3682 11.9297L16.3994 5.92969C16.3978 4.25879 15.0449 2.92609 13.3994 2.92969ZM13.3994 4.92969C13.9437 4.92849 14.3989 5.37469 14.3994 5.92969L14.3682 11.9297L14.3994 17.9297C14.4059 18.4709 13.9703 18.9231 13.3994 18.9297C13.223 18.9317 13.0467 18.894 12.8994 18.8047C12.8071 18.7487 12.2927 18.2755 11.6182 17.6485C11.5784 17.6115 10.1745 16.2955 10.0869 16.2109C9.90051 16.0312 9.65841 15.9297 9.39941 15.9297C9.31111 15.9297 7.53761 15.9284 7.39941 15.9297C6.83971 15.9349 6.40561 15.5143 6.39941 14.9297V8.92969C6.40331 8.40999 6.87151 7.93299 7.39941 7.92969C7.57921 7.92859 9.23011 7.92959 9.39941 7.92969C9.65751 7.92969 9.90071 7.82719 10.0869 7.64849C10.1751 7.56379 11.5757 6.25009 11.6182 6.21089C12.2953 5.58599 12.8427 5.10599 12.9306 5.05469C13.0804 4.96729 13.2298 4.93009 13.3994 4.92969ZM19.5244 7.92969C19.2709 7.89449 19.0259 7.95059 18.8056 8.11719C18.3652 8.45039 18.2537 9.08299 18.5869 9.52349C19.1053 10.2088 19.3994 11.0419 19.3994 11.9297C19.3994 12.8079 19.1032 13.6484 18.5869 14.3359C18.2553 14.7776 18.364 15.4106 18.8056 15.7422C19.2473 16.0738 19.8803 15.9651 20.2119 15.5235C20.986 14.4926 21.3994 13.245 21.3994 11.9297C21.3994 10.6042 20.9918 9.36699 20.2119 8.33589C20.0453 8.11569 19.7779 7.96489 19.5244 7.92969Z" fill="#151515"/>
</svg>
