<svg width="24" height="24" viewBox="0 0 24 24" fill="none" xmlns="http://www.w3.org/2000/svg">
<path fill-rule="evenodd" clip-rule="evenodd" d="M7.9985 5.07288C11.4182 3.09731 15.6908 3.93773 18.1338 6.8758L17.5888 6.72968C17.0554 6.58666 16.507 6.90316 16.364 7.4366C16.221 7.97005 16.5375 8.51843 17.0709 8.66145L19.9614 9.43642C20.2176 9.50512 20.4906 9.46919 20.7204 9.33656C20.9501 9.20393 21.1177 8.98545 21.1863 8.72921L21.9608 5.83699C22.1037 5.3035 21.787 4.75521 21.2536 4.61235C20.7201 4.46949 20.1718 4.78615 20.0289 5.31964L19.8839 5.861C16.8705 1.974 11.3757 0.812145 6.99805 3.34108C4.1206 5.00337 2.38277 7.88197 2.05652 10.9488C1.9981 11.498 2.39595 11.9906 2.94513 12.049C3.49432 12.1074 3.98688 11.7096 4.0453 11.1604C4.30688 8.7014 5.69815 6.40178 7.9985 5.07288ZM21.9326 13.0511C21.9911 12.5019 21.5932 12.0094 21.044 11.9509C20.4949 11.8925 20.0023 12.2904 19.9439 12.8396C19.6823 15.2985 18.291 17.5981 15.9907 18.927C12.5709 20.9026 8.29818 20.0622 5.85518 17.1239L6.40091 17.2703C6.93436 17.4133 7.48274 17.0968 7.62576 16.5633C7.76878 16.0299 7.45228 15.4815 6.91884 15.3385L4.02835 14.5635C3.77213 14.4948 3.49911 14.5307 3.26938 14.6634C3.03965 14.796 2.87204 15.0145 2.80342 15.2707L2.02891 18.1629C1.88605 18.6964 2.20271 19.2447 2.7362 19.3876C3.26969 19.5304 3.81798 19.2138 3.96084 18.6803L4.10567 18.1395C7.11925 22.026 12.6137 23.1877 16.9911 20.6588C19.8686 18.9965 21.6064 16.118 21.9326 13.0511ZM16.8663 10.3708C17.0711 9.85794 16.8214 9.27612 16.3084 9.07132C15.7955 8.86652 15.2137 9.11629 15.0089 9.6292L13.9883 12.1853L13.1071 9.74397C12.9676 9.35771 12.6062 9.09595 12.1958 9.08392C11.7853 9.07189 11.4092 9.31203 11.2474 9.68946L10.0665 12.4441L8.87241 9.61157C8.65788 9.10266 8.07141 8.86402 7.56249 9.07855C7.05358 9.29309 6.81494 9.87956 7.02947 10.3885L7.49804 11.5C6.94688 11.5013 6.50049 11.9485 6.50049 12.5C6.50049 13.0523 6.9482 13.5 7.50049 13.5H8.34115L9.13724 15.3885C9.29304 15.7581 9.65459 15.9988 10.0557 16C10.4568 16.0012 10.8198 15.7627 10.9778 15.394L12.0866 12.8076L13.0006 15.3395C13.1415 15.7301 13.5092 15.9929 13.9244 15.9999C14.3396 16.0068 14.7159 15.7565 14.8699 15.3708L15.6169 13.5H16.5003C17.0526 13.5 17.5003 13.0523 17.5003 12.5C17.5003 11.9477 17.0526 11.5 16.5003 11.5H16.4155L16.8663 10.3708Z" fill="#151515"/>
</svg>
