<svg width="24" height="24" viewBox="0 0 24 24" fill="none" xmlns="http://www.w3.org/2000/svg">
<path d="M13.2587 14.1825C12.8251 14.6357 12.6083 14.8623 12.3503 14.9453C12.1238 15.0182 11.8762 15.0182 11.6497 14.9453C11.3917 14.8623 11.1749 14.6357 10.7413 14.1825L8.12906 11.4519C7.38266 10.6717 7.00946 10.2816 7.00032 9.95132C6.99237 9.66429 7.13312 9.39011 7.38153 9.20872C7.66736 9 8.24082 9 9.38773 9H14.6123C15.7592 9 16.3326 9 16.6185 9.20872C16.8669 9.39011 17.0076 9.66429 16.9997 9.95132C16.9905 10.2816 16.6173 10.6717 15.8709 11.4519L13.2587 14.1825Z" fill="#1B4DF5"/>
</svg>
