<svg width="24" height="24" viewBox="0 0 24 24" fill="none" xmlns="http://www.w3.org/2000/svg">
<path fill-rule="evenodd" clip-rule="evenodd" d="M5.8429 5H18.1561C18.6289 4.99998 19.0404 4.99997 19.3802 5.0267C19.7393 5.05495 20.1036 5.11767 20.4572 5.29117C20.9808 5.54808 21.4136 5.96159 21.6872 6.47873C21.8741 6.83186 21.9414 7.1964 21.9714 7.55034C21.9996 7.8821 21.9995 8.28244 21.9995 8.73492V12.0667C21.9995 12.619 21.5518 13.0667 20.9995 13.0667C20.4472 13.0667 19.9995 12.619 19.9995 12.0667V11.3333H3.99951V15.36C3.99951 15.8625 4.00035 16.1769 4.02046 16.4139C4.03947 16.638 4.07026 16.7016 4.0796 16.7192C4.15111 16.8544 4.26906 16.9712 4.42282 17.0467C4.45426 17.0621 4.5345 17.0938 4.77571 17.1128C5.02754 17.1326 5.35957 17.1333 5.87951 17.1333H11.9995C12.5518 17.1333 12.9995 17.581 12.9995 18.1333C12.9995 18.6856 12.5518 19.1333 11.9995 19.1333H5.84293C5.37015 19.1334 4.95859 19.1334 4.61884 19.1066C4.25975 19.0784 3.89544 19.0157 3.54184 18.8422C3.01822 18.5853 2.58544 18.1717 2.31181 17.6546C2.12496 17.3015 2.05765 16.9369 2.02762 16.583C1.99947 16.2512 1.99949 15.8509 1.99951 15.3985L1.99951 8.77334C1.99951 8.76047 1.99951 8.74765 1.99951 8.73488C1.99949 8.28242 1.99947 7.88209 2.02762 7.55034C2.05765 7.1964 2.12496 6.83186 2.31181 6.47873C2.58544 5.96159 3.01822 5.54808 3.54184 5.29117C3.89544 5.11767 4.25975 5.05495 4.61884 5.0267C4.95858 4.99997 5.37014 4.99998 5.8429 5ZM3.99951 9.33334H19.9995V8.77334C19.9995 8.27083 19.9987 7.95639 19.9786 7.71943C19.9596 7.4953 19.9288 7.43176 19.9194 7.41411C19.8479 7.27896 19.73 7.16213 19.5762 7.08668C19.5448 7.07126 19.4645 7.03951 19.2233 7.02054C18.9715 7.00072 18.6395 7 18.1195 7H5.87951C5.35957 7 5.02754 7.00072 4.77571 7.02054C4.5345 7.03951 4.45426 7.07126 4.42282 7.08668C4.26906 7.16213 4.15111 7.27895 4.0796 7.41411C4.07026 7.43176 4.03947 7.4953 4.02046 7.71943C4.00035 7.95639 3.99951 8.27083 3.99951 8.77334V9.33334ZM21.7198 14.8397C22.1029 15.2375 22.091 15.8706 21.6932 16.2537L18.0932 19.7203C17.7059 20.0932 17.0931 20.0932 16.7059 19.7203L14.9059 17.987C14.5081 17.6039 14.4961 16.9708 14.8792 16.573C15.2623 16.1752 15.8953 16.1633 16.2932 16.5463L17.3995 17.6117L20.3059 14.813C20.7037 14.4299 21.3367 14.4419 21.7198 14.8397Z" fill="#151515"/>
</svg>
