<svg width="24" height="24" viewBox="0 0 24 24" fill="none" xmlns="http://www.w3.org/2000/svg">
<path d="M21.8955 9.74C21.6455 8.95 20.9555 8.4 20.1355 8.34L15.6155 7.99L13.8355 3.73C13.5155 2.97 12.8155 2.5 11.9955 2.5C11.1855 2.5 10.4755 2.97 10.1455 3.72L8.36554 7.98L3.85554 8.33C3.03554 8.39 2.34554 8.94 2.09554 9.73C1.84554 10.52 2.09554 11.38 2.73554 11.91L6.11554 14.74L5.07554 18.97C4.87554 19.77 5.17554 20.6 5.83554 21.09C6.18554 21.35 6.60554 21.49 7.02554 21.49C7.37554 21.49 7.72554 21.4 8.04554 21.21L12.0055 18.87L15.9655 21.21C16.6655 21.62 17.5255 21.58 18.1755 21.09C18.8355 20.6 19.1355 19.77 18.9355 18.97L17.9055 14.71L21.2755 11.91C21.9155 11.38 22.1655 10.52 21.9155 9.73L21.8955 9.74Z" fill="#161616"/>
</svg>
