<svg width="24" height="24" viewBox="0 0 24 24" fill="none" xmlns="http://www.w3.org/2000/svg">
<rect x="1.97705" y="2" width="5.56818" height="5.56818" rx="2" fill="#151515"/>
<path d="M9.43182 4C9.43182 2.89543 10.3272 2 11.4318 2H20C21.1046 2 22 2.89543 22 4V5.56818C22 6.67275 21.1046 7.56818 20 7.56818H11.4318C10.3272 7.56818 9.43182 6.67275 9.43182 5.56818V4Z" fill="#151515"/>
<path d="M9.43182 11C9.43182 9.89543 10.3272 9 11.4318 9H20C21.1046 9 22 9.89543 22 11V12.5682C22 13.6728 21.1046 14.5682 20 14.5682H11.4318C10.3272 14.5682 9.43182 13.6728 9.43182 12.5682V11Z" fill="#151515"/>
<path d="M9.43182 18C9.43182 16.8954 10.3272 16 11.4318 16H20C21.1046 16 22 16.8954 22 18V19.5682C22 20.6728 21.1046 21.5682 20 21.5682H11.4318C10.3272 21.5682 9.43182 20.6728 9.43182 19.5682V18Z" fill="#151515"/>
<rect x="1.97705" y="9.01611" width="5.56818" height="5.56818" rx="2" fill="#151515"/>
<rect x="1.97705" y="16.0317" width="5.56818" height="5.56818" rx="2" fill="#151515"/>
</svg>
