<svg width="24" height="24" viewBox="0 0 24 24" fill="none" xmlns="http://www.w3.org/2000/svg">
<path fill-rule="evenodd" clip-rule="evenodd" d="M3.5 20H3C2.44772 20 2 20.4477 2 21C2 21.5523 2.44772 22 3 22H21C21.5523 22 22 21.5523 22 21C22 20.4477 21.5523 20 21 20H20.5V5.25C20.5 3.86929 19.3807 2.75 18 2.75H6C4.61929 2.75 3.5 3.86929 3.5 5.25V20ZM5.5 20H18.5V5.25C18.5 4.97386 18.2761 4.75 18 4.75H6C5.72386 4.75 5.5 4.97386 5.5 5.25V20ZM16.3084 10.0713C16.8214 10.2761 17.0711 10.8579 16.8663 11.3708L16.4155 12.5H16.5003C17.0526 12.5 17.5003 12.9477 17.5003 13.5C17.5003 14.0523 17.0526 14.5 16.5003 14.5H15.6169L14.8699 16.3708C14.7159 16.7565 14.3396 17.0068 13.9244 16.9999C13.5092 16.9929 13.1415 16.7301 13.0006 16.3395L12.0866 13.8076L10.9778 16.394C10.8198 16.7627 10.4568 17.0012 10.0557 17C9.65459 16.9988 9.29304 16.7581 9.13724 16.3885L8.34115 14.5H7.50049C6.9482 14.5 6.50049 14.0523 6.50049 13.5C6.50049 12.9485 6.94688 12.5013 7.49804 12.5L7.02947 11.3885C6.81494 10.8796 7.05358 10.2931 7.56249 10.0786C8.07141 9.86402 8.65788 10.1027 8.87241 10.6116L10.0665 13.4441L11.2474 10.6895C11.4092 10.312 11.7853 10.0719 12.1958 10.0839C12.6062 10.0959 12.9676 10.3577 13.1071 10.744L13.9883 13.1853L15.0089 10.6292C15.2137 10.1163 15.7955 9.86652 16.3084 10.0713Z" fill="#151515"/>
</svg>
