<svg width="24" height="24" viewBox="0 0 24 24" fill="none" xmlns="http://www.w3.org/2000/svg">
<path fill-rule="evenodd" clip-rule="evenodd" d="M13.2941 15.7059C13.2941 16.2582 12.8464 16.7059 12.2941 16.7059C11.7418 16.7059 11.2941 16.2582 11.2941 15.7059V5.41421L7.70711 9.00122C7.31658 9.39175 6.68342 9.39175 6.29289 9.00122C5.90237 8.6107 5.90237 7.97753 6.29289 7.58701L11.587 2.29289C11.9775 1.90237 12.6107 1.90237 13.0012 2.29289L18.2953 7.58701C18.6859 7.97753 18.6859 8.6107 18.2953 9.00122C17.9048 9.39175 17.2717 9.39175 16.8811 9.00122L13.2941 5.41421V15.7059ZM5 19.9999C4.44772 19.9999 4 20.4477 4 20.9999C4 21.5522 4.44772 21.9999 5 21.9999H19C19.5523 21.9999 20 21.5522 20 20.9999C20 20.4477 19.5523 19.9999 19 19.9999H5Z" fill="#151515"/>
</svg>
