<svg width="24" height="24" viewBox="0 0 24 24" fill="none" xmlns="http://www.w3.org/2000/svg">
<path fill-rule="evenodd" clip-rule="evenodd" d="M2.26303 7.32408C2.45243 7.11757 2.71979 7 3 7H21C21.2802 7 21.5476 7.11757 21.737 7.32408C21.9264 7.53058 22.0204 7.80709 21.9963 8.08625L21.0569 18.9365C21.0569 18.9364 21.0569 18.9365 21.0569 18.9365C20.9858 19.7583 20.6243 20.5324 20.0299 21.1029C19.4342 21.6746 18.6471 21.9997 17.8212 22H6.17925C5.35335 21.9997 4.56579 21.6746 3.97009 21.1029C3.37576 20.5324 3.01422 19.7584 2.94311 18.9365C2.9431 18.9365 2.94311 18.9365 2.94311 18.9365L2.00373 8.08625C1.97956 7.80709 2.07363 7.53058 2.26303 7.32408ZM4.09032 9L4.93565 18.764C4.96615 19.1166 5.12047 19.4349 5.35496 19.6599C5.58809 19.8836 5.88291 19.9999 6.17967 20H17.8203C18.1171 19.9999 18.4119 19.8836 18.645 19.6599C18.8795 19.4349 19.0338 19.1167 19.0644 18.7641L19.9097 9H4.09032Z" fill="#151515"/>
<path fill-rule="evenodd" clip-rule="evenodd" d="M12 4C11.0717 4 10.1815 4.36875 9.52513 5.02513C8.86875 5.6815 8.5 6.57174 8.5 7.5V10.875C8.5 11.4273 8.05228 11.875 7.5 11.875C6.94772 11.875 6.5 11.4273 6.5 10.875V7.5C6.5 6.04131 7.07946 4.64236 8.11091 3.61091C9.14236 2.57946 10.5413 2 12 2C13.4587 2 14.8576 2.57946 15.8891 3.61091C16.9205 4.64236 17.5 6.04131 17.5 7.5V10.875C17.5 11.4273 17.0523 11.875 16.5 11.875C15.9477 11.875 15.5 11.4273 15.5 10.875V7.5C15.5 6.57174 15.1313 5.6815 14.4749 5.02513C13.8185 4.36875 12.9283 4 12 4Z" fill="#151515"/>
</svg>
