<svg width="24" height="24" viewBox="0 0 24 24" fill="none" xmlns="http://www.w3.org/2000/svg">
<path d="M21.8955 9.74C21.6455 8.95 20.9555 8.4 20.1355 8.34L15.6155 7.99L13.8355 3.73C13.5155 2.97 12.8155 2.5 11.9955 2.5C11.1855 2.5 10.4755 2.97 10.1455 3.72L8.36554 7.98L3.85554 8.33C3.03554 8.39 2.34554 8.95 2.09554 9.73C1.84554 10.52 2.09554 11.38 2.73554 11.91L6.11554 14.74L5.07554 18.97C4.87554 19.77 5.17554 20.6 5.83554 21.09C6.18554 21.35 6.60554 21.49 7.02554 21.49C7.37554 21.49 7.72554 21.4 8.04554 21.21L12.0055 18.87L15.9655 21.21C16.6555 21.62 17.5255 21.58 18.1755 21.09C18.8355 20.6 19.1355 19.77 18.9355 18.97L17.9055 14.7L21.2755 11.9C21.9155 11.37 22.1655 10.51 21.9155 9.72L21.8955 9.74ZM16.6055 13.18C16.3155 13.42 16.0955 13.74 15.9755 14.11C15.8555 14.47 15.8455 14.86 15.9355 15.23L16.9655 19.5L13.0055 17.16C12.6955 16.98 12.3455 16.88 11.9855 16.88C11.6255 16.88 11.2755 16.98 10.9655 17.16L6.99554 19.47L8.03554 15.24C8.12554 14.87 8.10554 14.48 7.99554 14.12C7.87554 13.76 7.65554 13.44 7.36554 13.19L3.99554 10.34L8.50554 9.99C8.87554 9.96 9.22554 9.83 9.52554 9.62C9.82554 9.41 10.0555 9.12 10.2055 8.77L11.9755 4.52L11.0555 4.14L11.9855 4.52L13.7655 8.78C13.9055 9.12 14.1455 9.41 14.4355 9.62C14.7355 9.84 15.0855 9.97 15.4555 9.99L19.9755 10.39L16.6055 13.19V13.18Z" fill="#161616"/>
</svg>
