<svg width="24" height="24" viewBox="0 0 24 24" fill="none" xmlns="http://www.w3.org/2000/svg">
<path fill-rule="evenodd" clip-rule="evenodd" d="M12 4C7.58172 4 4 7.58172 4 12C4 16.4183 7.58172 20 12 20C16.4183 20 20 16.4183 20 12C20 7.58172 16.4183 4 12 4ZM2 12C2 6.47715 6.47715 2 12 2C17.5228 2 22 6.47715 22 12C22 17.5228 17.5228 22 12 22C6.47715 22 2 17.5228 2 12ZM14.2349 9.76514L10.8826 10.8826L9.76514 14.2349L13.1174 13.1174L14.2349 9.76514ZM14.7341 7.50752C14.9025 7.46795 15.2339 7.40224 15.5915 7.52975C16.0015 7.67594 16.3241 7.99854 16.4702 8.40849C16.5978 8.76606 16.5321 9.09755 16.4925 9.26593C16.4517 9.43959 16.3838 9.64293 16.3198 9.83478L14.9705 13.8827C14.9684 13.8892 14.9658 13.897 14.9629 13.906C14.9345 13.9941 14.8699 14.1943 14.749 14.3709C14.6475 14.5193 14.5193 14.6475 14.3709 14.749C14.1943 14.8699 13.9941 14.9345 13.906 14.9629C13.897 14.9658 13.8892 14.9684 13.8827 14.9705L9.86633 16.3093C9.85585 16.3128 9.84533 16.3163 9.83477 16.3198C9.64292 16.3838 9.43959 16.4517 9.26593 16.4925C9.09754 16.5321 8.76606 16.5978 8.40849 16.4702C7.99854 16.3241 7.67594 16.0015 7.52975 15.5915C7.40224 15.2339 7.46795 14.9025 7.50752 14.7341C7.54832 14.5604 7.61616 14.3571 7.68016 14.1652C7.68368 14.1547 7.68719 14.1442 7.69068 14.1337L9.02947 10.1173C9.03165 10.1108 9.03417 10.103 9.03708 10.094C9.06551 10.0059 9.13014 9.80574 9.25097 9.6291C9.35248 9.4807 9.4807 9.35248 9.6291 9.25097C9.80575 9.13013 10.0059 9.06551 10.094 9.03708C10.103 9.03417 10.1108 9.03165 10.1173 9.02947L14.1337 7.69068C14.1442 7.68719 14.1547 7.68367 14.1653 7.68015C14.3571 7.61615 14.5604 7.54832 14.7341 7.50752Z" fill="#151515"/>
</svg>
