<svg width="24" height="24" viewBox="0 0 24 24" fill="none" xmlns="http://www.w3.org/2000/svg">
<path d="M8.03149 2.5C7.47949 2.5 7.03149 2.948 7.03149 3.5C4.82049 3.5 3.00049 5.293 3.00049 7.5V9.5L3.03149 17.5C3.03149 19.706 4.82249 21.5 7.03149 21.5H17.0315C19.2405 21.5 21.0315 19.709 21.0315 17.5L21.0005 9.5V7.5C21.0005 5.289 19.2385 3.5 17.0315 3.5C17.0315 2.948 16.5845 2.5 16.0315 2.5C15.4795 2.5 15.0315 2.948 15.0315 3.5H9.03149C9.03149 2.948 8.58449 2.5 8.03149 2.5ZM7.03149 5.5C7.03149 6.052 7.47949 6.5 8.03149 6.5C8.58449 6.5 9.03149 6.052 9.03149 5.5H15.0315C15.0315 6.052 15.4795 6.5 16.0315 6.5C16.5845 6.5 17.0315 6.052 17.0315 5.5C18.1285 5.5 19.0005 6.388 19.0005 7.5V8.5C17.0765 8.5 6.92449 8.5 5.00049 8.5V7.5C5.00049 6.403 5.91949 5.5 7.03149 5.5ZM5.00049 10.5C6.92449 10.5 17.0765 10.5 19.0005 10.5L19.0315 17.5C19.0315 18.601 18.1365 19.5 17.0315 19.5H7.03149C5.92749 19.5 5.03149 18.605 5.03149 17.5L5.00049 10.5Z" fill="#151515"/>
</svg>
