<svg width="24" height="24" viewBox="0 0 24 24" fill="none" xmlns="http://www.w3.org/2000/svg">
<path d="M12.0146 1.9989C6.49165 1.9989 2.01465 6.4759 2.01465 11.9989C2.01465 13.2709 2.27664 14.5599 2.73364 15.7179L3.51465 17.3109C4.00965 18.3399 3.83565 19.3099 3.17065 20.4989C2.80365 21.1569 3.26165 21.9499 4.01465 21.9679C5.03165 21.9909 6.72165 21.6669 8.01465 21.1869C9.20865 21.7379 10.6826 21.9989 12.0146 21.9989C17.5376 21.9989 22.0146 17.5219 22.0146 11.9989C22.0146 6.4759 17.5376 1.9989 12.0146 1.9989ZM12.0146 3.9989C16.4326 3.9989 20.0146 7.5809 20.0146 11.9989C20.0146 16.4169 16.4326 19.9989 12.0146 19.9989C10.8646 19.9989 9.41965 19.7029 8.51465 19.2179C8.24665 19.0739 7.91865 19.0359 7.63965 19.1549C7.00165 19.4279 6.35764 19.6329 5.60864 19.7799C5.90864 18.7289 5.81965 17.5259 5.29565 16.4369L4.54565 14.9049C4.21265 14.0529 4.01465 13.0189 4.01465 11.9989C4.01465 7.5809 7.59665 3.9989 12.0146 3.9989ZM8.01465 10.9989C7.46265 10.9989 7.01465 11.4469 7.01465 11.9989C7.01465 12.5509 7.46265 12.9989 8.01465 12.9989C8.56665 12.9989 9.01465 12.5509 9.01465 11.9989C9.01465 11.4469 8.56665 10.9989 8.01465 10.9989ZM12.0146 10.9989C11.4626 10.9989 11.0146 11.4469 11.0146 11.9989C11.0146 12.5509 11.4626 12.9989 12.0146 12.9989C12.5666 12.9989 13.0146 12.5509 13.0146 11.9989C13.0146 11.4469 12.5666 10.9989 12.0146 10.9989ZM16.0146 10.9989C15.4626 10.9989 15.0146 11.4469 15.0146 11.9989C15.0146 12.5509 15.4626 12.9989 16.0146 12.9989C16.5666 12.9989 17.0146 12.5509 17.0146 11.9989C17.0146 11.4469 16.5666 10.9989 16.0146 10.9989Z" fill="#151515"/>
</svg>
