<svg width="24" height="24" viewBox="0 0 24 24" fill="none" xmlns="http://www.w3.org/2000/svg">
<path fill-rule="evenodd" clip-rule="evenodd" d="M5.8437 5L18.1563 5C18.6293 4.99998 19.0405 4.99997 19.3798 5.02637C19.7381 5.05425 20.1012 5.11608 20.4538 5.28718C20.9764 5.54078 21.4104 5.94998 21.6856 6.46429C21.8739 6.81631 21.9416 7.17975 21.9718 7.53145C22 7.8605 22 8.25727 22 8.7042V15.2958C22 15.7427 22 16.1395 21.9718 16.4686C21.9416 16.8203 21.8739 17.1837 21.6856 17.5357C21.4104 18.05 20.9764 18.4592 20.4538 18.7128C20.1012 18.8839 19.7381 18.9458 19.3798 18.9736C19.0405 19 18.6293 19 18.1563 19L5.84371 19C5.37067 19 4.95949 19 4.62019 18.9736C4.26191 18.9458 3.89883 18.8839 3.54624 18.7128C3.02364 18.4592 2.5896 18.05 2.31445 17.5357C2.12612 17.1837 2.05836 16.8203 2.02819 16.4686C1.99996 16.1395 1.99998 15.7427 2 15.2958L2 10.2863C2 10.2861 2 10.2865 2 10.2863C2 10.2861 2 10.2853 2 10.2852V8.74286C2 8.72992 2 8.71703 2 8.70418C1.99998 8.25725 1.99996 7.86049 2.02819 7.53144C2.05836 7.17974 2.12612 6.81631 2.31445 6.46428C2.58961 5.94998 3.02364 5.54078 3.54625 5.28718C3.89883 5.11608 4.26191 5.05425 4.62019 5.02637C4.95949 4.99997 5.37066 4.99998 5.8437 5ZM4 11.2857V15.2571C4 15.7545 4.00086 16.0644 4.02087 16.2976C4.03974 16.5176 4.07008 16.5776 4.07793 16.5923C4.14792 16.7231 4.26461 16.8384 4.41939 16.9135C4.45185 16.9292 4.53331 16.9608 4.77534 16.9797C5.0277 16.9993 5.36023 17 5.88 17L18.12 17C18.6398 17 18.9723 16.9993 19.2247 16.9797C19.4667 16.9608 19.5482 16.9292 19.5806 16.9135C19.7354 16.8384 19.8521 16.7231 19.9221 16.5923C19.9299 16.5776 19.9603 16.5176 19.9791 16.2976C19.9991 16.0644 20 15.7545 20 15.2571V11.2857H4ZM20 9.28572H4V8.74286C4 8.2455 4.00086 7.93561 4.02087 7.70239C4.03974 7.48237 4.07008 7.42243 4.07793 7.40775C4.14792 7.27693 4.26461 7.16163 4.41939 7.08652C4.45185 7.07077 4.53331 7.03918 4.77534 7.02034C5.0277 7.00071 5.36023 7 5.88 7L18.12 7C18.6398 7 18.9723 7.00071 19.2247 7.02034C19.4667 7.03918 19.5482 7.07077 19.5806 7.08652C19.7354 7.16163 19.8521 7.27693 19.9221 7.40775C19.9299 7.42243 19.9603 7.48237 19.9791 7.70239C19.9991 7.93561 20 8.2455 20 8.74286V9.28572Z" fill="#151515"/>
</svg>
