<svg width="24" height="24" viewBox="0 0 24 24" fill="none" xmlns="http://www.w3.org/2000/svg">
<path fill-rule="evenodd" clip-rule="evenodd" d="M5.84263 5H18.1564C18.6289 4.99998 19.0408 4.99997 19.3809 5.02698C19.7407 5.05557 20.1061 5.11907 20.4606 5.29466C20.9851 5.55447 21.4167 5.97172 21.6891 6.49132C21.8746 6.84542 21.9416 7.21093 21.9715 7.56686C21.9996 7.90098 21.9995 8.30445 21.9995 8.76175V10.375C21.9995 10.9273 21.5518 11.375 20.9995 11.375H3.99951V15.45C3.99951 15.957 4.00034 16.2754 4.02052 16.5157C4.03966 16.7434 4.07082 16.81 4.08143 16.8303C4.15426 16.9693 4.27332 17.0874 4.42622 17.1632C4.4568 17.1783 4.53597 17.2102 4.77646 17.2293C5.02783 17.2493 5.35942 17.25 5.87951 17.25H11.0995C11.6518 17.25 12.0995 17.6977 12.0995 18.25C12.0995 18.8023 11.6518 19.25 11.0995 19.25H5.84263C5.3701 19.25 4.95822 19.25 4.61809 19.223C4.25828 19.1944 3.89291 19.1309 3.53844 18.9553C3.01396 18.6955 2.58228 18.2783 2.30997 17.7587C2.1244 17.4046 2.05746 17.0391 2.02755 16.6831C1.99947 16.349 1.99949 15.9456 1.99951 15.4883L1.99951 8.8C1.99951 8.78721 1.99951 8.77445 1.99951 8.76174C1.99949 8.30444 1.99947 7.90097 2.02755 7.56686C2.05746 7.21093 2.1244 6.84542 2.30997 6.49132C2.58228 5.97172 3.01396 5.55447 3.53844 5.29466C3.89291 5.11907 4.25828 5.05557 4.61809 5.02698C4.95821 4.99997 5.3701 4.99998 5.84263 5ZM3.99951 9.375H19.9995V8.8C19.9995 8.29299 19.9987 7.97458 19.9785 7.73435C19.9594 7.50665 19.9282 7.43997 19.9176 7.41972C19.8448 7.28075 19.7257 7.16257 19.5728 7.08682C19.5422 7.07168 19.4631 7.03981 19.2226 7.0207C18.9712 7.00074 18.6396 7 18.1195 7H5.87951C5.35942 7 5.02783 7.00074 4.77646 7.0207C4.53597 7.03981 4.4568 7.07168 4.42622 7.08682C4.27332 7.16257 4.15426 7.28075 4.08143 7.41972C4.07082 7.43997 4.03966 7.50665 4.02052 7.73435C4.00034 7.97458 3.99951 8.29299 3.99951 8.8V9.375ZM18.0524 13.158C18.9376 12.2974 20.3614 12.2974 21.2466 13.158C22.1475 14.0339 22.1475 15.4661 21.2466 16.342L17.5049 19.9798C17.4972 19.9873 17.4891 19.9951 17.4809 20.0032C17.3925 20.0895 17.2734 20.2059 17.1319 20.3018C17.0096 20.3847 16.8783 20.4529 16.7408 20.5054C16.5822 20.5659 16.4192 20.5972 16.2963 20.6208C16.2848 20.623 16.2736 20.6252 16.2629 20.6272L14.4404 20.9816C14.1122 21.0454 13.7737 20.941 13.5386 20.7033C13.3034 20.4655 13.2026 20.126 13.27 19.7985L13.6345 18.0267C13.6367 18.0163 13.6389 18.0054 13.6412 17.9941C13.6653 17.8752 13.6988 17.7103 13.7634 17.5502C13.8192 17.412 13.8912 17.2812 13.9778 17.1605C14.0776 17.0213 14.1981 16.9048 14.2865 16.8192C14.2949 16.8111 14.303 16.8033 14.3107 16.7958L18.0524 13.158ZM19.8524 14.592C19.7435 14.4861 19.5555 14.4861 19.4466 14.592L15.7049 18.2298C15.6755 18.2583 15.6531 18.2801 15.6339 18.299C15.6277 18.3052 15.6222 18.3106 15.6174 18.3154C15.6162 18.321 15.6148 18.3272 15.6134 18.3341C15.6078 18.36 15.6016 18.39 15.5935 18.4297L15.5313 18.732L15.8811 18.664C15.9218 18.6561 15.953 18.65 15.98 18.6446C15.9945 18.6417 16.0063 18.6392 16.0159 18.6372C16.0224 18.6311 16.0301 18.6237 16.0395 18.6148C16.059 18.5961 16.0814 18.5743 16.1107 18.5458L19.8524 14.908C19.9456 14.8174 19.9456 14.6826 19.8524 14.592Z" fill="#151515"/>
</svg>
