<svg width="24" height="24" viewBox="0 0 24 24" fill="none" xmlns="http://www.w3.org/2000/svg">
<path d="M13.5 4.75C13.5 5.7165 12.7165 6.5 11.75 6.5C10.7835 6.5 10 5.7165 10 4.75C10 3.7835 10.7835 3 11.75 3C12.7165 3 13.5 3.7835 13.5 4.75Z" fill="#151515"/>
<path d="M13.5 12C13.5 12.9665 12.7165 13.75 11.75 13.75C10.7835 13.75 10 12.9665 10 12C10 11.0335 10.7835 10.25 11.75 10.25C12.7165 10.25 13.5 11.0335 13.5 12Z" fill="#151515"/>
<path d="M11.75 21C12.7165 21 13.5 20.2165 13.5 19.25C13.5 18.2835 12.7165 17.5 11.75 17.5C10.7835 17.5 10 18.2835 10 19.25C10 20.2165 10.7835 21 11.75 21Z" fill="#151515"/>
</svg>
