<svg width="24" height="24" viewBox="0 0 24 24" fill="none" xmlns="http://www.w3.org/2000/svg">
<path fill-rule="evenodd" clip-rule="evenodd" d="M14.0262 2.45404C15.2643 1.7295 16.8526 2.15834 17.5618 3.4035C18.055 4.26947 17.9962 5.30802 17.4952 6.10058L18.3749 6.10057C20.0561 6.10056 21.3982 7.47868 21.3982 9.15291V18.846C21.3982 20.5202 20.0561 21.8983 18.3749 21.8983H5.62487C3.94365 21.8983 2.6015 20.5201 2.60156 18.8459L2.60157 9.15312C2.6015 7.47886 3.94363 6.10068 5.62485 6.10067L6.53888 6.10066C6.03791 5.30808 5.9792 4.26954 6.47238 3.40365C7.18165 2.15838 8.76998 1.7297 10.0079 2.45419C10.3079 2.62975 10.572 2.90807 10.7745 3.14905C10.992 3.40787 11.2056 3.70615 11.3973 3.99391C11.6336 4.34858 11.8503 4.70811 12.0167 4.99617C12.1819 4.70915 12.3971 4.3508 12.6324 3.99686C12.8236 3.70917 13.0372 3.41064 13.2556 3.15106C13.4597 2.90849 13.7247 2.63054 14.0262 2.45404ZM10.3154 5.64713C10.1921 5.44085 10.0508 5.21328 9.90208 4.99003C9.73028 4.73213 9.55765 4.4937 9.39904 4.30497C9.32006 4.211 9.25101 4.13708 9.19327 4.08249C9.16482 4.05558 9.14189 4.036 9.12454 4.02239C9.10829 4.00963 9.10023 4.00471 9.10023 4.0047C9.10011 4.00463 9.10024 4.0047 9.10023 4.0047C8.72838 3.78708 8.24913 3.91439 8.03357 4.29285C7.81397 4.67841 7.94966 5.1806 8.32869 5.40243C8.32867 5.40242 8.32868 5.40242 8.32869 5.40243C8.32923 5.40273 8.33817 5.40775 8.35818 5.41608C8.37883 5.42469 8.40718 5.43513 8.44433 5.44669C8.5197 5.47016 8.61695 5.49385 8.73608 5.51615C8.97544 5.56097 9.26368 5.593 9.56835 5.61445C9.82579 5.63257 10.0831 5.64234 10.3154 5.64713ZM11.2562 7.89728L5.62486 7.89733C4.95885 7.89733 4.3982 8.44801 4.39822 9.15306L4.39836 12.9826H11.2562V7.89728ZM11.2562 14.7792H4.39836L4.39822 18.8459C4.3982 19.551 4.95885 20.1016 5.62487 20.1016H11.2562V14.7792ZM13.0529 20.1016V14.7792H19.6016V18.846C19.6016 19.551 19.0409 20.1016 18.3749 20.1016H13.0529ZM19.6016 12.9826H13.0529V7.89727L18.3749 7.89723C19.0409 7.89722 19.6016 8.44788 19.6016 9.15291V12.9826ZM13.7182 5.64594C13.9515 5.64075 14.2102 5.63052 14.4688 5.61204C14.7745 5.59021 15.0636 5.55796 15.3031 5.51329C15.4224 5.49105 15.5194 5.46753 15.5942 5.44436C15.6311 5.43294 15.6589 5.42272 15.6789 5.41442C15.6976 5.40668 15.7057 5.40216 15.7057 5.40217C16.0847 5.18035 16.2202 4.67829 16.0006 4.2927C15.785 3.91426 15.3056 3.78704 14.9337 4.00467C14.9332 4.005 14.9243 4.01044 14.9069 4.02406C14.8889 4.03808 14.8656 4.05798 14.8369 4.08506C14.7786 4.13999 14.7093 4.21403 14.6303 4.30789C14.4716 4.49645 14.2996 4.73425 14.1286 4.99144C13.9808 5.21377 13.8406 5.44033 13.7182 5.64594Z" fill="#151515"/>
</svg>
