<svg width="24" height="24" viewBox="0 0 24 24" fill="none" xmlns="http://www.w3.org/2000/svg">
<path fill-rule="evenodd" clip-rule="evenodd" d="M9.3526 3.39999C9.90488 3.39999 10.3526 2.95228 10.3526 2.39999C10.3526 1.84771 9.90488 1.39999 9.3526 1.39999H2.40087C1.84858 1.39999 1.40087 1.84771 1.40087 2.39999V9.35172C1.40087 9.90401 1.84858 10.3517 2.40087 10.3517C2.95315 10.3517 3.40087 9.90401 3.40087 9.35172V4.81421L9.80411 11.2175C10.1946 11.608 10.8278 11.608 11.2183 11.2175C11.6089 10.8269 11.6088 10.1938 11.2183 9.80324L4.81508 3.39999H9.3526ZM12.7822 12.7825C12.3916 13.1731 12.3916 13.8062 12.7822 14.1967L19.1854 20.6H14.6479C14.0956 20.6 13.6479 21.0477 13.6479 21.6C13.6479 22.1523 14.0956 22.6 14.6479 22.6H21.5996C22.1519 22.6 22.5996 22.1523 22.5996 21.6V14.6483C22.5996 14.096 22.1519 13.6483 21.5996 13.6483C21.0473 13.6483 20.5996 14.096 20.5996 14.6483V19.1858L14.1964 12.7825C13.8058 12.392 13.1727 12.392 12.7822 12.7825Z" fill="#151515"/>
</svg>
