<svg width="24" height="24" viewBox="0 0 24 24" fill="none" xmlns="http://www.w3.org/2000/svg">
<path d="M7.66719 9C7.77764 9 7.86719 9.08954 7.86719 9.2V14.4563C7.86719 14.5667 7.77764 14.6562 7.66719 14.6562H6.73016C6.66433 14.6562 6.60271 14.6238 6.56539 14.5696L4.53107 11.6127C4.52629 11.6057 4.5184 11.6016 4.50998 11.6016C4.49584 11.6016 4.48438 11.613 4.48438 11.6272V14.4563C4.48438 14.5667 4.39483 14.6562 4.28437 14.6562H3.2C3.08954 14.6562 3 14.5667 3 14.4563V9.2C3 9.08954 3.08954 9 3.2 9H4.15987C4.22603 9 4.28791 9.03272 4.32516 9.0874L6.32681 12.0257C6.33252 12.034 6.34201 12.0391 6.35215 12.0391C6.36908 12.0391 6.38281 12.0253 6.38281 12.0084V9.2C6.38281 9.08954 6.47236 9 6.58281 9H7.66719Z" fill="url(#paint0_linear_365_12065)"/>
<path d="M8.67281 14.6562C8.56236 14.6562 8.47281 14.5667 8.47281 14.4563V9.2C8.47281 9.08954 8.56236 9 8.67281 9H12.3119C12.4223 9 12.5119 9.08954 12.5119 9.2V10.0031C12.5119 10.1136 12.4223 10.2031 12.3119 10.2031H10.1572C10.0467 10.2031 9.95719 10.2927 9.95719 10.4031V11.0266C9.95719 11.137 10.0467 11.2266 10.1572 11.2266H12.1009C12.2114 11.2266 12.3009 11.3161 12.3009 11.4266V12.2297C12.3009 12.3401 12.2114 12.4297 12.1009 12.4297H10.1572C10.0467 12.4297 9.95719 12.5192 9.95719 12.6297V13.2531C9.95719 13.3636 10.0467 13.4531 10.1572 13.4531H12.3041C12.4145 13.4531 12.5041 13.5427 12.5041 13.6531V14.4563C12.5041 14.5667 12.4145 14.6562 12.3041 14.6562H8.67281Z" fill="url(#paint1_linear_365_12065)"/>
<path d="M14.6968 14.6562C14.6081 14.6562 14.53 14.5978 14.505 14.5127L12.9586 9.25645C12.9209 9.12835 13.0169 9 13.1504 9H14.3794C14.4729 9 14.554 9.06482 14.5745 9.15607L15.331 12.5158C15.3341 12.5294 15.3462 12.5391 15.3601 12.5391C15.3737 12.5391 15.3855 12.5299 15.389 12.5168L16.2736 9.14919C16.2967 9.06128 16.3762 9 16.4671 9H17.4712C17.562 9 17.6414 9.06119 17.6646 9.149L18.557 12.5325C18.5604 12.5456 18.5723 12.5547 18.5858 12.5547C18.5998 12.5547 18.6119 12.545 18.6149 12.5314L19.3715 9.15625C19.392 9.06492 19.4731 9 19.5667 9H20.7955C20.929 9 21.0251 9.12835 20.9874 9.25645L19.441 14.5127C19.4159 14.5978 19.3378 14.6562 19.2491 14.6562H18.1176C18.0294 14.6562 17.9516 14.5985 17.9261 14.5141L16.9993 11.4443C16.9953 11.431 16.983 11.4219 16.9691 11.4219C16.9551 11.4219 16.9429 11.431 16.9389 11.4443L16.012 14.5141C15.9865 14.5985 15.9087 14.6562 15.8205 14.6562H14.6968Z" fill="url(#paint2_linear_365_12065)"/>
<defs>
<linearGradient id="paint0_linear_365_12065" x1="3" y1="11.8281" x2="21.0628" y2="11.8281" gradientUnits="userSpaceOnUse">
<stop stop-color="#5996FF"/>
<stop offset="1" stop-color="#6F28C8"/>
</linearGradient>
<linearGradient id="paint1_linear_365_12065" x1="3" y1="11.8281" x2="21.0628" y2="11.8281" gradientUnits="userSpaceOnUse">
<stop stop-color="#5996FF"/>
<stop offset="1" stop-color="#6F28C8"/>
</linearGradient>
<linearGradient id="paint2_linear_365_12065" x1="3" y1="11.8281" x2="21.0628" y2="11.8281" gradientUnits="userSpaceOnUse">
<stop stop-color="#5996FF"/>
<stop offset="1" stop-color="#6F28C8"/>
</linearGradient>
</defs>
</svg>
