<svg width="24" height="24" viewBox="0 0 24 24" fill="none" xmlns="http://www.w3.org/2000/svg">
<path fill-rule="evenodd" clip-rule="evenodd" d="M9.27454 4.2815C9.4586 4.10664 9.71871 4 10 4H14C14.2813 4 14.5414 4.10664 14.7255 4.2815C14.9078 4.4547 15 4.67834 15 4.9V6.5H9V4.9C9 4.67834 9.09222 4.4547 9.27454 4.2815ZM7 6.5V4.9C7 4.11384 7.32921 3.37093 7.89704 2.8315C8.46312 2.29372 9.22043 2 10 2H14C14.7796 2 15.5369 2.29372 16.103 2.8315C16.6708 3.37093 17 4.11384 17 4.9V6.5H19H21C21.5523 6.5 22 6.94772 22 7.5C22 8.05228 21.5523 8.5 21 8.5H20V19.1C20 19.8862 19.6708 20.6291 19.103 21.1685C18.5369 21.7063 17.7796 22 17 22H7C6.22043 22 5.46312 21.7063 4.89704 21.1685C4.32921 20.6291 4 19.8862 4 19.1V8.5H3C2.44772 8.5 2 8.05228 2 7.5C2 6.94772 2.44772 6.5 3 6.5H5H7ZM6 8.5V19.1C6 19.3217 6.09221 19.5453 6.27454 19.7185C6.4586 19.8934 6.71871 20 7 20H17C17.2813 20 17.5414 19.8934 17.7255 19.7185C17.9078 19.5453 18 19.3217 18 19.1V8.5H6ZM10 10C10.5523 10 11 10.4477 11 11V17C11 17.5523 10.5523 18 10 18C9.44772 18 9 17.5523 9 17V11C9 10.4477 9.44772 10 10 10ZM15 11C15 10.4477 14.5523 10 14 10C13.4477 10 13 10.4477 13 11V17C13 17.5523 13.4477 18 14 18C14.5523 18 15 17.5523 15 17V11Z" fill="#151515"/>
</svg>
