<svg width="24" height="24" viewBox="0 0 24 24" fill="none" xmlns="http://www.w3.org/2000/svg">
<path d="M4.2 14.7344C4.08954 14.7344 4 14.6448 4 14.5344V9.27812C4 9.16767 4.08954 9.07812 4.2 9.07812H5.28437C5.39483 9.07812 5.48438 9.16767 5.48438 9.27813V11.1047C5.48438 11.2151 5.57392 11.3047 5.68438 11.3047H7.37031C7.48077 11.3047 7.57031 11.2151 7.57031 11.1047V9.27812C7.57031 9.16767 7.65986 9.07812 7.77031 9.07812H8.8625C8.97296 9.07812 9.0625 9.16767 9.0625 9.27813V14.5344C9.0625 14.6448 8.97296 14.7344 8.8625 14.7344H7.77031C7.65986 14.7344 7.57031 14.6448 7.57031 14.5344V12.7078C7.57031 12.5974 7.48077 12.5078 7.37031 12.5078H5.68438C5.57392 12.5078 5.48438 12.5974 5.48438 12.7078V14.5344C5.48438 14.6448 5.39483 14.7344 5.28437 14.7344H4.2Z" fill="url(#paint0_linear_365_12072)"/>
<path d="M15.0978 11.9062C15.0978 13.7891 13.8908 14.8125 12.3634 14.8125C10.8205 14.8125 9.62516 13.7773 9.62125 11.9062C9.62516 10.0234 10.8205 9 12.3634 9C13.8908 9 15.0978 10.0234 15.0978 11.9062ZM11.1525 11.9062C11.1525 12.9453 11.5822 13.5117 12.3634 13.5156C13.1369 13.5117 13.5705 12.9453 13.5666 11.9062C13.5705 10.8633 13.1369 10.2969 12.3634 10.2969C11.5822 10.2969 11.1525 10.8633 11.1525 11.9062Z" fill="url(#paint1_linear_365_12072)"/>
<path d="M15.4347 10.2812C15.3242 10.2812 15.2347 10.1917 15.2347 10.0812V9.27813C15.2347 9.16767 15.3242 9.07812 15.4347 9.07812H19.9097C20.0201 9.07812 20.1097 9.16767 20.1097 9.27812V10.0812C20.1097 10.1917 20.0201 10.2812 19.9097 10.2812H18.6066C18.4961 10.2812 18.4066 10.3708 18.4066 10.4813V14.5344C18.4066 14.6448 18.317 14.7344 18.2066 14.7344H17.1378C17.0274 14.7344 16.9378 14.6448 16.9378 14.5344V10.4812C16.9378 10.3708 16.8483 10.2812 16.7378 10.2812H15.4347Z" fill="url(#paint2_linear_365_12072)"/>
<defs>
<linearGradient id="paint0_linear_365_12072" x1="4" y1="11.9062" x2="20.1097" y2="11.9062" gradientUnits="userSpaceOnUse">
<stop stop-color="#FF2643"/>
<stop offset="1" stop-color="#6F28C8"/>
</linearGradient>
<linearGradient id="paint1_linear_365_12072" x1="4" y1="11.9062" x2="20.1097" y2="11.9062" gradientUnits="userSpaceOnUse">
<stop stop-color="#FF2643"/>
<stop offset="1" stop-color="#6F28C8"/>
</linearGradient>
<linearGradient id="paint2_linear_365_12072" x1="4" y1="11.9062" x2="20.1097" y2="11.9062" gradientUnits="userSpaceOnUse">
<stop stop-color="#FF2643"/>
<stop offset="1" stop-color="#6F28C8"/>
</linearGradient>
</defs>
</svg>
