<svg width="25" height="24" viewBox="0 0 25 24" fill="none" xmlns="http://www.w3.org/2000/svg">
<path fill-rule="evenodd" clip-rule="evenodd" d="M12.6001 3C13.1524 3 13.6001 3.44772 13.6001 4V20C13.6001 20.5523 13.1524 21 12.6001 21C12.0478 21 11.6001 20.5523 11.6001 20V4C11.6001 3.44772 12.0478 3 12.6001 3ZM16.6001 6C17.1524 6 17.6001 6.44772 17.6001 7L17.6001 17C17.6001 17.5523 17.1524 18 16.6001 18C16.0478 18 15.6001 17.5523 15.6001 17L15.6001 7C15.6001 6.44771 16.0478 6 16.6001 6ZM8.6001 6C9.15238 6 9.6001 6.44772 9.6001 7V17C9.6001 17.5523 9.15238 18 8.6001 18C8.04781 18 7.6001 17.5523 7.6001 17V7C7.6001 6.44772 8.04781 6 8.6001 6ZM4.6001 8C5.15238 8 5.6001 8.44772 5.6001 9V15C5.6001 15.5523 5.15238 16 4.6001 16C4.04781 16 3.6001 15.5523 3.6001 15V9C3.6001 8.44772 4.04781 8 4.6001 8ZM20.6001 8C21.1524 8 21.6001 8.44772 21.6001 9V15C21.6001 15.5523 21.1524 16 20.6001 16C20.0478 16 19.6001 15.5523 19.6001 15V9C19.6001 8.44772 20.0478 8 20.6001 8Z" fill="#151515"/>
</svg>
