<svg width="24" height="24" viewBox="0 0 24 24" fill="none" xmlns="http://www.w3.org/2000/svg">
<path fill-rule="evenodd" clip-rule="evenodd" d="M8.18986 2.95243C8.18986 2.69983 8.2902 2.45757 8.46882 2.27896C8.64743 2.10034 8.88969 2 9.14229 2H14.8568C15.1094 2 15.3517 2.10034 15.5303 2.27896C15.7089 2.45757 15.8093 2.69983 15.8093 2.95243C15.8093 3.20502 15.7089 3.44728 15.5303 3.62589C15.3517 3.80451 15.1094 3.90485 14.8568 3.90485H9.14229C8.88969 3.90485 8.64743 3.80451 8.46882 3.62589C8.2902 3.44728 8.18986 3.20502 8.18986 2.95243ZM3.42773 13.4291C3.42759 11.8148 3.88329 10.2333 4.74236 8.86664C5.60143 7.49995 6.82897 6.40362 8.28367 5.70383C9.73837 5.00404 11.3611 4.72925 12.9651 4.91109C14.5691 5.09292 16.0891 5.72399 17.3503 6.73165L17.9932 6.08876C18.081 5.99779 18.1861 5.92524 18.3023 5.87532C18.4185 5.82541 18.5435 5.79913 18.67 5.79803C18.7964 5.79693 18.9218 5.82103 19.0389 5.86892C19.1559 5.91681 19.2623 5.98753 19.3517 6.07696C19.4411 6.16638 19.5119 6.27272 19.5597 6.38977C19.6076 6.50682 19.6317 6.63224 19.6306 6.7587C19.6295 6.88516 19.6033 7.01014 19.5533 7.12634C19.5034 7.24254 19.4309 7.34763 19.3399 7.43549L18.697 8.07838C19.5516 9.1482 20.1374 10.4072 20.4055 11.7499C20.6736 13.0926 20.6161 14.48 20.2379 15.796C19.8596 17.112 19.1717 18.3182 18.2315 19.3136C17.2914 20.3091 16.1265 21.0649 14.8343 21.5177C13.5421 21.9705 12.1603 22.1072 10.8044 21.9163C9.44856 21.7254 8.15817 21.2124 7.04125 20.4204C5.92434 19.6284 5.01341 18.5803 4.38472 17.364C3.75604 16.1476 3.42788 14.7983 3.42773 13.4291ZM12.952 9.6194C12.952 9.3668 12.8516 9.12455 12.673 8.94593C12.4944 8.76732 12.2522 8.66698 11.9996 8.66698C11.747 8.66698 11.5047 8.76732 11.3261 8.94593C11.1475 9.12455 11.0471 9.3668 11.0471 9.6194V13.4291C11.0471 13.6817 11.1475 13.924 11.3261 14.1026C11.5047 14.2812 11.747 14.3815 11.9996 14.3815C12.2522 14.3815 12.4944 14.2812 12.673 14.1026C12.8516 13.924 12.952 13.6817 12.952 13.4291V9.6194Z" fill="#151515"/>
</svg>
