<svg width="16" height="16" viewBox="0 0 16 16" fill="none" xmlns="http://www.w3.org/2000/svg">
<path fill-rule="evenodd" clip-rule="evenodd" d="M6.8007 1.44531C6.30563 1.44531 5.83084 1.64198 5.48077 1.99204C5.1307 2.34211 4.93404 2.8169 4.93404 3.31197V4.11197H3.20065C2.16972 4.11197 1.33398 4.9477 1.33398 5.97863V7.47796C1.33398 7.47804 1.33398 7.47812 1.33398 7.4782V12.6453C1.33398 13.6762 2.16972 14.5119 3.20065 14.5119H12.8007C13.8316 14.5119 14.6673 13.6762 14.6673 12.6453V5.97863C14.6673 4.9477 13.8316 4.11197 12.8007 4.11197H11.0674V3.31197C11.0674 2.8169 10.8707 2.34211 10.5206 1.99204C10.1706 1.64198 9.69577 1.44531 9.2007 1.44531H6.8007ZM10.396 5.4453C10.3976 5.44531 10.3991 5.44532 10.4007 5.44532C10.4023 5.44532 10.4038 5.44531 10.4054 5.4453H12.8007C13.0952 5.4453 13.334 5.68408 13.334 5.97863V7.2219C13.333 7.22258 13.3319 7.22326 13.3309 7.22394L11.7576 8.27279C11.7193 8.29834 11.6743 8.31198 11.6282 8.31198H4.38912C4.34049 8.31198 4.29307 8.29678 4.2535 8.26851L2.66732 7.13553V5.97863C2.66732 5.68408 2.9061 5.4453 3.20065 5.4453H5.596C5.59757 5.44531 5.59914 5.44532 5.6007 5.44532C5.60227 5.44532 5.60384 5.44531 5.6054 5.4453H10.396ZM9.73404 4.11197V3.31197C9.73404 3.17053 9.67785 3.03487 9.57783 2.93485C9.47781 2.83483 9.34215 2.77864 9.2007 2.77864H6.8007C6.65925 2.77864 6.5236 2.83483 6.42358 2.93485C6.32356 3.03487 6.26737 3.17053 6.26737 3.31197V4.11197H9.73404ZM2.66732 8.77406V12.6453C2.66732 12.9398 2.9061 13.1786 3.20065 13.1786H12.8007C13.0952 13.1786 13.334 12.9398 13.334 12.6453V8.82435L12.4972 9.38218C12.2399 9.55375 11.9375 9.6453 11.6282 9.6453H4.38912C4.06259 9.6453 3.74422 9.54328 3.47852 9.35349L2.66732 8.77406Z" fill="#151515"/>
</svg>
