<svg width="24" height="24" viewBox="0 0 24 24" fill="none" xmlns="http://www.w3.org/2000/svg">
<path d="M6.00049 4C3.79139 4 2.00049 5.791 2.00049 8V14C2.00049 15.516 2.75239 16.746 4.05209 17.477C4.27399 18.915 5.50049 20 7.00049 20C8.26829 20 9.39969 19.206 9.81949 17.999L13.1768 17.998C13.6302 19.192 14.7327 20 16.0005 20C17.3038 20 18.4013 19.188 18.8492 17.945C20.7755 17.675 22.0005 16.317 22.0005 14C22.0005 14 22.0005 14 22.0005 13C22.0005 10.448 19.5528 8 17.0005 8C17.0005 5.791 15.2096 4 13.0005 4C12.1255 4 6.87549 4 6.00049 4ZM17.0005 10C18.4482 10 20.0005 11.552 20.0005 13C20.0005 14 20.0005 14 20.0005 14C20.0005 15.197 19.6446 15.717 18.8008 15.917C18.5452 15.176 17.7781 14.421 17.0068 14.183L17.0005 10ZM7.00049 16C7.53379 15.992 7.99969 16.444 8.00049 17C8.00049 17.552 7.55279 18 7.00049 18C6.44819 18 6.00049 17.552 6.00049 17C6.08319 16.449 6.48169 16.008 7.00049 16ZM16.0005 16C16.5528 16 17.0005 16.448 17.0005 17C17.0005 17.552 16.5528 18 16.0005 18C15.4482 18 15.0005 17.552 15.0005 17C15.0005 16.724 15.1008 16.462 15.2817 16.281C15.4627 16.1 15.7244 16 16.0005 16Z" fill="#151515"/>
</svg>
