<svg width="24" height="24" viewBox="0 0 24 24" fill="none" xmlns="http://www.w3.org/2000/svg">
<path fill-rule="evenodd" clip-rule="evenodd" d="M8.86377 5.45455C8.86377 4.09894 9.96271 3 11.3183 3H12.6092C13.9648 3 15.0638 4.09894 15.0638 5.45455V18.5455C15.0638 19.9011 13.9648 21 12.6092 21H11.3183C9.96271 21 8.86377 19.9011 8.86377 18.5455V5.45455ZM11.3183 5C11.0673 5 10.8638 5.20351 10.8638 5.45455V18.5455C10.8638 18.7965 11.0673 19 11.3183 19H12.6092C12.8603 19 13.0638 18.7965 13.0638 18.5455V5.45455C13.0638 5.20351 12.8603 5 12.6092 5H11.3183Z" fill="#151515"/>
<path fill-rule="evenodd" clip-rule="evenodd" d="M2 14.1818C2 12.8262 3.09894 11.7273 4.45455 11.7273H5.74545C7.10106 11.7273 8.2 12.8262 8.2 14.1818V18.5455C8.2 19.9011 7.10106 21 5.74545 21H4.45455C3.09894 21 2 19.9011 2 18.5455V14.1818ZM4.45455 13.7273C4.20351 13.7273 4 13.9308 4 14.1818V18.5455C4 18.7965 4.20351 19 4.45455 19H5.74545C5.99649 19 6.2 18.7965 6.2 18.5455V14.1818C6.2 13.9308 5.99649 13.7273 5.74545 13.7273H4.45455Z" fill="#151515"/>
<path fill-rule="evenodd" clip-rule="evenodd" d="M15.7275 11.2727C15.7275 9.91705 16.8265 8.81812 18.1821 8.81812H19.473C20.8286 8.81812 21.9275 9.91705 21.9275 11.2727V18.5454C21.9275 19.901 20.8286 20.9999 19.473 20.9999H18.1821C16.8265 20.9999 15.7275 19.901 15.7275 18.5454V11.2727ZM18.1821 10.8181C17.931 10.8181 17.7275 11.0216 17.7275 11.2727V18.5454C17.7275 18.7964 17.931 18.9999 18.1821 18.9999H19.473C19.724 18.9999 19.9275 18.7964 19.9275 18.5454V11.2727C19.9275 11.0216 19.724 10.8181 19.473 10.8181H18.1821Z" fill="#151515"/>
</svg>
