<svg width="24" height="24" viewBox="0 0 24 24" fill="none" xmlns="http://www.w3.org/2000/svg">
<path d="M6.99853 2.99072C4.78953 2.99072 2.99854 4.78172 2.99854 6.99072V16.9907C2.99854 19.1997 4.78953 20.9907 6.99853 20.9907H16.9985C19.2075 20.9907 20.9985 19.1997 20.9985 16.9907V6.99072C20.9985 4.78172 19.2075 2.99072 16.9985 2.99072H6.99853ZM8.49853 10.9907C9.08052 10.9917 9.96454 11.8977 10.8105 13.4597C11.1465 14.0777 11.4475 14.7587 11.7175 15.4287C11.8795 15.8287 12.0045 16.1347 12.0605 16.3027C12.3335 17.1197 13.4415 17.2357 13.8735 16.4907C13.9165 16.4167 13.9945 16.2747 14.1235 16.0847C14.3395 15.7647 14.5855 15.4407 14.8425 15.1467C15.4845 14.4107 16.1045 13.9907 16.4985 13.9907C16.8975 14.0007 17.5135 14.4197 18.1545 15.1467C18.4145 15.4417 18.6545 15.7647 18.8735 16.0847C18.9425 16.1847 18.9525 16.2317 18.9985 16.3027V16.9907C18.9985 18.0957 18.1035 18.9907 16.9985 18.9907H6.99853C5.89353 18.9907 4.99853 18.0957 4.99853 16.9907V16.1467C5.06153 15.9687 5.14554 15.7577 5.27954 15.4287C5.55254 14.7587 5.84852 14.0787 6.18652 13.4597C7.03952 11.8947 7.91753 10.9897 8.49853 10.9907Z" fill="#151515"/>
</svg>
