<svg width="24" height="24" viewBox="0 0 24 24" fill="none" xmlns="http://www.w3.org/2000/svg">
<path fill-rule="evenodd" clip-rule="evenodd" d="M11.9997 4C8.93217 4 6.29265 6.75539 6.29265 10.3517V10.3628L6.29259 10.3628L6.26824 12.5428C6.26703 14.0024 5.80918 15.2454 5.26873 16.1818H18.7392C18.2202 15.2435 17.7811 13.998 17.7811 12.537V12.5252L17.7812 12.5252L17.8055 10.4542C17.8027 6.80095 15.1201 4 11.9997 4ZM4.29265 10.3459C4.2955 5.82427 7.66066 2 11.9997 2C16.3951 2 19.8055 5.876 19.8055 10.4599V10.4717H19.8055L19.7811 12.5426C19.7825 13.8148 20.2459 14.8823 20.7332 15.6155C21.0799 16.1372 21.043 16.7482 20.8769 17.1757C20.7167 17.5882 20.2773 18.1818 19.493 18.1818H4.50732C3.71025 18.1818 3.27244 17.5705 3.11673 17.1571C2.95475 16.727 2.92042 16.1055 3.28335 15.5818C3.79239 14.8473 4.26824 13.7902 4.26824 12.537V12.5258L4.2683 12.5258L4.29265 10.3459ZM8.55172 19.4667C8.89643 19.0352 9.52568 18.9649 9.95718 19.3096C10.4852 19.7314 11.1989 20 11.9997 20C12.8005 20 13.5142 19.7314 14.0422 19.3096C14.4737 18.9649 15.1029 19.0352 15.4477 19.4667C15.7924 19.8982 15.722 20.5275 15.2905 20.8722C14.4032 21.5811 13.2478 22 11.9997 22C10.7515 22 9.59621 21.5811 8.70887 20.8722C8.27737 20.5275 8.20701 19.8982 8.55172 19.4667Z" fill="#151515"/>
<path fill-rule="evenodd" clip-rule="evenodd" d="M12.001 7C12.5533 7 13.001 7.44772 13.001 8V13C13.001 13.5523 12.5533 14 12.001 14C11.4487 14 11.001 13.5523 11.001 13V8C11.001 7.44772 11.4487 7 12.001 7Z" fill="#151515"/>
<path fill-rule="evenodd" clip-rule="evenodd" d="M8.50098 10.5C8.50098 9.94772 8.94869 9.5 9.50098 9.5H14.501C15.0533 9.5 15.501 9.94772 15.501 10.5C15.501 11.0523 15.0533 11.5 14.501 11.5H9.50098C8.94869 11.5 8.50098 11.0523 8.50098 10.5Z" fill="#151515"/>
</svg>
