<svg width="24" height="24" viewBox="0 0 24 24" fill="none" xmlns="http://www.w3.org/2000/svg">
<path fill-rule="evenodd" clip-rule="evenodd" d="M18.4324 2C17.9639 2 17.5 2.09228 17.0671 2.27157C16.6343 2.45086 16.241 2.71365 15.9097 3.04493L3.6546 15.3001C3.53154 15.4231 3.44273 15.5762 3.39694 15.7441L2.03526 20.7369C1.94084 21.0831 2.03917 21.4534 2.29292 21.7071C2.54667 21.9609 2.91693 22.0592 3.26314 21.9648L8.25597 20.6031C8.42387 20.5573 8.57691 20.4685 8.69996 20.3454L20.9551 8.09029C21.2864 7.75901 21.5492 7.36572 21.7285 6.93288C21.9077 6.50003 22 6.03611 22 5.56761C22 5.09911 21.9077 4.63519 21.7285 4.20235C21.5492 3.7695 21.2864 3.37621 20.9551 3.04493C20.6238 2.71365 20.2305 2.45086 19.7977 2.27157C19.3648 2.09228 18.9009 2 18.4324 2Z" fill="#151515"/>
</svg>
