<svg width="24" height="24" viewBox="0 0 24 24" fill="none" xmlns="http://www.w3.org/2000/svg">
<path fill-rule="evenodd" clip-rule="evenodd" d="M10 4C9.71871 4 9.4586 4.10664 9.27454 4.2815C9.09222 4.4547 9 4.67834 9 4.9V6.5H15V4.9C15 4.67834 14.9078 4.4547 14.7255 4.2815C14.5414 4.10664 14.2813 4 14 4H10ZM7 4.9V6.5H5H3C2.44772 6.5 2 6.94772 2 7.5C2 8.05228 2.44772 8.5 3 8.5H4V19.1C4 19.8862 4.32921 20.6291 4.89704 21.1685C5.46312 21.7063 6.22043 22 7 22H17C17.7796 22 18.5369 21.7063 19.103 21.1685C19.6708 20.6291 20 19.8862 20 19.1V8.5H21C21.5523 8.5 22 8.05228 22 7.5C22 6.94772 21.5523 6.5 21 6.5H19H17V4.9C17 4.11384 16.6708 3.37093 16.103 2.8315C15.5369 2.29372 14.7796 2 14 2H10C9.22043 2 8.46312 2.29372 7.89704 2.8315C7.32921 3.37093 7 4.11384 7 4.9ZM10 10C9.44772 10 9 10.4477 9 11V17C9 17.5523 9.44772 18 10 18C10.5523 18 11 17.5523 11 17V11C11 10.4477 10.5523 10 10 10ZM13 11C13 10.4477 13.4477 10 14 10C14.5523 10 15 10.4477 15 11V17C15 17.5523 14.5523 18 14 18C13.4477 18 13 17.5523 13 17V11Z" fill="#151515"/>
</svg>
