<svg width="16" height="16" viewBox="0 0 16 16" fill="none" xmlns="http://www.w3.org/2000/svg">
<g clip-path="url(#clip0_5886_37237)">
<path d="M8.00128 11.3335C8.35491 11.3335 8.69404 11.193 8.94409 10.9429C9.19414 10.6929 9.33461 10.3538 9.33461 10.0001C9.33461 9.64651 9.19414 9.30738 8.94409 9.05733C8.69404 8.80728 8.35491 8.66681 8.00128 8.66681C7.64766 8.66681 7.30853 8.80728 7.05848 9.05733C6.80843 9.30738 6.66796 9.64651 6.66796 10.0001C6.66796 10.3538 6.80843 10.6929 7.05848 10.9429C7.30853 11.193 7.64766 11.3335 8.00128 11.3335ZM12.0013 5.33348C12.3549 5.33348 12.694 5.47396 12.9441 5.72401C13.1941 5.97405 13.3346 6.31319 13.3346 6.66681V13.3335C13.3346 13.6871 13.1941 14.0262 12.9441 14.2763C12.694 14.5263 12.3549 14.6668 12.0013 14.6668H4.0013C3.64768 14.6668 3.30854 14.5263 3.05849 14.2763C2.80844 14.0262 2.66797 13.6871 2.66797 13.3335V6.66681C2.66797 6.31319 2.80844 5.97405 3.05849 5.72401C3.30854 5.47396 3.64768 5.33348 4.0013 5.33348H4.66796V4.66682C4.66796 3.78277 5.01915 2.93492 5.64427 2.3098C6.26939 1.68468 7.11723 1.3335 8.00128 1.3335C8.43902 1.3335 8.87247 1.41972 9.27689 1.58723C9.68131 1.75475 10.0488 2.00028 10.3583 2.3098C10.6678 2.61933 10.9134 2.98679 11.0809 3.39121C11.2484 3.79563 11.3346 4.22908 11.3346 4.66682V5.33348H12.0013ZM8.00128 2.66683C7.47085 2.66683 6.96215 2.87754 6.58708 3.25261C6.212 3.62768 6.00129 4.13639 6.00129 4.66682V5.33348H10.0013V4.66682C10.0013 4.13639 9.79057 3.62768 9.41549 3.25261C9.04042 2.87754 8.53172 2.66683 8.00128 2.66683Z" fill="#888888"/>
</g>
<defs>
<clipPath id="clip0_5886_37237">
<rect width="16" height="15.9999" fill="white"/>
</clipPath>
</defs>
</svg>
