<svg width="24" height="24" viewBox="0 0 24 24" fill="none" xmlns="http://www.w3.org/2000/svg">
<path d="M7.49902 3C4.46142 3 1.99902 5.46201 1.99902 8.50001C1.99902 11.684 3.81252 14.688 6.81152 17.438C7.83512 18.376 8.93723 19.199 10.0302 19.938C10.4133 20.196 10.7716 20.43 11.0928 20.625C11.2886 20.744 11.4177 20.83 11.499 20.875C11.801 21.043 12.197 21.043 12.499 20.875C12.5803 20.83 12.7094 20.744 12.9052 20.625C13.2264 20.43 13.5847 20.196 13.9678 19.938C15.0608 19.199 16.1629 18.376 17.1865 17.438C20.1855 14.688 21.999 11.684 21.999 8.50001C21.999 5.46201 19.5366 3 16.499 3C14.7738 3 13.0894 3.94001 12.0302 5.31202C10.9974 3.91601 9.31893 3 7.49902 3Z" fill="#151515"/>
</svg>
