<svg width="24" height="24" viewBox="0 0 24 24" fill="none" xmlns="http://www.w3.org/2000/svg">
<path fill-rule="evenodd" clip-rule="evenodd" d="M12.0005 22C17.5233 22 22.0005 17.5228 22.0005 12C22.0005 6.47715 17.5233 2 12.0005 2C6.47764 2 2.00049 6.47715 2.00049 12C2.00049 17.5228 6.47764 22 12.0005 22ZM12.0007 7C11.4738 6.99966 10.956 7.13812 10.4996 7.40144C10.0432 7.66476 9.66418 8.04366 9.40071 8.5C9.32836 8.61382 9.27978 8.7411 9.25789 8.87418C9.236 9.00726 9.24125 9.14339 9.27334 9.27439C9.30543 9.40538 9.36368 9.52854 9.4446 9.63644C9.52551 9.74433 9.62742 9.83475 9.74418 9.90225C9.86095 9.96974 9.99016 10.0129 10.124 10.0292C10.2579 10.0454 10.3937 10.0345 10.5233 9.99688C10.6528 9.9593 10.7734 9.89591 10.8778 9.81052C10.9822 9.72513 11.0682 9.61951 11.1307 9.5C11.2188 9.3474 11.3457 9.22078 11.4985 9.13298C11.6512 9.04518 11.8245 8.9993 12.0007 9C12.2659 9 12.5203 9.10536 12.7078 9.29289C12.8954 9.48043 13.0007 9.73478 13.0007 10C13.0007 10.2652 12.8954 10.5196 12.7078 10.7071C12.5203 10.8946 12.2659 11 12.0007 11C11.7355 11 11.4811 11.1054 11.2936 11.2929C11.1061 11.4804 11.0007 11.7348 11.0007 12V13C11.0007 13.2652 11.1061 13.5196 11.2936 13.7071C11.4811 13.8946 11.7355 14 12.0007 14C12.2659 14 12.5203 13.8946 12.7078 13.7071C12.8954 13.5196 13.0007 13.2652 13.0007 13V12.82C13.6621 12.58 14.2181 12.1152 14.5715 11.5069C14.9249 10.8985 15.0533 10.1853 14.9341 9.49189C14.815 8.79849 14.4559 8.16902 13.9197 7.71352C13.3835 7.25801 12.7043 7.00546 12.0007 7ZM11.2907 15.29C11.2483 15.338 11.2083 15.3881 11.1707 15.44C11.1333 15.496 11.103 15.5565 11.0807 15.62C11.0513 15.6764 11.031 15.7372 11.0207 15.8C11.0159 15.8666 11.0159 15.9334 11.0207 16C11.0173 16.1312 11.0447 16.2613 11.1007 16.38C11.1456 16.5041 11.2173 16.6168 11.3106 16.7101C11.4039 16.8034 11.5166 16.8751 11.6407 16.92C11.7604 16.9729 11.8898 17.0002 12.0207 17.0002C12.1516 17.0002 12.281 16.9729 12.4007 16.92C12.5248 16.8751 12.6375 16.8034 12.7308 16.7101C12.8241 16.6168 12.8958 16.5041 12.9407 16.38C12.9851 16.2584 13.0055 16.1294 13.0007 16C13.0015 15.8684 12.9762 15.7379 12.9265 15.6161C12.8767 15.4943 12.8034 15.3834 12.7107 15.29C12.6178 15.1963 12.5071 15.1219 12.3853 15.0711C12.2634 15.0203 12.1327 14.9942 12.0007 14.9942C11.8687 14.9942 11.738 15.0203 11.6161 15.0711C11.4943 15.1219 11.3837 15.1963 11.2907 15.29Z" fill="#151515"/>
</svg>
