<svg width="24" height="24" viewBox="0 0 24 24" fill="none" xmlns="http://www.w3.org/2000/svg">
<path fill-rule="evenodd" clip-rule="evenodd" d="M13.6748 21.4206C13.5159 21.7729 13.1614 22 12.7703 22C11.7793 22 10.8289 21.612 10.1282 20.9213C9.4275 20.2306 9.03384 19.2939 9.03384 18.3171V15.683H4.84665C4.43985 15.6866 4.03703 15.6035 3.66584 15.4393C3.29277 15.2743 2.96056 15.0313 2.69223 14.7271C2.4239 14.4229 2.22587 14.0649 2.11186 13.6778C1.99784 13.2907 1.97058 12.8839 2.03194 12.4854L3.29538 4.36358C3.39754 3.70088 3.73926 3.09606 4.25744 2.66192C4.77427 2.22891 5.43203 1.99401 6.11017 2.00012H16.0613V16.1279L13.6748 21.4206ZM18.0408 13.8781H19.1791C19.9273 13.8781 20.6448 13.5852 21.1738 13.0637C21.7028 12.5423 22 11.8351 22 11.0976V4.78059C22 4.04316 21.7028 3.33594 21.1738 2.8145C20.6448 2.29306 19.9273 2.00012 19.1791 2.00012H18.0408V13.8781Z" fill="#151515"/>
</svg>
