<svg width="12" height="14" viewBox="0 0 12 14" fill="none" xmlns="http://www.w3.org/2000/svg">
<path d="M5.06942 8.51637H7.35598L8.33087 9.75945C8.94239 9.05416 9.2969 7.96977 9.28804 6.55919C9.2969 3.8262 7.98523 2.3539 6.00886 2.34509C4.01477 2.3539 2.71196 3.8262 2.71196 6.55919C2.71196 9.28338 4.01477 10.7645 6.00886 10.7733C6.26588 10.7733 6.51403 10.7469 6.74446 10.694L5.06942 8.51637ZM0 6.55919C0 2.38917 2.58789 0 6.00886 0C9.40325 0 12 2.38917 12 6.55919C12 8.84257 11.2201 10.5882 9.9616 11.7078L11.7873 14H9.28804L8.25997 12.7305C7.56869 12.9861 6.8065 13.1184 6.00886 13.1184C2.58789 13.1184 0 10.7116 0 6.55919Z" fill="#8BC104"/>
</svg>
