<svg width="24" height="24" viewBox="0 0 24 24" fill="none" xmlns="http://www.w3.org/2000/svg">
<path fill-rule="evenodd" clip-rule="evenodd" d="M10.4111 2.28728C10.5716 1.92615 10.9298 1.69342 11.3249 1.69342C12.3261 1.69342 13.2863 2.09114 13.9943 2.79909C14.7022 3.50703 15.0999 4.46722 15.0999 5.4684V8.16838H19.3303C19.7413 8.16463 20.1483 8.24981 20.5233 8.41813C20.9002 8.58729 21.2359 8.83639 21.507 9.14815C21.7781 9.45991 21.9781 9.82688 22.0933 10.2236C22.2085 10.6204 22.2361 11.0375 22.1741 11.4459L20.8976 19.7707C20.8975 19.771 20.8976 19.7705 20.8976 19.7707C20.7944 20.45 20.4491 21.07 19.9256 21.515C19.4034 21.9588 18.7389 22.1996 18.0538 22.1933H4.84999C4.09412 22.1933 3.36922 21.893 2.83474 21.3586C2.30027 20.8241 2 20.0992 2 19.3433V12.8684C2 12.1125 2.30027 11.3876 2.83474 10.8531C3.36922 10.3186 4.09412 10.0184 4.84999 10.0184H6.9751L10.4111 2.28728ZM6.62497 12.0184H4.84999C4.62456 12.0184 4.40836 12.1079 4.24896 12.2673C4.08955 12.4267 4 12.6429 4 12.8684V19.3433C4 19.5687 4.08955 19.7849 4.24896 19.9443C4.40836 20.1038 4.62456 20.1933 4.84999 20.1933H6.62497V12.0184ZM8.62497 20.1933H18.0702C18.2752 20.1956 18.4741 20.1238 18.6303 19.9911C18.7865 19.8583 18.8895 19.6736 18.9202 19.4709L20.1967 11.1458C20.1967 11.1459 20.1967 11.1457 20.1967 11.1458C20.2151 11.0241 20.2069 10.8995 20.1726 10.7813C20.1383 10.6629 20.0786 10.5535 19.9977 10.4605C19.9169 10.3675 19.8168 10.2932 19.7044 10.2428C19.592 10.1923 19.4699 10.1669 19.3467 10.1683L19.3354 10.1684L14.0999 10.1684C13.5476 10.1684 13.0999 9.72066 13.0999 9.16838V5.4684C13.0999 4.99765 12.9129 4.54617 12.58 4.2133C12.394 4.0272 12.1708 3.8867 11.9279 3.79897L8.62497 11.2306V20.1933Z" fill="#151515"/>
</svg>
