<svg width="24" height="24" viewBox="0 0 24 24" fill="none" xmlns="http://www.w3.org/2000/svg">
<path fill-rule="evenodd" clip-rule="evenodd" d="M3.2002 4.8C3.2002 3.39274 4.21679 2 5.7602 2H18.2402C19.7836 2 20.8002 3.39274 20.8002 4.8V21C20.8002 21.3719 20.5938 21.7132 20.2643 21.8858C19.9348 22.0584 19.5368 22.0339 19.231 21.8222L17.2002 20.4163L15.1694 21.8222C14.827 22.0593 14.3734 22.0593 14.031 21.8222L12.0002 20.4163L9.96941 21.8222C9.62696 22.0593 9.17343 22.0593 8.83099 21.8222L6.8002 20.4163L4.76941 21.8222C4.4636 22.0339 4.06555 22.0584 3.73609 21.8858C3.40663 21.7132 3.2002 21.3719 3.2002 21V4.8ZM5.7602 4C5.58047 4 5.2002 4.21904 5.2002 4.8V19.0914L6.23099 18.3778C6.57343 18.1407 7.02696 18.1407 7.36941 18.3778L9.4002 19.7837L11.431 18.3778C11.7734 18.1407 12.227 18.1407 12.5694 18.3778L14.6002 19.7837L16.631 18.3778C16.9734 18.1407 17.427 18.1407 17.7694 18.3778L18.8002 19.0914V4.8C18.8002 4.21904 18.4199 4 18.2402 4H5.7602ZM6.8002 7.8C6.8002 7.24772 7.24791 6.8 7.8002 6.8H16.2002C16.7525 6.8 17.2002 7.24772 17.2002 7.8C17.2002 8.35228 16.7525 8.8 16.2002 8.8H7.8002C7.24791 8.8 6.8002 8.35228 6.8002 7.8ZM6.8002 12.6C6.8002 12.0477 7.24791 11.6 7.8002 11.6H16.2002C16.7525 11.6 17.2002 12.0477 17.2002 12.6C17.2002 13.1523 16.7525 13.6 16.2002 13.6H7.8002C7.24791 13.6 6.8002 13.1523 6.8002 12.6Z" fill="#151515"/>
</svg>
