<svg width="24" height="24" viewBox="0 0 24 24" fill="none" xmlns="http://www.w3.org/2000/svg">
<path fill-rule="evenodd" clip-rule="evenodd" d="M2 5C2 4.44772 2.44772 4 3 4H9C9.55228 4 10 4.44772 10 5C10 5.55228 9.55228 6 9 6H3C2.44772 6 2 5.55228 2 5Z" fill="#151515"/>
<path fill-rule="evenodd" clip-rule="evenodd" d="M2 11C2 10.4477 2.44772 10 3 10H6C6.55228 10 7 10.4477 7 11C7 11.5523 6.55228 12 6 12H3C2.44772 12 2 11.5523 2 11Z" fill="#151515"/>
<path fill-rule="evenodd" clip-rule="evenodd" d="M2 17C2 16.4477 2.44772 16 3 16H6C6.55228 16 7 16.4477 7 17C7 17.5523 6.55228 18 6 18H3C2.44772 18 2 17.5523 2 17Z" fill="#151515"/>
<path fill-rule="evenodd" clip-rule="evenodd" d="M18.4482 12.3491C18.4482 10.0852 16.613 8.25 14.3492 8.25C12.0853 8.25 10.2501 10.0852 10.2501 12.3491C10.2501 14.6129 12.0853 16.4481 14.3492 16.4481C16.613 16.4481 18.4482 14.6129 18.4482 12.3491ZM14.3492 6.25C17.7176 6.25 20.4482 8.98064 20.4482 12.3491C20.4482 15.7175 17.7176 18.4481 14.3492 18.4481C10.9808 18.4481 8.25013 15.7175 8.25013 12.3491C8.25013 8.98064 10.9808 6.25 14.3492 6.25Z" fill="#151515"/>
<path fill-rule="evenodd" clip-rule="evenodd" d="M17.6327 15.6325C18.0233 15.242 18.6564 15.242 19.047 15.6325L21.7073 18.2929C22.0979 18.6834 22.0979 19.3166 21.7073 19.7071C21.3168 20.0976 20.6836 20.0976 20.2931 19.7071L17.6327 17.0467C17.2422 16.6562 17.2422 16.023 17.6327 15.6325Z" fill="#151515"/>
</svg>
