<svg width="24" height="24" viewBox="0 0 24 24" fill="none" xmlns="http://www.w3.org/2000/svg">
<path fill-rule="evenodd" clip-rule="evenodd" d="M13.7954 21.5996C13.6349 21.9607 13.2768 22.1934 12.8816 22.1934C11.8804 22.1934 10.9202 21.7957 10.2123 21.0878C9.50433 20.3798 9.10661 19.4196 9.10661 18.4184V15.7185H4.87622C4.46523 15.7222 4.05826 15.637 3.68324 15.4687C3.30631 15.2995 2.97068 15.0505 2.69958 14.7387C2.42849 14.4269 2.22841 14.06 2.11322 13.6632C1.99803 13.2664 1.97048 12.8494 2.03248 12.4409L3.30895 4.11609C3.30899 4.11583 3.30891 4.11636 3.30895 4.11609C3.41216 3.43682 3.75741 2.81688 4.28094 2.37189C4.8031 1.92805 5.46765 1.68727 6.15279 1.69354H19.3566C20.1124 1.69354 20.8373 1.9938 21.3718 2.52828C21.9063 3.06276 22.2065 3.78766 22.2065 4.54353V11.0185C22.2065 11.7743 21.9063 12.4993 21.3718 13.0337C20.8373 13.5682 20.1124 13.8685 19.3566 13.8685H17.2314L13.7954 21.5996ZM17.5816 11.8685H19.3566C19.582 11.8685 19.7982 11.7789 19.9576 11.6195C20.117 11.4601 20.2065 11.2439 20.2065 11.0185V4.54353C20.2065 4.3181 20.117 4.1019 19.9576 3.9425C19.7982 3.78309 19.582 3.69354 19.3566 3.69354H17.5816V11.8685ZM15.5816 3.69354H6.13633C5.93134 3.69122 5.73243 3.763 5.57623 3.89577C5.42004 4.02854 5.31708 4.21328 5.28635 4.41597L4.00983 12.741C4.00985 12.7409 4.00982 12.7412 4.00983 12.741C3.99142 12.8627 3.9996 12.9874 4.03391 13.1056C4.06827 13.2239 4.12794 13.3334 4.20879 13.4263C4.28964 13.5193 4.38975 13.5936 4.50216 13.6441C4.61458 13.6945 4.73661 13.7199 4.85982 13.7185L4.87115 13.7184L10.1066 13.7185C10.6589 13.7185 11.1066 14.1662 11.1066 14.7185V18.4184C11.1066 18.8892 11.2936 19.3407 11.6265 19.6735C11.8126 19.8596 12.0358 20.0001 12.2786 20.0879L15.5816 12.6563V3.69354Z" fill="#151515"/>
</svg>
