<svg width="24" height="24" viewBox="0 0 24 24" fill="none" xmlns="http://www.w3.org/2000/svg">
<path d="M5.95264 3.9978C3.91864 3.9978 2.32665 4.5118 2.04565 6.46679C1.95565 7.09279 2.15364 7.70881 2.60864 8.1538C2.83464 8.3748 3.07365 8.6378 3.38965 8.9038C4.18265 9.5728 5.19365 10.3248 6.13965 10.9978C8.74266 12.8478 10.7977 13.9978 12.0147 13.9978C13.2317 13.9978 15.2867 12.8478 17.8897 10.9978C18.8367 10.3248 19.8477 9.5718 20.6397 8.9038C20.9557 8.6378 21.1947 8.3758 21.4207 8.1538C21.8757 7.70881 22.0737 7.09279 21.9837 6.46679C21.7027 4.5118 20.1107 3.9978 18.0767 3.9978H5.95264ZM2.01465 10.1538V15.9978C2.01465 18.2068 3.80565 19.9978 6.01465 19.9978H18.0147C20.2237 19.9978 22.0147 18.2068 22.0147 15.9978V10.1538C21.1947 10.9328 20.2787 11.7368 18.9837 12.6538C16.1477 14.6618 13.6007 15.9978 12.0147 15.9978C10.4287 15.9978 7.88166 14.6618 5.04566 12.6538C3.74966 11.7368 2.83465 10.9328 2.01465 10.1538Z" fill="#151515"/>
</svg>
