<svg width="25" height="24" viewBox="0 0 25 24" fill="none" xmlns="http://www.w3.org/2000/svg">
<path fill-rule="evenodd" clip-rule="evenodd" d="M8.84537 4.36107C9.23475 4.13218 9.66411 4.00107 10.1414 4.00001C11.5933 3.99681 12.787 5.18142 12.7884 6.66665L12.7609 11.9999L12.7884 17.3332C12.8059 18.7993 11.6111 19.9828 10.1414 19.9998C9.64046 20.0056 9.19055 19.8554 8.79031 19.611C8.55208 19.4655 8.09696 19.0822 7.35649 18.3887C7.34208 18.3753 7.16008 18.201 6.93697 17.9873C6.70657 17.7667 6.43232 17.504 6.25355 17.3332C6.02996 17.3328 4.91405 17.3326 4.84725 17.3332C3.36587 17.347 2.2159 16.163 2.2002 14.6666V9.33328C2.21078 7.8949 3.4137 6.67571 4.84725 6.66665C4.9504 6.66602 6.06199 6.66647 6.28108 6.66665C6.52071 6.43907 6.91313 6.06258 7.15984 5.82587C7.28566 5.70516 7.37359 5.6208 7.38402 5.6111C8.13737 4.91075 8.59928 4.50587 8.84537 4.36107ZM11.0237 6.66665C11.0233 6.17332 10.6216 5.7767 10.1414 5.77777C9.99172 5.77812 9.8599 5.81119 9.72773 5.88888C9.65017 5.93448 9.16717 6.36114 8.56972 6.9166C8.53222 6.95144 7.2964 8.11916 7.21858 8.19445C7.05428 8.35329 6.8397 8.4444 6.61196 8.4444L6.60215 8.4444C6.40818 8.44428 5.00291 8.44345 4.84725 8.4444C4.38146 8.44734 3.96834 8.87133 3.9649 9.33328V14.6666C3.97037 15.1862 4.3534 15.5601 4.84725 15.5554C4.94946 15.5545 6.06539 15.5551 6.46974 15.5554C6.54781 15.5554 6.59935 15.5554 6.61196 15.5554C6.84049 15.5554 7.05411 15.6457 7.21858 15.8054C7.29587 15.8806 8.53461 17.0504 8.56972 17.0832C9.16487 17.6406 9.61875 18.0612 9.7002 18.111C9.83017 18.1903 9.98572 18.2239 10.1414 18.2221C10.6451 18.2162 11.0295 17.8143 11.0237 17.3332L10.9962 11.9999L11.0237 6.66665ZM19.3828 7.54653C19.0885 7.07921 18.4711 6.93899 18.0037 7.23333C17.5364 7.52767 17.3962 8.14511 17.6905 8.61242C19.0845 10.8255 19.295 13.7972 17.9463 16.4485C17.6959 16.9407 17.8919 17.5428 18.3842 17.7932C18.8764 18.0436 19.4785 17.8475 19.7289 17.3553C21.3932 14.0838 21.1564 10.3623 19.3828 7.54653ZM15.9601 9.07404C15.601 8.65439 14.9698 8.60524 14.5501 8.96427C14.1305 9.32331 14.0813 9.95456 14.4404 10.3742C15.4898 11.6008 15.6385 13.1808 14.6315 14.638C14.3175 15.0924 14.4313 15.7153 14.8857 16.0292C15.3401 16.3432 15.9629 16.2294 16.2769 15.775C17.8131 13.5518 17.5843 10.9725 15.9601 9.07404Z" fill="#151515"/>
</svg>
