<svg width="24" height="24" viewBox="0 0 24 24" fill="none" xmlns="http://www.w3.org/2000/svg">
<path d="M17 3.34001C18.5202 4.2177 19.7826 5.48009 20.6603 7.0003C21.538 8.5205 22 10.245 22 12.0003C22 13.7557 21.5379 15.4802 20.6602 17.0003C19.7825 18.5205 18.5201 19.7829 16.9999 20.6606C15.4797 21.5383 13.7552 22.0003 11.9998 22.0003C10.2445 22.0002 8.52002 21.5381 6.99984 20.6604C5.47965 19.7827 4.21729 18.5203 3.33963 17.0001C2.46198 15.4799 1.99996 13.7554 2 12L2.005 11.676C2.061 9.94901 2.56355 8.26598 3.46364 6.79101C4.36373 5.31604 5.63065 4.09947 7.14089 3.2599C8.65113 2.42033 10.3531 1.98641 12.081 2.00045C13.8089 2.01449 15.5036 2.47601 17 3.34001ZM12 15C11.7348 15 11.4804 15.1054 11.2929 15.2929C11.1054 15.4804 11 15.7348 11 16V16.01C11 16.2752 11.1054 16.5296 11.2929 16.7171C11.4804 16.9047 11.7348 17.01 12 17.01C12.2652 17.01 12.5196 16.9047 12.7071 16.7171C12.8946 16.5296 13 16.2752 13 16.01V16C13 15.7348 12.8946 15.4804 12.7071 15.2929C12.5196 15.1054 12.2652 15 12 15ZM12 8.00001C11.7348 8.00001 11.4804 8.10537 11.2929 8.29291C11.1054 8.48044 11 8.7348 11 9.00001V13C11 13.2652 11.1054 13.5196 11.2929 13.7071C11.4804 13.8947 11.7348 14 12 14C12.2652 14 12.5196 13.8947 12.7071 13.7071C12.8946 13.5196 13 13.2652 13 13V9.00001C13 8.7348 12.8946 8.48044 12.7071 8.29291C12.5196 8.10537 12.2652 8.00001 12 8.00001Z" fill="#151515"/>
</svg>
