<svg width="24" height="24" viewBox="0 0 24 24" fill="none" xmlns="http://www.w3.org/2000/svg">
<path fill-rule="evenodd" clip-rule="evenodd" d="M1.69338 1.69298C1.30286 2.0835 1.30286 2.71667 1.69338 3.10719L8.09663 9.51044L3.55911 9.51044C3.00682 9.51044 2.55911 9.95815 2.55911 10.5104C2.55911 11.0627 3.00682 11.5104 3.55911 11.5104L10.5108 11.5104C11.0631 11.5104 11.5108 11.0627 11.5108 10.5104V3.55871C11.5108 3.00642 11.0631 2.55871 10.5108 2.55871C9.95855 2.55871 9.51084 3.00642 9.51084 3.55871V8.09622L3.1076 1.69298C2.71707 1.30245 2.08391 1.30245 1.69338 1.69298ZM21.4405 13.4895C21.4405 12.9373 20.9928 12.4895 20.4405 12.4895L13.4888 12.4895C12.9365 12.4895 12.4888 12.9373 12.4888 13.4895L12.4888 20.4413C12.4888 20.9936 12.9365 21.4413 13.4888 21.4413C14.0411 21.4413 14.4888 20.9936 14.4888 20.4413L14.4888 15.9038L20.892 22.307C21.2825 22.6975 21.9157 22.6975 22.3062 22.307C22.6968 21.9165 22.6968 21.2833 22.3062 20.8928L15.903 14.4895L20.4405 14.4895C20.9928 14.4895 21.4405 14.0418 21.4405 13.4895Z" fill="#151515"/>
</svg>
