<svg width="24" height="24" viewBox="0 0 24 24" fill="none" xmlns="http://www.w3.org/2000/svg">
<path d="M8.00048 2.5C7.44848 2.5 7.00048 2.948 7.00048 3.5C4.79149 3.5 3.00049 5.291 3.00049 7.5V8.56201L21.0005 8.5V7.5C21.0005 5.291 19.2095 3.5 17.0005 3.5C17.0005 2.948 16.5525 2.5 16.0005 2.5C15.4485 2.5 15.0005 2.948 15.0005 3.5H9.00048C9.00048 2.948 8.55248 2.5 8.00048 2.5ZM3.00049 10.5V17.5C3.00049 19.709 4.79149 21.5 7.00048 21.5H17.0005C19.2095 21.5 21.0005 19.709 21.0005 17.5V10.5H3.00049Z" fill="#151515"/>
</svg>
