<svg width="56" height="56" viewBox="0 0 56 56" fill="none" xmlns="http://www.w3.org/2000/svg">
<rect width="56" height="56" rx="28" fill="#FFF0F2"/>
<path d="M24.1214 21.2448V36.3281H21.8089V23.5365H21.7256L18.1214 25.8906V23.7031L21.8714 21.2448H24.1214ZM32.5023 21.0365C35.2731 21.0573 38.1898 22.724 38.1898 28.2448C38.1898 33.5365 35.9189 36.5365 32.2939 36.5365C29.5231 36.5365 27.5648 34.8281 27.2106 32.3698H29.4814C29.7939 33.6406 30.7731 34.5365 32.2939 34.5365C34.6273 34.5365 35.9814 32.4948 36.0023 29.0573H35.8148C35.0023 30.3281 33.5856 31.099 31.9606 31.099C29.2523 31.099 27.0856 29.0365 27.0856 26.1406C27.0856 23.2656 29.2314 21.0156 32.5023 21.0365ZM32.5023 22.9531C30.6689 22.9531 29.3148 24.3698 29.3148 26.099C29.3148 27.849 30.6273 29.224 32.4606 29.224C34.2731 29.224 35.6898 27.7448 35.6898 26.0781C35.6898 24.4531 34.3564 22.9531 32.5023 22.9531Z" fill="#FC0626"/>
</svg>
