<svg width="24" height="24" viewBox="0 0 24 24" fill="none" xmlns="http://www.w3.org/2000/svg">
<path fill-rule="evenodd" clip-rule="evenodd" d="M5.84263 5H18.1564C18.6289 4.99998 19.0408 4.99997 19.3809 5.02698C19.7407 5.05557 20.1061 5.11907 20.4606 5.29466C20.9851 5.55447 21.4167 5.97172 21.6891 6.49132C21.8746 6.84542 21.9416 7.21093 21.9715 7.56686C21.9996 7.90098 21.9995 8.30445 21.9995 8.76175V12.125C21.9995 12.6773 21.5518 13.125 20.9995 13.125C20.4472 13.125 19.9995 12.6773 19.9995 12.125V11.375H3.99951V15.45C3.99951 15.957 4.00034 16.2754 4.02052 16.5157C4.03966 16.7434 4.07082 16.81 4.08143 16.8303C4.15426 16.9693 4.27332 17.0874 4.42622 17.1632C4.4568 17.1783 4.53597 17.2102 4.77646 17.2293C5.02783 17.2493 5.35942 17.25 5.87951 17.25H11.9995C12.5518 17.25 12.9995 17.6977 12.9995 18.25C12.9995 18.8023 12.5518 19.25 11.9995 19.25H5.84263C5.3701 19.25 4.95822 19.25 4.61809 19.223C4.25828 19.1944 3.89291 19.1309 3.53844 18.9553C3.01396 18.6955 2.58228 18.2783 2.30997 17.7587C2.1244 17.4046 2.05746 17.0391 2.02755 16.6831C1.99947 16.349 1.99949 15.9456 1.99951 15.4883L1.99951 8.8C1.99951 8.78721 1.99951 8.77445 1.99951 8.76174C1.99949 8.30444 1.99947 7.90097 2.02755 7.56686C2.05746 7.21093 2.1244 6.84542 2.30997 6.49132C2.58228 5.97172 3.01396 5.55447 3.53844 5.29466C3.89291 5.11907 4.25828 5.05557 4.61809 5.02698C4.95821 4.99997 5.3701 4.99998 5.84263 5ZM3.99951 9.375H19.9995V8.8C19.9995 8.29299 19.9987 7.97458 19.9785 7.73435C19.9594 7.50665 19.9282 7.43997 19.9176 7.41972C19.8448 7.28075 19.7257 7.16257 19.5728 7.08682C19.5422 7.07168 19.4631 7.03981 19.2226 7.0207C18.9712 7.00074 18.6396 7 18.1195 7H5.87951C5.35942 7 5.02783 7.00074 4.77646 7.0207C4.53597 7.03981 4.4568 7.07168 4.42622 7.08682C4.27332 7.16257 4.15426 7.28075 4.08143 7.41972C4.07082 7.43997 4.03966 7.50665 4.02052 7.73435C4.00034 7.97458 3.99951 8.29299 3.99951 8.8V9.375ZM18.2995 13.75C18.8518 13.75 19.2995 14.1977 19.2995 14.75V16.375H20.9995C21.5518 16.375 21.9995 16.8227 21.9995 17.375C21.9995 17.9273 21.5518 18.375 20.9995 18.375H19.2995V20C19.2995 20.5523 18.8518 21 18.2995 21C17.7472 21 17.2995 20.5523 17.2995 20V18.375H15.5995C15.0472 18.375 14.5995 17.9273 14.5995 17.375C14.5995 16.8227 15.0472 16.375 15.5995 16.375H17.2995V14.75C17.2995 14.1977 17.7472 13.75 18.2995 13.75Z" fill="#151515"/>
</svg>
