<svg width="24" height="24" viewBox="0 0 24 24" fill="none" xmlns="http://www.w3.org/2000/svg">
<path fill-rule="evenodd" clip-rule="evenodd" d="M13.246 3.00227C13.0228 2.9851 12.8032 3.06631 12.6449 3.2246L3.22508 12.6445C2.92563 12.9439 2.92563 13.4294 3.22508 13.7289L9.47162 19.9754C9.77107 20.2749 10.2566 20.2749 10.556 19.9754L19.9759 10.5555C20.1342 10.3973 20.2154 10.1777 20.1982 9.95453L19.752 4.15417C19.723 3.77708 19.4234 3.47746 19.0463 3.44845L13.246 3.00227ZM11.2307 1.81038C11.8019 1.23926 12.594 0.946212 13.3994 1.00816L19.1997 1.45434C20.5604 1.55901 21.6415 2.64013 21.7461 4.00078L22.1923 9.80114C22.2543 10.6065 21.9612 11.3986 21.3901 11.9698L11.9702 21.3896C10.8897 22.4701 9.1379 22.4701 8.05741 21.3896L1.81086 15.1431C0.730364 14.0626 0.730364 12.3108 1.81086 11.2303L11.2307 1.81038ZM14.9481 7.24736C14.9509 6.69508 15.4009 6.24965 15.9531 6.25246L15.9595 6.2525C16.5118 6.25531 16.9572 6.7053 16.9544 7.25758C16.9516 7.80985 16.5016 8.25528 15.9493 8.25247L15.9429 8.25244C15.3907 8.24963 14.9452 7.79964 14.9481 7.24736Z" fill="#151515"/>
</svg>
