<svg width="24" height="24" viewBox="0 0 24 24" fill="none" xmlns="http://www.w3.org/2000/svg">
<path d="M6.01465 3.90649C3.80555 3.90649 2.01465 5.69749 2.01465 7.90649V13.9065C2.01465 15.4225 2.76655 16.6525 4.06625 17.3835C4.28815 18.8215 5.51465 19.9065 7.01465 19.9065C8.28245 19.9065 9.41385 19.1125 9.83365 17.9055L13.1909 17.9045C13.6443 19.0985 14.7468 19.9065 16.0146 19.9065C17.3179 19.9065 18.4154 19.0945 18.8633 17.8515C20.7896 17.5815 22.0146 16.2235 22.0146 13.9065C22.0146 13.9065 22.0146 13.9065 22.0146 12.9065C22.0146 10.3545 19.5669 7.90649 17.0146 7.90649C17.0146 5.69749 15.2237 3.90649 13.0146 3.90649C12.1396 3.90649 6.88965 3.90649 6.01465 3.90649ZM6.01465 5.90649C6.88965 5.90649 12.1396 5.90649 13.0146 5.90649C14.1192 5.90649 15.0147 6.80149 15.0146 7.90649C15.0146 7.90649 15.0146 8.68649 15.0146 8.90649C15.0146 10.0985 15.0198 13.1035 15.0198 14.0765C14.2387 14.3385 13.4881 15.0105 13.1827 15.9005C13.1827 15.9005 10.0706 15.9035 9.84015 15.9145C9.34085 14.4825 8.00735 13.8945 7.01465 13.9065C6.02195 13.9185 5.11005 14.3885 4.52285 15.2445C4.24305 15.0305 4.01465 14.4805 4.01465 13.9065V7.90649C4.01465 6.80149 4.91005 5.90649 6.01465 5.90649ZM17.0146 9.90649C18.4623 9.90649 20.0146 11.4585 20.0146 12.9065C20.0146 13.9065 20.0146 13.9065 20.0146 13.9065C20.0146 15.1035 19.6587 15.6235 18.8149 15.8235C18.5593 15.0825 17.7922 14.3275 17.0209 14.0895L17.0146 9.90649ZM7.01465 15.9065C7.54795 15.8985 8.01385 16.3505 8.01465 16.9065C8.01465 17.4585 7.56695 17.9065 7.01465 17.9065C6.46235 17.9065 6.01465 17.4585 6.01465 16.9065C6.09735 16.3555 6.49585 15.9145 7.01465 15.9065ZM16.0146 15.9065C16.5669 15.9065 17.0146 16.3545 17.0146 16.9065C17.0146 17.4585 16.5669 17.9065 16.0146 17.9065C15.4623 17.9065 15.0146 17.4585 15.0146 16.9065C15.0146 16.6305 15.1149 16.3685 15.2958 16.1875C15.4768 16.0065 15.7385 15.9065 16.0146 15.9065Z" fill="#151515"/>
</svg>
