<svg width="24" height="24" viewBox="0 0 24 24" fill="none" xmlns="http://www.w3.org/2000/svg">
<path fill-rule="evenodd" clip-rule="evenodd" d="M11.0909 9.27273H12.9091C13.3913 9.27273 13.8538 9.46429 14.1947 9.80526C14.5357 10.1462 14.7273 10.6087 14.7273 11.0909V12.9091C14.7273 13.3913 14.5357 13.8538 14.1947 14.1947C13.8538 14.5357 13.3913 14.7273 12.9091 14.7273H11.0909C10.6087 14.7273 10.1462 14.5357 9.80526 14.1947C9.46429 13.8538 9.27273 13.3913 9.27273 12.9091V11.0909C9.27273 10.6087 9.46429 10.1462 9.80526 9.80526C10.1462 9.46429 10.6087 9.27273 11.0909 9.27273ZM11.0909 2H12.9091C13.3913 2 13.8538 2.19156 14.1947 2.53253C14.5357 2.87351 14.7273 3.33597 14.7273 3.81818V5.63636C14.7273 6.11858 14.5357 6.58104 14.1947 6.92201C13.8538 7.26299 13.3913 7.45455 12.9091 7.45455H11.0909C10.6087 7.45455 10.1462 7.26299 9.80526 6.92201C9.46429 6.58104 9.27273 6.11858 9.27273 5.63636V3.81818C9.27273 3.33597 9.46429 2.87351 9.80526 2.53253C10.1462 2.19156 10.6087 2 11.0909 2ZM18.3636 9.27273H20.1818C20.664 9.27273 21.1265 9.46429 21.4675 9.80526C21.8084 10.1462 22 10.6087 22 11.0909V12.9091C22 13.3913 21.8084 13.8538 21.4675 14.1947C21.1265 14.5357 20.664 14.7273 20.1818 14.7273H18.3636C17.8814 14.7273 17.419 14.5357 17.078 14.1947C16.737 13.8538 16.5455 13.3913 16.5455 12.9091V11.0909C16.5455 10.6087 16.737 10.1462 17.078 9.80526C17.419 9.46429 17.8814 9.27273 18.3636 9.27273ZM18.3636 2H20.1818C20.664 2 21.1265 2.19156 21.4675 2.53253C21.8084 2.87351 22 3.33597 22 3.81818V5.63636C22 6.11858 21.8084 6.58104 21.4675 6.92201C21.1265 7.26299 20.664 7.45455 20.1818 7.45455H18.3636C17.8814 7.45455 17.419 7.26299 17.078 6.92201C16.737 6.58104 16.5455 6.11858 16.5455 5.63636V3.81818C16.5455 3.33597 16.737 2.87351 17.078 2.53253C17.419 2.19156 17.8814 2 18.3636 2ZM18.3636 16.5455H20.1818C20.664 16.5455 21.1265 16.737 21.4675 17.078C21.8084 17.419 22 17.8814 22 18.3636V20.1818C22 20.664 21.8084 21.1265 21.4675 21.4675C21.1265 21.8084 20.664 22 20.1818 22H18.3636C17.8814 22 17.419 21.8084 17.078 21.4675C16.737 21.1265 16.5455 20.664 16.5455 20.1818V18.3636C16.5455 17.8814 16.737 17.419 17.078 17.078C17.419 16.737 17.8814 16.5455 18.3636 16.5455ZM11.0909 16.5455H12.9091C13.3913 16.5455 13.8538 16.737 14.1947 17.078C14.5357 17.419 14.7273 17.8814 14.7273 18.3636V20.1818C14.7273 20.664 14.5357 21.1265 14.1947 21.4675C13.8538 21.8084 13.3913 22 12.9091 22H11.0909C10.6087 22 10.1462 21.8084 9.80526 21.4675C9.46429 21.1265 9.27273 20.664 9.27273 20.1818V18.3636C9.27273 17.8814 9.46429 17.419 9.80526 17.078C10.1462 16.737 10.6087 16.5455 11.0909 16.5455ZM3.81818 9.27273H5.63636C6.11858 9.27273 6.58104 9.46429 6.92201 9.80526C7.26299 10.1462 7.45455 10.6087 7.45455 11.0909V12.9091C7.45455 13.3913 7.26299 13.8538 6.92201 14.1947C6.58104 14.5357 6.11858 14.7273 5.63636 14.7273H3.81818C3.33597 14.7273 2.87351 14.5357 2.53253 14.1947C2.19156 13.8538 2 13.3913 2 12.9091V11.0909C2 10.6087 2.19156 10.1462 2.53253 9.80526C2.87351 9.46429 3.33597 9.27273 3.81818 9.27273ZM3.81818 2H5.63636C6.11858 2 6.58104 2.19156 6.92201 2.53253C7.26299 2.87351 7.45455 3.33597 7.45455 3.81818V5.63636C7.45455 6.11858 7.26299 6.58104 6.92201 6.92201C6.58104 7.26299 6.11858 7.45455 5.63636 7.45455H3.81818C3.33597 7.45455 2.87351 7.26299 2.53253 6.92201C2.19156 6.58104 2 6.11858 2 5.63636V3.81818C2 3.33597 2.19156 2.87351 2.53253 2.53253C2.87351 2.19156 3.33597 2 3.81818 2ZM3.81818 16.5455H5.63636C6.11858 16.5455 6.58104 16.737 6.92201 17.078C7.26299 17.419 7.45455 17.8814 7.45455 18.3636V20.1818C7.45455 20.664 7.26299 21.1265 6.92201 21.4675C6.58104 21.8084 6.11858 22 5.63636 22H3.81818C3.33597 22 2.87351 21.8084 2.53253 21.4675C2.19156 21.1265 2 20.664 2 20.1818V18.3636C2 17.8814 2.19156 17.419 2.53253 17.078C2.87351 16.737 3.33597 16.5455 3.81818 16.5455Z" fill="#151515"/>
</svg>
