<svg width="24" height="24" viewBox="0 0 24 24" fill="none" xmlns="http://www.w3.org/2000/svg">
<path fill-rule="evenodd" clip-rule="evenodd" d="M6.02493 4.08465L4.48486 5.62157C4.27256 5.83343 4.1689 6.05569 4.14297 6.35484C4.09063 6.99611 4.20205 7.72914 4.59596 8.78165L4.59701 8.78445C5.24129 10.5217 6.22002 12.1613 7.72417 13.9708C9.52574 16.1165 11.6885 17.8047 14.1493 18.9939C15.0746 19.4354 16.1934 19.8928 17.3523 19.9668L17.355 19.967C17.3847 19.969 17.424 19.9693 17.4993 19.9693C17.9422 19.9693 18.2172 19.846 18.4785 19.5727C18.6604 19.3631 19.0378 18.9797 19.3408 18.6758C19.5054 18.5106 19.6608 18.3562 19.7749 18.2433L19.8127 18.2059C19.8296 18.1549 19.8456 18.0978 19.8566 18.0409C19.8622 18.0116 19.8659 17.9857 19.868 17.9636L17.5403 15.6407L17.4286 15.5834L16.5844 16.4259C16.5823 16.428 16.58 16.4303 16.5775 16.4328C16.4669 16.5436 15.9782 17.0334 15.1819 17.0334C14.856 17.0334 14.5575 16.9515 14.282 16.814C14.2487 16.7973 14.2218 16.7819 14.205 16.7719C14.1966 16.767 14.1887 16.7622 14.1827 16.7584C14.1706 16.7516 14.1587 16.7446 14.1469 16.7373C14.0608 16.684 13.9493 16.6274 13.7736 16.5398L13.7596 16.5328C13.5842 16.4452 13.3536 16.3302 13.1228 16.1842C11.5556 15.1951 10.15 13.9146 8.83367 12.3007C8.82226 12.2877 8.8112 12.2744 8.80048 12.2608C8.06648 11.3308 7.55267 10.5107 7.18216 9.615C7.17326 9.59348 7.16512 9.57167 7.15774 9.54958L7.144 9.50845L7.13908 9.49333C7.08314 9.31655 6.99469 8.99465 7.03961 8.60739C7.08584 8.20887 7.26235 7.82393 7.58496 7.48648C7.63284 7.43201 7.6732 7.39749 7.68983 7.38327M7.69093 7.38233C7.79228 7.2917 7.8572 7.2356 7.90373 7.19695C7.91864 7.18457 7.93149 7.17412 7.94285 7.16504C7.95672 7.1509 7.97318 7.13402 7.99519 7.11145C8.02453 7.08137 8.06373 7.04118 8.1198 6.9839C8.12663 6.97692 8.13357 6.97003 8.1406 6.96326C8.2211 6.88569 8.29341 6.81266 8.37463 6.73062C8.41996 6.68483 8.46807 6.63624 8.52193 6.58249C8.52174 6.58268 8.52212 6.5823 8.52193 6.58249C8.52174 6.5823 8.52212 6.58154 8.52193 6.58134L7.27167 5.33364L7.26087 5.32269C7.19081 5.25059 7.12035 5.17916 7.04733 5.10515C6.97508 5.03191 6.89971 4.95551 6.82546 4.87902C6.548 4.59304 6.29669 4.33825 6.03664 4.09575C6.03271 4.09208 6.0288 4.08838 6.02493 4.08465M18.8469 14.1191L21.3622 16.6292C21.3629 16.63 21.3637 16.6307 21.3644 16.6315C21.9786 17.2407 21.89 18.059 21.8203 18.4202C21.7778 18.6399 21.7157 18.8303 21.6664 18.9624C21.6413 19.0299 21.6181 19.0859 21.6001 19.1271C21.5911 19.1479 21.5834 19.1651 21.5772 19.1785L21.5692 19.1957L21.5661 19.2021L21.5643 19.2059C21.5642 19.2062 21.5638 19.207 20.6638 18.771L21.5638 19.207C21.5138 19.3102 21.4464 19.4041 21.3645 19.4844L21.3154 19.5328L21.1818 19.6648C21.0698 19.7756 20.9178 19.9267 20.7572 20.0877C20.4207 20.4253 20.0932 20.761 19.9828 20.8908C19.9724 20.9029 19.9618 20.9148 19.9509 20.9264C19.291 21.6306 18.4778 21.9693 17.4993 21.9693L17.4901 21.9693C17.427 21.9694 17.3248 21.9694 17.2222 21.9626C15.6627 21.8624 14.2554 21.2606 13.2857 20.7978L13.2814 20.7957C10.5595 19.4808 8.17132 17.6142 6.19087 15.2549L6.18782 15.2513C4.56989 13.3052 3.46089 11.4723 2.72233 9.48131C2.26516 8.2594 2.06518 7.21992 2.14983 6.18927L2.15012 6.1858C2.21602 5.41631 2.52454 4.75234 3.07209 4.20591L4.63377 2.64743C4.64122 2.63999 4.64878 2.63268 4.65646 2.62548C4.99548 2.30787 5.46611 2.03076 6.03627 2.03076C6.72531 2.03076 7.20228 2.43428 7.41128 2.64286L7.41325 2.64481C7.70714 2.91953 7.98327 3.20021 8.26051 3.48596C8.32823 3.55572 8.39754 3.62599 8.4707 3.70014L8.47366 3.70315C8.54329 3.77374 8.61633 3.84777 8.68982 3.92335L9.9347 5.16568C10.2724 5.50269 10.5924 5.97574 10.5924 6.58192C10.5924 7.1881 10.2724 7.66114 9.9347 7.99815C9.89886 8.03392 9.85957 8.07357 9.81822 8.1153C9.73006 8.20429 9.63256 8.30269 9.53925 8.39293C9.49483 8.43833 9.45809 8.47598 9.42879 8.50601C9.40172 8.53375 9.38101 8.55499 9.36645 8.5698C9.36512 8.57116 9.36374 8.57257 9.3623 8.57404C9.33539 8.60146 9.28953 8.64822 9.23275 8.69472C9.21991 8.70523 9.20908 8.71367 9.20386 8.71772L9.1948 8.72475C9.1937 8.7256 9.19008 8.72843 9.18161 8.73546C9.16282 8.75107 9.12222 8.78567 9.0402 8.85881C9.03925 8.85977 9.0383 8.86072 9.03735 8.86167C9.03909 8.86779 9.0411 8.87454 9.04343 8.88206C9.31981 9.54078 9.71432 10.1874 10.3507 10.9968C10.3558 11.0027 10.3609 11.0088 10.3658 11.0149C11.5718 12.4975 12.8253 13.6315 14.1905 14.4931L14.1916 14.4937C14.3299 14.5813 14.4775 14.6558 14.6666 14.7502L14.6848 14.7592C14.8263 14.8298 15.0025 14.9177 15.1657 15.0161C15.1675 15.0144 15.1694 15.0125 15.1716 15.0103L16.0693 14.1144C16.27 13.9141 16.7643 13.4795 17.4672 13.4795C18.1479 13.4795 18.6229 13.8798 18.8469 14.1191Z" fill="#151515"/>
</svg>
