<svg width="24" height="24" viewBox="0 0 24 24" fill="none" xmlns="http://www.w3.org/2000/svg">
<path fill-rule="evenodd" clip-rule="evenodd" d="M11.9999 3.3999C7.25025 3.3999 3.3999 7.25025 3.3999 11.9999C3.3999 16.7495 7.25025 20.5999 11.9999 20.5999C16.7495 20.5999 20.5999 16.7495 20.5999 11.9999C20.5999 7.25025 16.7495 3.3999 11.9999 3.3999ZM1.3999 11.9999C1.3999 6.14568 6.14568 1.3999 11.9999 1.3999C17.8541 1.3999 22.5999 6.14568 22.5999 11.9999C22.5999 17.8541 17.8541 22.5999 11.9999 22.5999C6.14568 22.5999 1.3999 17.8541 1.3999 11.9999ZM16.307 7.69279C16.6975 8.08332 16.6975 8.71648 16.307 9.10701L9.10701 16.307C8.71648 16.6975 8.08332 16.6975 7.69279 16.307C7.30227 15.9165 7.30227 15.2833 7.69279 14.8928L14.8928 7.69279C15.2833 7.30227 15.9165 7.30227 16.307 7.69279ZM8.23613 8.22428C8.62862 7.83574 9.26177 7.83893 9.65032 8.23143L9.66447 8.24572C10.053 8.63821 10.0498 9.27137 9.65733 9.65991C9.26484 10.0485 8.63168 10.0453 8.24313 9.65277L8.22898 9.63848C7.84044 9.24599 7.84364 8.61283 8.23613 8.22428ZM14.3467 14.3976C14.7392 14.0091 15.3723 14.0123 15.7609 14.4048L15.775 14.4191C16.1635 14.8116 16.1603 15.4447 15.7678 15.8333C15.3753 16.2218 14.7422 16.2186 14.3536 15.8261L14.3395 15.8118C13.9509 15.4193 13.9542 14.7862 14.3467 14.3976Z" fill="#151515"/>
</svg>
