<svg width="24" height="24" viewBox="0 0 24 24" fill="none" xmlns="http://www.w3.org/2000/svg">
<path d="M22 12C22 17.5228 17.5228 22 12 22C6.47715 22 2 17.5228 2 12C2 6.47715 6.47715 2 12 2C17.5228 2 22 6.47715 22 12Z" fill="#151515"/>
<path d="M16.9169 8.22042C16.5404 7.8941 15.9706 7.9348 15.6443 8.31133L10.9093 13.7747L8.2901 11.1555C7.93778 10.8032 7.36656 10.8032 7.01424 11.1555C6.66192 11.5079 6.66192 12.0791 7.01424 12.4314L10.3186 15.7357C10.4956 15.9128 10.7384 16.0083 10.9887 15.9994C11.2389 15.9905 11.4742 15.8779 11.6383 15.6886L17.0078 9.49304C17.3341 9.11652 17.2934 8.54675 16.9169 8.22042Z" fill="#E0FF63"/>
</svg>
