<svg width="24" height="24" viewBox="0 0 24 24" fill="none" xmlns="http://www.w3.org/2000/svg">
<path fill-rule="evenodd" clip-rule="evenodd" d="M15.9443 4.88886C15.5907 4.88886 15.2516 5.02934 15.0015 5.27939C14.7515 5.52943 14.611 5.86857 14.611 6.2222C14.611 6.57582 14.7515 6.91496 15.0015 7.165C15.2516 7.41505 15.5907 7.55553 15.9443 7.55553C16.298 7.55553 16.6371 7.41505 16.8871 7.165C17.1372 6.91496 17.2777 6.57582 17.2777 6.2222C17.2777 5.86857 17.1372 5.52943 16.8871 5.27939C16.6371 5.02934 16.298 4.88886 15.9443 4.88886ZM13.7444 4.02231C14.3279 3.43886 15.1192 3.11108 15.9443 3.11108C16.7695 3.11108 17.5608 3.43886 18.1442 4.02231C18.7277 4.60575 19.0554 5.39708 19.0554 6.2222C19.0554 7.04731 18.7277 7.83864 18.1442 8.42208C17.5608 9.00553 16.7695 9.33331 15.9443 9.33331C15.1192 9.33331 14.3279 9.00553 13.7444 8.42208C13.6972 8.3748 13.6516 8.32615 13.6077 8.27622L9.94286 10.8416C10.0892 11.2064 10.1666 11.5992 10.1666 12C10.1666 12.4007 10.0892 12.7935 9.94286 13.1584L13.6077 15.7237C13.6516 15.6738 13.6972 15.6251 13.7444 15.5779C14.3279 14.9944 15.1192 14.6666 15.9443 14.6666C16.7695 14.6666 17.5608 14.9944 18.1442 15.5779C18.7277 16.1613 19.0554 16.9526 19.0554 17.7778C19.0554 18.6029 18.7277 19.3942 18.1442 19.9776C17.5608 20.5611 16.7695 20.8889 15.9443 20.8889C15.1192 20.8889 14.3279 20.5611 13.7444 19.9776C13.161 19.3942 12.8332 18.6029 12.8332 17.7778C12.8332 17.6408 12.8423 17.5047 12.86 17.3704L8.83427 14.5524C8.31596 14.9136 7.69588 15.1111 7.05545 15.1111C6.23033 15.1111 5.43901 14.7833 4.85556 14.1999C4.27211 13.6164 3.94434 12.8251 3.94434 12C3.94434 11.1749 4.27211 10.3835 4.85556 9.80009C5.43901 9.21664 6.23033 8.88886 7.05545 8.88886C7.69588 8.88886 8.31596 9.08633 8.83427 9.44755L12.86 6.62954C12.8423 6.49522 12.8332 6.35917 12.8332 6.2222C12.8332 5.39708 13.161 4.60575 13.7444 4.02231ZM7.05545 10.6666C6.70183 10.6666 6.36269 10.8071 6.11264 11.0572C5.86259 11.3072 5.72211 11.6464 5.72211 12C5.72211 12.3536 5.86259 12.6927 6.11264 12.9428C6.36269 13.1928 6.70183 13.3333 7.05545 13.3333C7.40907 13.3333 7.74821 13.1928 7.99826 12.9428C8.2483 12.6927 8.38878 12.3536 8.38878 12C8.38878 11.6464 8.2483 11.3072 7.99826 11.0572C7.74821 10.8071 7.40907 10.6666 7.05545 10.6666ZM15.9443 16.4444C15.5907 16.4444 15.2516 16.5849 15.0015 16.8349C14.7515 17.085 14.611 17.4241 14.611 17.7778C14.611 18.1314 14.7515 18.4705 15.0015 18.7206C15.2516 18.9706 15.5907 19.1111 15.9443 19.1111C16.298 19.1111 16.6371 18.9706 16.8871 18.7206C17.1372 18.4705 17.2777 18.1314 17.2777 17.7778C17.2777 17.4241 17.1372 17.085 16.8871 16.8349C16.6371 16.5849 16.298 16.4444 15.9443 16.4444Z" fill="#151515"/>
</svg>
