<svg width="24" height="24" viewBox="0 0 24 24" fill="none" xmlns="http://www.w3.org/2000/svg">
<path d="M6.01465 4C3.80565 4 2.01465 5.791 2.01465 8V16C2.01465 18.209 3.80565 20 6.01465 20H18.0147C20.2237 20 22.0147 18.209 22.0147 16V8C22.0147 5.791 20.2237 4 18.0147 4H6.01465ZM6.01465 6H18.0147C19.0227 6 19.8557 6.74 19.9937 7.71C19.0357 8.603 17.6117 9.69899 16.6707 10.375C14.5057 11.93 12.6007 13 12.0147 13C11.4287 13 9.52365 11.931 7.35865 10.375C6.41765 9.69899 5.49266 8.968 4.79566 8.375C4.49866 8.122 4.27865 7.918 4.10865 7.75C4.24665 6.78 5.00665 6 6.01465 6ZM4.02466 10.354C6.56267 12.407 10.2817 14.988 12.0147 15C13.1437 15.008 15.0747 13.93 17.0447 12.569C18.0637 11.864 19.1977 11.027 20.0157 10.34L20.0147 16C20.0147 17.105 19.1197 18 18.0147 18H6.01465C4.90965 18 4.01465 17.105 4.01465 16L4.02466 10.354Z" fill="#151515"/>
</svg>
