<svg width="24" height="25" viewBox="0 0 24 25" fill="none" xmlns="http://www.w3.org/2000/svg">
<path d="M17 3.9395C18.5202 4.81719 19.7826 6.07958 20.6603 7.59978C21.538 9.11999 22 10.8444 22 12.5998C22 14.3552 21.5379 16.0796 20.6602 17.5998C19.7825 19.12 18.5201 20.3824 16.9999 21.2601C15.4797 22.1377 13.7552 22.5998 11.9998 22.5998C10.2445 22.5997 8.52002 22.1376 6.99984 21.2599C5.47965 20.3822 4.21729 19.1198 3.33963 17.5996C2.46198 16.0793 1.99996 14.3549 2 12.5995L2.005 12.2755C2.061 10.5485 2.56355 8.86546 3.46364 7.39049C4.36373 5.91553 5.63065 4.69895 7.14089 3.85938C8.65113 3.01981 10.3531 2.5859 12.081 2.59994C13.8089 2.61398 15.5036 3.0755 17 3.9395ZM12 15.5995C11.7348 15.5995 11.4804 15.7049 11.2929 15.8924C11.1054 16.0799 11 16.3343 11 16.5995V16.6095C11 16.8747 11.1054 17.1291 11.2929 17.3166C11.4804 17.5041 11.7348 17.6095 12 17.6095C12.2652 17.6095 12.5196 17.5041 12.7071 17.3166C12.8946 17.1291 13 16.8747 13 16.6095V16.5995C13 16.3343 12.8946 16.0799 12.7071 15.8924C12.5196 15.7049 12.2652 15.5995 12 15.5995ZM12 8.5995C11.7348 8.5995 11.4804 8.70486 11.2929 8.8924C11.1054 9.07993 11 9.33429 11 9.5995V13.5995C11 13.8647 11.1054 14.1191 11.2929 14.3066C11.4804 14.4941 11.7348 14.5995 12 14.5995C12.2652 14.5995 12.5196 14.4941 12.7071 14.3066C12.8946 14.1191 13 13.8647 13 13.5995V9.5995C13 9.33429 12.8946 9.07993 12.7071 8.8924C12.5196 8.70486 12.2652 8.5995 12 8.5995Z" fill="#FC0626"/>
</svg>
