<svg width="24" height="24" viewBox="0 0 24 24" fill="none" xmlns="http://www.w3.org/2000/svg">
<path fill-rule="evenodd" clip-rule="evenodd" d="M10.3252 2.57938C10.4841 2.22706 10.8386 2 11.2297 2C12.2207 2 13.1711 2.38802 13.8718 3.0787C14.5725 3.76938 14.9662 4.70614 14.9662 5.68291V8.31703H19.1534C19.5602 8.31337 19.963 8.39648 20.3342 8.56069C20.7072 8.72573 21.0394 8.96875 21.3078 9.2729C21.5761 9.57706 21.7741 9.93508 21.8881 10.3222C22.0022 10.7093 22.0294 11.1161 21.9681 11.5146L20.7046 19.6364C20.6025 20.2991 20.2607 20.9039 19.7426 21.3381C19.2257 21.7711 18.568 22.006 17.8898 21.9999H7.93873V7.87211L10.3252 2.57938ZM5.95915 10.1219H4.82089C4.07274 10.1219 3.35524 10.4148 2.82622 10.9363C2.2972 11.4577 2 12.1649 2 12.9024V19.2194C2 19.9568 2.2972 20.6641 2.82622 21.1855C3.35524 21.7069 4.07274 21.9999 4.82089 21.9999H5.95915V10.1219Z" fill="#151515"/>
</svg>
