<svg width="24" height="24" viewBox="0 0 24 24" fill="none" xmlns="http://www.w3.org/2000/svg">
<path fill-rule="evenodd" clip-rule="evenodd" d="M9.60827 2.06574C10.3776 1.89163 11.1786 1.7998 12.0004 1.7998C12.8222 1.7998 13.6232 1.89165 14.3927 2.06578C15.2892 2.26868 15.7257 3.04131 15.8964 3.58605C16.0288 4.00838 16.322 4.39132 16.7627 4.6377C17.1755 4.86852 17.6408 4.93603 18.08 4.85837C18.6454 4.75841 19.5011 4.80625 20.0802 5.48269C20.8163 6.3426 21.4108 7.32341 21.8267 8.39142C22.2109 9.37777 21.6428 10.2545 21.1704 10.6938C20.8088 11.0301 20.5926 11.493 20.5926 11.9998C20.5926 12.5066 20.8088 12.9694 21.1704 13.3057C21.6428 13.7451 22.2109 14.6218 21.8267 15.6081C21.4109 16.6758 20.8167 17.6564 20.0809 18.5161C19.5017 19.1928 18.6457 19.2406 18.0802 19.1405C17.6409 19.0628 17.1756 19.1303 16.7626 19.3611C16.3218 19.6076 16.0286 19.9907 15.8963 20.4131C15.7256 20.958 15.2891 21.731 14.3923 21.9339C13.623 22.108 12.8221 22.1998 12.0004 22.1998C11.1786 22.1998 10.3777 22.108 9.6083 21.9339C8.7117 21.731 8.27525 20.9583 8.10451 20.4136C7.97213 19.9912 7.67895 19.6083 7.23822 19.3619C6.82534 19.1311 6.36007 19.0636 5.92083 19.1412C5.35547 19.2412 4.49968 19.1934 3.92061 18.5169C3.1845 17.657 2.59005 16.6763 2.17408 15.6083C1.78988 14.6219 2.35804 13.7451 2.83048 13.3058C3.19208 12.9695 3.40836 12.5066 3.40836 11.9998C3.40836 11.4929 3.19208 11.0301 2.83048 10.6938C2.35805 10.2544 1.78989 9.37768 2.1741 8.39128C2.59005 7.32336 3.18447 6.34263 3.92053 5.48277C4.4996 4.80629 5.35541 4.75847 5.92078 4.85846C6.36003 4.93614 6.8253 4.86863 7.23818 4.6378C7.67892 4.39141 7.97211 4.00845 8.10448 3.5861C8.27521 3.04133 8.71166 2.26864 9.60827 2.06574ZM10.0444 3.9151C10.0409 3.91842 10.0359 3.92356 10.0294 3.93117C9.99617 3.97007 9.9519 4.04463 9.91751 4.15433C9.6422 5.03276 9.03628 5.80932 8.16534 6.29623C7.35326 6.75023 6.44102 6.87994 5.58991 6.72942C5.48851 6.71149 5.41164 6.7168 5.36865 6.72711C5.36154 6.72881 5.35627 6.73038 5.35255 6.73164C4.76213 7.42428 4.28682 8.20934 3.95289 9.05952C3.95416 9.06397 3.95606 9.06988 3.9589 9.07742C3.97939 9.13177 4.03206 9.21659 4.12443 9.30249C4.84875 9.97614 5.30836 10.9335 5.30836 11.9998C5.30836 13.0661 4.84874 14.0234 4.12441 14.6971C4.03205 14.783 3.97938 14.8678 3.95889 14.9222C3.95605 14.9297 3.95414 14.9356 3.95287 14.94C4.28682 15.7903 4.76215 16.5754 5.35261 17.268C5.35634 17.2693 5.3616 17.2709 5.36872 17.2726C5.4117 17.2829 5.48858 17.2882 5.58997 17.2703C6.44107 17.1197 7.3533 17.2495 8.16538 17.7035C9.0363 18.1904 9.64221 18.9669 9.91753 19.8453C9.95192 19.955 9.99619 20.0295 10.0294 20.0684C10.0359 20.0761 10.0409 20.0812 10.0445 20.0845C10.6719 20.2252 11.3265 20.2998 12.0004 20.2998C12.6742 20.2998 13.3288 20.2252 13.9562 20.0845C13.9597 20.0812 13.9648 20.0761 13.9713 20.0685C14.0045 20.0295 14.0487 19.955 14.0831 19.8452C14.3583 18.9665 14.9643 18.1897 15.8355 17.7027C16.6477 17.2486 17.5601 17.119 18.4113 17.2696C18.5127 17.2875 18.5896 17.2822 18.6326 17.2719C18.6397 17.2702 18.645 17.2686 18.6487 17.2674C19.2389 16.5748 19.7141 15.7899 20.0479 14.9399C20.0467 14.9355 20.0448 14.9296 20.0419 14.922C20.0214 14.8677 19.9688 14.7829 19.8764 14.697C19.1522 14.0233 18.6926 13.066 18.6926 11.9998C18.6926 10.9336 19.1521 9.97623 19.8764 9.3026C19.9688 9.2167 20.0214 9.13188 20.0419 9.07753C20.0448 9.07 20.0467 9.06409 20.0479 9.05964C19.714 8.20939 19.2386 7.42426 18.6482 6.73158C18.6444 6.73032 18.6392 6.72874 18.6321 6.72704C18.5891 6.71674 18.5122 6.71143 18.4108 6.72935C17.5597 6.87983 16.6476 6.7501 15.8355 6.29613C14.9646 5.80924 14.3587 5.03273 14.0834 4.15434C14.049 4.04465 14.0047 3.9701 13.9715 3.9312C13.965 3.92359 13.96 3.91845 13.9565 3.91513C13.329 3.77442 12.6743 3.6998 12.0004 3.6998C11.3265 3.6998 10.6718 3.77441 10.0444 3.9151ZM20.0503 9.04879C20.0504 9.04879 20.0503 9.04917 20.0502 9.04997L20.0503 9.04879ZM3.95045 14.9509C3.95043 14.9509 3.95046 14.9505 3.95058 14.9497L3.95045 14.9509ZM8.05052 11.9998C8.05052 9.81828 9.819 8.0498 12.0005 8.0498C14.182 8.0498 15.9505 9.81828 15.9505 11.9998C15.9505 14.1813 14.182 15.9498 12.0005 15.9498C9.819 15.9498 8.05052 14.1813 8.05052 11.9998ZM12.0005 9.9498C10.8683 9.9498 9.95052 10.8676 9.95052 11.9998C9.95052 13.132 10.8683 14.0498 12.0005 14.0498C13.1327 14.0498 14.0505 13.132 14.0505 11.9998C14.0505 10.8676 13.1327 9.9498 12.0005 9.9498Z" fill="#151515"/>
</svg>
