<svg width="24" height="24" viewBox="0 0 24 24" fill="none" xmlns="http://www.w3.org/2000/svg">
<path fill-rule="evenodd" clip-rule="evenodd" d="M11 4C7.13401 4 4 7.13401 4 11C4 14.866 7.13401 18 11 18C12.8835 18 14.5933 17.2561 15.8515 16.0461C15.8791 16.0096 15.9095 15.9746 15.9428 15.9413C15.976 15.9081 16.0109 15.8778 16.0473 15.8502C17.2566 14.5921 18 12.8829 18 11C18 7.13401 14.866 4 11 4ZM18.0326 16.6169C19.2638 15.0773 20 13.1246 20 11C20 6.02944 15.9706 2 11 2C6.02944 2 2 6.02944 2 11C2 15.9706 6.02944 20 11 20C13.1254 20 15.0787 19.2633 16.6185 18.0312L20.2928 21.7055C20.6833 22.0961 21.3165 22.0961 21.707 21.7055C22.0975 21.315 22.0975 20.6819 21.707 20.2913L18.0326 16.6169Z" fill="#151515"/>
<path d="M9.77485 8.27001C10.024 7.54084 11.0315 7.51876 11.3269 8.20376L11.3519 8.27043L11.6882 9.25376C11.7652 9.47927 11.8898 9.68564 12.0534 9.85894C12.217 10.0322 12.4158 10.1684 12.6365 10.2583L12.7269 10.2921L13.7103 10.6279C14.4394 10.8771 14.4615 11.8846 13.7769 12.18L13.7103 12.205L12.7269 12.5413C12.5013 12.6183 12.2949 12.7428 12.1215 12.9064C11.9482 13.07 11.8119 13.2688 11.7219 13.4896L11.6882 13.5796L11.3524 14.5633C11.1032 15.2925 10.0957 15.3146 9.80068 14.63L9.77485 14.5633L9.43902 13.58C9.36201 13.3544 9.23751 13.148 9.07391 12.9746C8.91031 12.8012 8.71143 12.665 8.49068 12.575L8.40068 12.5413L7.41735 12.2054C6.68777 11.9563 6.66568 10.9488 7.35068 10.6538L7.41735 10.6279L8.40068 10.2921C8.6262 10.215 8.83256 10.0905 9.00586 9.92691C9.17916 9.76332 9.31536 9.56446 9.40527 9.34376L9.43902 9.25376L9.77485 8.27001ZM13.8969 6.83334C13.9749 6.83334 14.0513 6.85521 14.1174 6.89646C14.1836 6.9377 14.2368 6.99668 14.2711 7.06668L14.2911 7.11543L14.4369 7.54293L14.8649 7.68876C14.943 7.7153 15.0114 7.76443 15.0616 7.82993C15.1118 7.89543 15.1414 7.97435 15.1466 8.05669C15.1519 8.13902 15.1326 8.22106 15.0912 8.29242C15.0498 8.36378 14.9881 8.42123 14.914 8.45751L14.8649 8.47751L14.4374 8.62334L14.2915 9.05126C14.2649 9.12936 14.2158 9.1978 14.1502 9.24792C14.0847 9.29805 14.0058 9.32759 13.9235 9.33281C13.8411 9.33803 13.7591 9.3187 13.6878 9.27725C13.6164 9.23581 13.559 9.17412 13.5228 9.10001L13.5028 9.05126L13.3569 8.62376L12.929 8.47793C12.8509 8.45139 12.7824 8.40225 12.7323 8.33675C12.6821 8.27125 12.6525 8.19234 12.6472 8.11C12.642 8.02767 12.6613 7.94562 12.7027 7.87427C12.7441 7.80291 12.8058 7.74545 12.8799 7.70918L12.929 7.68918L13.3565 7.54334L13.5024 7.11543C13.5304 7.0331 13.5836 6.96164 13.6544 6.91105C13.7251 6.86046 13.8099 6.83329 13.8969 6.83334Z" fill="#151515"/>
</svg>
