<svg width="24" height="24" viewBox="0 0 24 24" fill="none" xmlns="http://www.w3.org/2000/svg">
<path fill-rule="evenodd" clip-rule="evenodd" d="M12.5383 5.92466C13.1303 5.33261 13.9333 5 14.7706 5C15.6079 5 16.4109 5.33261 17.0029 5.92466C17.3523 6.27406 17.6114 6.69694 17.765 7.15698H19.8528C20.405 7.15698 20.8528 7.60469 20.8528 8.15698C20.8528 8.70926 20.405 9.15698 19.8528 9.15698H17.765C17.6114 9.61701 17.3523 10.0399 17.0029 10.3893C16.4109 10.9813 15.6079 11.314 14.7706 11.314C13.9333 11.314 13.1303 10.9813 12.5383 10.3893C12.1889 10.0399 11.9298 9.61701 11.7762 9.15698H3.64844C3.09615 9.15698 2.64844 8.70926 2.64844 8.15698C2.64844 7.60469 3.09615 7.15698 3.64844 7.15698H11.7762C11.9298 6.69694 12.1889 6.27406 12.5383 5.92466ZM14.7706 7C14.4638 7 14.1695 7.1219 13.9525 7.33887C13.7355 7.55585 13.6136 7.85013 13.6136 8.15698C13.6136 8.46383 13.7355 8.75811 13.9525 8.97508C14.1695 9.19206 14.4638 9.31395 14.7706 9.31395C15.0775 9.31395 15.3717 9.19206 15.5887 8.97508C15.8057 8.75811 15.9276 8.46383 15.9276 8.15698C15.9276 7.85013 15.8057 7.55585 15.5887 7.33887C15.3717 7.1219 15.0775 7 14.7706 7ZM6.49828 13.5947C7.09032 13.0027 7.89331 12.67 8.73059 12.67C9.14517 12.67 9.5557 12.7517 9.93872 12.9104C10.3217 13.069 10.6698 13.3016 10.9629 13.5947C11.2561 13.8879 11.4886 14.2359 11.6473 14.6189C11.6756 14.6874 11.7016 14.7569 11.725 14.827H19.8528C20.405 14.827 20.8528 15.2747 20.8528 15.827C20.8528 16.3793 20.405 16.827 19.8528 16.827H11.725C11.7016 16.8972 11.6756 16.9666 11.6473 17.0351C11.4886 17.4182 11.2561 17.7662 10.9629 18.0593C10.6698 18.3525 10.3217 18.585 9.93872 18.7437C9.5557 18.9023 9.14518 18.984 8.73059 18.984C7.89331 18.984 7.09032 18.6514 6.49828 18.0593C6.14851 17.7096 5.8901 17.2866 5.73695 16.827H3.64844C3.09615 16.827 2.64844 16.3793 2.64844 15.827C2.64844 15.2747 3.09615 14.827 3.64844 14.827H5.73695C5.8901 14.3674 6.14851 13.9445 6.49828 13.5947ZM8.73059 14.67C8.42375 14.67 8.12946 14.7919 7.91249 15.0089C7.69652 15.2249 7.57482 15.5187 7.57482 15.827C7.57482 16.1353 7.69652 16.4292 7.91249 16.6451C8.12946 16.8621 8.42375 16.984 8.73059 16.984C8.88253 16.984 9.03298 16.9541 9.17335 16.8959C9.31372 16.8378 9.44127 16.7526 9.5487 16.6451C9.65613 16.5377 9.74136 16.4102 9.7995 16.2698C9.85764 16.1294 9.88757 15.979 9.88757 15.827C9.88757 15.6751 9.85764 15.5246 9.7995 15.3843C9.74136 15.2439 9.65614 15.1164 9.5487 15.0089C9.44127 14.9015 9.31372 14.8163 9.17335 14.7581C9.03298 14.7 8.88253 14.67 8.73059 14.67Z" fill="#151515"/>
</svg>
