<svg width="24" height="24" viewBox="0 0 24 24" fill="none" xmlns="http://www.w3.org/2000/svg">
<path d="M11.2905 15.29C11.2481 15.338 11.2081 15.3881 11.1705 15.44C11.133 15.496 11.1028 15.5565 11.0805 15.62C11.0511 15.6764 11.0308 15.7372 11.0205 15.8C11.0157 15.8666 11.0157 15.9334 11.0205 16C11.0171 16.1312 11.0445 16.2613 11.1005 16.38C11.1454 16.5041 11.2171 16.6168 11.3104 16.7101C11.4037 16.8034 11.5164 16.8751 11.6405 16.92C11.7602 16.9729 11.8896 17.0002 12.0205 17.0002C12.1514 17.0002 12.2808 16.9729 12.4005 16.92C12.5246 16.8751 12.6373 16.8034 12.7306 16.7101C12.8239 16.6168 12.8956 16.5041 12.9405 16.38C12.9849 16.2584 13.0053 16.1294 13.0005 16C13.0013 15.8684 12.976 15.7379 12.9263 15.6161C12.8765 15.4943 12.8032 15.3834 12.7105 15.29C12.6175 15.1963 12.5069 15.1219 12.3851 15.0711C12.2632 15.0203 12.1325 14.9942 12.0005 14.9942C11.8685 14.9942 11.7378 15.0203 11.6159 15.0711C11.4941 15.1219 11.3835 15.1963 11.2905 15.29ZM12.0005 2C10.0227 2 8.08928 2.58649 6.44479 3.6853C4.8003 4.78412 3.51857 6.3459 2.7617 8.17317C2.00482 10.0004 1.80679 12.0111 2.19264 13.9509C2.57849 15.8907 3.5309 17.6725 4.92943 19.0711C6.32795 20.4696 8.10978 21.422 10.0496 21.8079C11.9894 22.1937 14.0001 21.9957 15.8273 21.2388C17.6546 20.4819 19.2164 19.2002 20.3152 17.5557C21.414 15.9112 22.0005 13.9778 22.0005 12C22.0005 10.6868 21.7418 9.38642 21.2393 8.17317C20.7367 6.95991 20.0001 5.85752 19.0716 4.92893C18.143 4.00035 17.0406 3.26375 15.8273 2.7612C14.6141 2.25866 13.3137 2 12.0005 2ZM12.0005 20C10.4182 20 8.87152 19.5308 7.55593 18.6518C6.24034 17.7727 5.21496 16.5233 4.60946 15.0615C4.00396 13.5997 3.84553 11.9911 4.15421 10.4393C4.46289 8.88743 5.22482 7.46197 6.34364 6.34315C7.46246 5.22433 8.88792 4.4624 10.4398 4.15372C11.9916 3.84504 13.6002 4.00346 15.062 4.60896C16.5238 5.21447 17.7732 6.23984 18.6522 7.55544C19.5313 8.87103 20.0005 10.4177 20.0005 12C20.0005 14.1217 19.1576 16.1566 17.6573 17.6569C16.1571 19.1571 14.1222 20 12.0005 20ZM12.0005 7C11.4736 6.99966 10.9558 7.13812 10.4994 7.40144C10.043 7.66476 9.66396 8.04366 9.40049 8.5C9.32814 8.61382 9.27956 8.7411 9.25767 8.87418C9.23578 9.00726 9.24103 9.14339 9.27312 9.27439C9.30521 9.40538 9.36346 9.52854 9.44438 9.63643C9.52529 9.74433 9.6272 9.83475 9.74396 9.90224C9.86073 9.96974 9.98994 10.0129 10.1238 10.0292C10.2577 10.0454 10.3935 10.0345 10.523 9.99688C10.6526 9.9593 10.7731 9.89591 10.8775 9.81052C10.9819 9.72513 11.068 9.6195 11.1305 9.5C11.2186 9.3474 11.3455 9.22078 11.4982 9.13298C11.651 9.04518 11.8243 8.9993 12.0005 9C12.2657 9 12.5201 9.10536 12.7076 9.29289C12.8951 9.48043 13.0005 9.73478 13.0005 10C13.0005 10.2652 12.8951 10.5196 12.7076 10.7071C12.5201 10.8946 12.2657 11 12.0005 11C11.7353 11 11.4809 11.1054 11.2934 11.2929C11.1059 11.4804 11.0005 11.7348 11.0005 12V13C11.0005 13.2652 11.1059 13.5196 11.2934 13.7071C11.4809 13.8946 11.7353 14 12.0005 14C12.2657 14 12.5201 13.8946 12.7076 13.7071C12.8951 13.5196 13.0005 13.2652 13.0005 13V12.82C13.6619 12.58 14.2179 12.1152 14.5713 11.5069C14.9247 10.8985 15.053 10.1853 14.9339 9.49189C14.8147 8.79849 14.4557 8.16902 13.9195 7.71352C13.3833 7.25801 12.704 7.00546 12.0005 7Z" fill="#151515"/>
</svg>
