<svg width="24" height="24" viewBox="0 0 24 24" fill="none" xmlns="http://www.w3.org/2000/svg">
<path fill-rule="evenodd" clip-rule="evenodd" d="M8.01612 2.73612C8.19533 2.4289 8.52423 2.23999 8.8799 2.23999H15.1199C15.4756 2.23999 15.8045 2.4289 15.9837 2.73612L17.3743 5.11999H19.1999C21.0777 5.11999 22.5999 6.64222 22.5999 8.51999V18.36C22.5999 20.2378 21.0777 21.76 19.1999 21.76H4.7999C2.92213 21.76 1.3999 20.2378 1.3999 18.36V8.51999C1.3999 6.64222 2.92213 5.11999 4.7999 5.11999H6.62553L8.01612 2.73612ZM9.45427 4.23999L8.06368 6.62386C7.88447 6.93108 7.55557 7.11999 7.1999 7.11999H4.7999C4.0267 7.11999 3.3999 7.74679 3.3999 8.51999V18.36C3.3999 19.1332 4.0267 19.76 4.7999 19.76H19.1999C19.9731 19.76 20.5999 19.1332 20.5999 18.36V8.51999C20.5999 7.74679 19.9731 7.11999 19.1999 7.11999H16.7999C16.4442 7.11999 16.1153 6.93108 15.9361 6.62386L14.5455 4.23999H9.45427ZM11.9999 10.24C10.564 10.24 9.3999 11.404 9.3999 12.84C9.3999 14.2759 10.564 15.44 11.9999 15.44C13.4358 15.44 14.5999 14.2759 14.5999 12.84C14.5999 11.404 13.4358 10.24 11.9999 10.24ZM7.3999 12.84C7.3999 10.2995 9.45939 8.23999 11.9999 8.23999C14.5404 8.23999 16.5999 10.2995 16.5999 12.84C16.5999 15.3805 14.5404 17.44 11.9999 17.44C9.45939 17.44 7.3999 15.3805 7.3999 12.84Z" fill="#151515"/>
</svg>
