<svg width="24" height="24" viewBox="0 0 24 24" fill="none" xmlns="http://www.w3.org/2000/svg">
<path d="M9.05974 5.448C9.65774 3.698 12.0757 3.645 12.7847 5.289L12.8447 5.449L13.6517 7.809C13.8367 8.35023 14.1355 8.84551 14.5282 9.26142C14.9208 9.67734 15.3981 10.0042 15.9277 10.22L16.1447 10.301L18.5047 11.107C20.2547 11.705 20.3077 14.123 18.6647 14.832L18.5047 14.892L16.1447 15.699C15.6033 15.8838 15.1079 16.1826 14.6918 16.5753C14.2757 16.9679 13.9486 17.4452 13.7327 17.975L13.6517 18.191L12.8457 20.552C12.2477 22.302 9.82974 22.355 9.12174 20.712L9.05974 20.552L8.25374 18.192C8.06892 17.6506 7.77011 17.1551 7.37748 16.739C6.98485 16.3229 6.50753 15.9959 5.97774 15.78L5.76174 15.699L3.40174 14.893C1.65074 14.295 1.59774 11.877 3.24174 11.169L3.40174 11.107L5.76174 10.301C6.30297 10.1161 6.79825 9.81719 7.21416 9.42457C7.63008 9.03195 7.95695 8.55469 8.17274 8.025L8.25374 7.809L9.05974 5.448ZM18.9527 2C19.1398 2 19.3232 2.05248 19.4819 2.15147C19.6406 2.25046 19.7684 2.392 19.8507 2.56L19.8987 2.677L20.2487 3.703L21.2757 4.053C21.4632 4.1167 21.6276 4.23462 21.748 4.39182C21.8684 4.54902 21.9394 4.73842 21.952 4.93602C21.9647 5.13362 21.9183 5.33053 21.819 5.50179C21.7196 5.67304 21.5716 5.81094 21.3937 5.898L21.2757 5.946L20.2497 6.296L19.8997 7.323C19.8359 7.51043 19.7179 7.6747 19.5607 7.79499C19.4034 7.91529 19.214 7.98619 19.0164 7.99872C18.8188 8.01125 18.6219 7.96484 18.4507 7.86538C18.2795 7.76591 18.1417 7.61787 18.0547 7.44L18.0067 7.323L17.6567 6.297L16.6297 5.947C16.4423 5.8833 16.2779 5.76538 16.1575 5.60819C16.0371 5.45099 15.9661 5.26158 15.9535 5.06398C15.9408 4.86638 15.9871 4.66947 16.0865 4.49821C16.1859 4.32696 16.3339 4.18906 16.5117 4.102L16.6297 4.054L17.6557 3.704L18.0057 2.677C18.0732 2.47943 18.2007 2.30791 18.3706 2.1865C18.5404 2.06509 18.744 1.99987 18.9527 2Z" fill="#151515"/>
</svg>
