<svg width="24" height="24" viewBox="0 0 24 24" fill="none" xmlns="http://www.w3.org/2000/svg">
<path d="M12.0005 21C16.9711 21 21.0005 16.9706 21.0005 12C21.0005 7.02944 16.9711 3 12.0005 3C7.02993 3 3.00049 7.02944 3.00049 12C3.00049 16.9706 7.02993 21 12.0005 21Z" fill="white"/>
<path fill-rule="evenodd" clip-rule="evenodd" d="M12.0005 4C7.58221 4 4.00049 7.58172 4.00049 12C4.00049 16.4183 7.58221 20 12.0005 20C16.4188 20 20.0005 16.4183 20.0005 12C20.0005 7.58172 16.4188 4 12.0005 4ZM2.00049 12C2.00049 6.47715 6.47764 2 12.0005 2C17.5233 2 22.0005 6.47715 22.0005 12C22.0005 17.5228 17.5233 22 12.0005 22C6.47764 22 2.00049 17.5228 2.00049 12Z" fill="#E5E5E8"/>
<path d="M16.9169 8.22042C16.5404 7.8941 15.9706 7.9348 15.6443 8.31133L10.9093 13.7747L8.2901 11.1555C7.93778 10.8032 7.36656 10.8032 7.01424 11.1555C6.66192 11.5079 6.66192 12.0791 7.01424 12.4314L10.3186 15.7357C10.4956 15.9128 10.7384 16.0083 10.9887 15.9994C11.2389 15.9905 11.4742 15.8779 11.6383 15.6886L17.0078 9.49304C17.3341 9.11652 17.2934 8.54675 16.9169 8.22042Z" fill="#E5E5E8"/>
</svg>
