<svg width="24" height="24" viewBox="0 0 24 24" fill="none" xmlns="http://www.w3.org/2000/svg">
<path fill-rule="evenodd" clip-rule="evenodd" d="M9.88999 2.874C10.45 2.314 11.209 2 12 2C12.392 1.99992 12.7801 2.07716 13.1422 2.2273C13.5042 2.37745 13.8331 2.59755 14.11 2.875L15.003 3.768C15.1886 3.95105 15.4383 4.05438 15.699 4.056H16.961C17.7524 4.056 18.5114 4.37038 19.071 4.92999C19.6306 5.4896 19.945 6.24859 19.945 7.04V8.302C19.9466 8.56267 20.0499 8.8124 20.233 8.998L21.126 9.891C21.6856 10.4506 22 11.2096 22 12.001C22 12.7924 21.6856 13.5514 21.126 14.111L20.233 15.004C20.049 15.188 19.945 15.439 19.945 15.7V16.962C19.945 17.7534 19.6306 18.5124 19.071 19.072C18.5114 19.6316 17.7524 19.946 16.961 19.946H15.699C15.4383 19.9476 15.1886 20.051 15.003 20.234L14.11 21.127C13.5504 21.6866 12.7914 22.001 12 22.001C11.2086 22.001 10.4496 21.6866 9.88999 21.127L8.99699 20.234C8.81299 20.05 8.56199 19.946 8.30099 19.946H7.03899C6.24758 19.946 5.48859 19.6316 4.92898 19.072C4.36937 18.5124 4.05499 17.7534 4.05499 16.962V15.7C4.05337 15.4393 3.95003 15.1896 3.76699 15.004L2.87399 14.111C2.31438 13.5514 2 12.7924 2 12.001C2 11.2096 2.31438 10.4506 2.87399 9.891L3.76699 8.998C3.95003 8.8124 4.05337 8.56267 4.05499 8.302V7.04C4.05485 6.64797 4.13197 6.25975 4.28194 5.89753C4.4319 5.53532 4.65177 5.2062 4.92898 4.92899C5.20619 4.65178 5.53531 4.43192 5.89752 4.28195C6.25974 4.13199 6.64795 4.05487 7.03999 4.055H8.30099C8.56166 4.05338 8.81139 3.95005 8.99699 3.767L9.88999 2.874ZM16.8556 9.65495C17.2173 9.23759 17.1722 8.60604 16.7548 8.24433C16.3375 7.88262 15.7059 7.92773 15.3442 8.34509L11.2809 13.0335L9.10701 10.8596C8.71649 10.4691 8.08332 10.4691 7.6928 10.8596C7.30227 11.2501 7.30227 11.8833 7.6928 12.2738L10.6261 15.2071C10.8224 15.4034 11.0915 15.5093 11.3689 15.4994C11.6463 15.4895 11.9071 15.3647 12.0889 15.1549L16.8556 9.65495Z" fill="#151515"/>
</svg>
