<svg width="24" height="24" viewBox="0 0 24 24" fill="none" xmlns="http://www.w3.org/2000/svg">
<path fill-rule="evenodd" clip-rule="evenodd" d="M5.38563 2.52521C6.0658 2.24537 7.07181 2 8.50049 2C10.0117 2 11.2625 2.51482 12.325 2.95217C12.3437 2.95988 12.3624 2.96756 12.381 2.97521C13.4939 3.43312 14.4133 3.8 15.5005 3.8C16.6968 3.8 17.4408 3.59537 17.8544 3.42521C18.0622 3.33971 18.1916 3.26087 18.2572 3.2159C18.2851 3.19675 18.302 3.18341 18.3087 3.17787C18.5924 2.90599 19.0105 2.82481 19.3767 2.97345C19.7538 3.12656 20.0005 3.49297 20.0005 3.9V14.7C20.0005 14.9603 19.899 15.2104 19.7175 15.3971L19.0005 14.7C19.7175 15.3971 19.717 15.3976 19.7165 15.3981L19.7154 15.3992L19.7132 15.4014L19.7086 15.4061L19.6982 15.4164C19.6908 15.4237 19.6824 15.4317 19.673 15.4405C19.6542 15.4581 19.6313 15.4787 19.6041 15.5017C19.5497 15.5478 19.4783 15.6036 19.3883 15.6654C19.2078 15.7891 18.9544 15.9353 18.6153 16.0748C17.9352 16.3546 16.9292 16.6 15.5005 16.6C13.9893 16.6 12.7385 16.0852 11.676 15.6478C11.6573 15.6401 11.6386 15.6324 11.62 15.6248C10.507 15.1669 9.58765 14.8 8.50049 14.8C7.30417 14.8 6.56018 15.0046 6.1466 15.1748C6.09271 15.197 6.04409 15.2187 6.00049 15.2395L6.00049 21C6.00049 21.5523 5.55277 22 5.00049 22C4.4482 22 4.00049 21.5523 4.00049 21L4.00049 14.7014C4.00049 14.7004 4.00049 14.6994 4.00049 14.6985L4.00049 3.9C4.00049 3.63966 4.10202 3.38958 4.28349 3.20292L5.00049 3.9C4.28349 3.20292 4.28401 3.20239 4.28453 3.20186L4.28558 3.20078L4.28776 3.19856L4.29239 3.19388L4.30275 3.1836C4.31015 3.17633 4.31855 3.16827 4.32796 3.15947C4.34679 3.14186 4.36969 3.12131 4.39687 3.09828C4.45126 3.05221 4.52263 2.9964 4.61269 2.93465C4.7932 2.81087 5.04657 2.66471 5.38563 2.52521ZM6.00049 4.43948L6.00049 13.1129C6.63185 12.932 7.45244 12.8 8.50049 12.8C10.0117 12.8 11.2625 13.3148 12.325 13.7522C12.3437 13.7599 12.3624 13.7676 12.381 13.7752C13.4939 14.2331 14.4133 14.6 15.5005 14.6C16.6968 14.6 17.4408 14.3954 17.8544 14.2252C17.9083 14.203 17.9569 14.1813 18.0005 14.1605V5.48713C17.3691 5.66796 16.5485 5.8 15.5005 5.8C13.9893 5.8 12.7385 5.28518 11.676 4.84783C11.6573 4.84012 11.6386 4.83244 11.62 4.82479C10.507 4.36688 9.58765 4 8.50049 4C7.30417 4 6.56018 4.20463 6.1466 4.37479C6.09271 4.39696 6.04409 4.41868 6.00049 4.43948Z" fill="#151515"/>
</svg>
