<svg width="24" height="24" viewBox="0 0 24 24" fill="none" xmlns="http://www.w3.org/2000/svg">
<path d="M10.8269 14.6864L11.6507 13.8639C11.7825 13.9116 11.917 13.9473 12.0541 13.9712C12.1911 13.995 12.3373 14.0069 12.4925 14.0069C13.185 14.0069 13.7761 13.7625 14.2656 13.2738C14.7552 12.785 14.9999 12.1949 14.9999 11.5035C15.0004 11.3962 14.9976 11.2889 14.9914 11.1816C14.9851 11.0743 14.9641 10.973 14.9283 10.8776C14.8801 10.746 14.7814 10.6654 14.6324 10.6358C14.4834 10.6063 14.3611 10.6392 14.2656 10.7345L13.4955 11.5035C13.3641 11.6346 13.197 11.7002 12.994 11.7002C12.791 11.7002 12.6238 11.6346 12.4925 11.5035C12.3612 11.3723 12.2955 11.2054 12.2955 11.0028C12.2955 10.8001 12.3612 10.6332 12.4925 10.5021L13.2627 9.73316C13.3586 9.63826 13.3916 9.51619 13.3615 9.36694C13.3314 9.21768 13.2507 9.11921 13.1194 9.07153C13.0238 9.03624 12.9224 9.0155 12.8149 9.0093C12.7074 9.0031 12.6 9 12.4925 9C11.8 9 11.2089 9.24439 10.7194 9.73316C10.2298 10.2219 9.98507 10.812 9.98507 11.5035C9.98507 11.6465 9.99701 11.7896 10.0209 11.9326C10.0448 12.0757 10.0806 12.2128 10.1283 12.3439L9.30448 13.1665C9.10149 13.3696 9 13.6231 9 13.9268C9 14.2306 9.10149 14.4838 9.30448 14.6864C9.5194 14.9015 9.77611 15.0059 10.0746 14.9997C10.3731 14.9935 10.6239 14.8891 10.8269 14.6864Z" fill="#151515"/>
<path d="M12 21C9.9 21 8.04167 20.3627 6.425 19.088C4.80833 17.8133 3.75833 16.184 3.275 14.2C3.20833 13.95 3.25833 13.721 3.425 13.513C3.59167 13.305 3.81667 13.184 4.1 13.15C4.36667 13.1167 4.60833 13.1667 4.825 13.3C5.04167 13.4333 5.19167 13.6333 5.275 13.9C5.675 15.4 6.5 16.625 7.75 17.575C9 18.525 10.4167 19 12 19C13.95 19 15.6043 18.321 16.963 16.963C18.3217 15.605 19.0007 13.9507 19 12C18.9993 10.0493 18.3203 8.39533 16.963 7.038C15.6057 5.68067 13.9513 5.00133 12 5C10.85 5 9.775 5.26667 8.775 5.8C7.775 6.33333 6.93333 7.06667 6.25 8H8C8.28333 8 8.521 8.096 8.713 8.288C8.905 8.48 9.00067 8.71733 9 9C8.99933 9.28267 8.90333 9.52033 8.712 9.713C8.52067 9.90567 8.28333 10.0013 8 10H4C3.71667 10 3.47933 9.904 3.288 9.712C3.09667 9.52 3.00067 9.28267 3 9V5C3 4.71667 3.096 4.47933 3.288 4.288C3.48 4.09667 3.71733 4.00067 4 4C4.28267 3.99933 4.52033 4.09533 4.713 4.288C4.90567 4.48067 5.00133 4.718 5 5V6.35C5.85 5.28333 6.88767 4.45833 8.113 3.875C9.33833 3.29167 10.634 3 12 3C13.25 3 14.421 3.23767 15.513 3.713C16.605 4.18833 17.555 4.82967 18.363 5.637C19.171 6.44433 19.8127 7.39433 20.288 8.487C20.7633 9.57967 21.0007 10.7507 21 12C20.9993 13.2493 20.762 14.4203 20.288 15.513C19.814 16.6057 19.1723 17.5557 18.363 18.363C17.5537 19.1703 16.6037 19.812 15.513 20.288C14.4223 20.764 13.2513 21.0013 12 21Z" fill="#151515"/>
</svg>
