<svg width="24" height="24" viewBox="0 0 24 24" fill="none" xmlns="http://www.w3.org/2000/svg">
<path fill-rule="evenodd" clip-rule="evenodd" d="M9.8871 3.01358C10.4319 3.10437 10.7999 3.6196 10.7091 4.16437L10.1624 7.44442H15.2459L15.8474 3.83557C15.9382 3.2908 16.4534 2.92278 16.9982 3.01358C17.543 3.10437 17.911 3.6196 17.8202 4.16437L17.2735 7.44442H19.5005C20.0528 7.44442 20.5005 7.89213 20.5005 8.44442C20.5005 8.9967 20.0528 9.44442 19.5005 9.44442H16.9402L16.0883 14.5555H18.6116C19.1639 14.5555 19.6116 15.0032 19.6116 15.5555C19.6116 16.1078 19.1639 16.5555 18.6116 16.5555H15.755L15.1535 20.1644C15.0627 20.7091 14.5475 21.0772 14.0027 20.9864C13.458 20.8956 13.0899 20.3803 13.1807 19.8356L13.7274 16.5555H8.6439L8.04243 20.1644C7.95163 20.7091 7.4364 21.0772 6.89163 20.9864C6.34686 20.8956 5.97884 20.3803 6.06964 19.8356L6.61631 16.5555H3.50049C2.9482 16.5555 2.50049 16.1078 2.50049 15.5555C2.50049 15.0032 2.9482 14.5555 3.50049 14.5555H6.94965L7.8015 9.44442H4.38938C3.83709 9.44442 3.38938 8.9967 3.38938 8.44442C3.38938 7.89213 3.83709 7.44442 4.38938 7.44442H8.13483L8.7363 3.83557C8.8271 3.2908 9.34233 2.92278 9.8871 3.01358ZM9.82908 9.44442L8.97723 14.5555H14.0607L14.9126 9.44442H9.82908Z" fill="#151515"/>
</svg>
