<svg width="24" height="24" viewBox="0 0 24 24" fill="none" xmlns="http://www.w3.org/2000/svg">
<path fill-rule="evenodd" clip-rule="evenodd" d="M8.01612 2.73612C8.19533 2.4289 8.52423 2.23999 8.8799 2.23999H15.1199C15.4756 2.23999 15.8045 2.4289 15.9837 2.73612L17.3743 5.11999H19.1999C21.0777 5.11999 22.5999 6.64222 22.5999 8.51999V18.36C22.5999 20.2378 21.0777 21.76 19.1999 21.76H4.7999C2.92213 21.76 1.3999 20.2378 1.3999 18.36V8.51999C1.3999 6.64222 2.92213 5.11999 4.7999 5.11999H6.62553L8.01612 2.73612ZM11.9999 16.44C13.9881 16.44 15.5999 14.8282 15.5999 12.84C15.5999 10.8518 13.9881 9.23999 11.9999 9.23999C10.0117 9.23999 8.3999 10.8518 8.3999 12.84C8.3999 14.8282 10.0117 16.44 11.9999 16.44Z" fill="#151515"/>
</svg>
