<svg width="24" height="24" viewBox="0 0 24 24" fill="none" xmlns="http://www.w3.org/2000/svg">
<path fill-rule="evenodd" clip-rule="evenodd" d="M11 4C7.13401 4 4 7.13401 4 11C4 14.866 7.13401 18 11 18C12.8835 18 14.5933 17.2561 15.8515 16.0461C15.8791 16.0096 15.9095 15.9746 15.9428 15.9413C15.976 15.9081 16.0109 15.8778 16.0473 15.8502C17.2566 14.5921 18 12.8829 18 11C18 7.13401 14.866 4 11 4ZM18.0326 16.6169C19.2638 15.0773 20 13.1246 20 11C20 6.02944 15.9706 2 11 2C6.02944 2 2 6.02944 2 11C2 15.9706 6.02944 20 11 20C13.1254 20 15.0787 19.2633 16.6185 18.0312L20.2928 21.7055C20.6833 22.0961 21.3165 22.0961 21.707 21.7055C22.0975 21.315 22.0975 20.6819 21.707 20.2913L18.0326 16.6169Z" fill="#151515"/>
</svg>
