<svg width="24" height="24" viewBox="0 0 24 24" fill="none" xmlns="http://www.w3.org/2000/svg">
<path fill-rule="evenodd" clip-rule="evenodd" d="M12.001 4C7.5827 4 4.00098 7.58172 4.00098 12C4.00098 16.4183 7.5827 20 12.001 20C16.4193 20 20.001 16.4183 20.001 12C20.001 7.58172 16.4193 4 12.001 4ZM2.00098 12C2.00098 6.47715 6.47813 2 12.001 2C17.5238 2 22.001 6.47715 22.001 12C22.001 17.5228 17.5238 22 12.001 22C6.47813 22 2.00098 17.5228 2.00098 12Z" fill="#151515"/>
<path d="M17.0005 12C17.0005 14.7614 14.7619 17 12.0005 17C9.23906 17 7.00049 14.7614 7.00049 12C7.00049 9.23858 9.23906 7 12.0005 7C14.7619 7 17.0005 9.23858 17.0005 12Z" fill="#151515"/>
</svg>
